<svg width="204" height="28" viewBox="0 0 204 28" fill="none" xmlns="http://www.w3.org/2000/svg">
<path d="M0.561388 27V0.609457H11.9526C13.9113 0.609457 15.6251 0.996038 17.0941 1.7692C18.5631 2.54236 19.7057 3.62908 20.5218 5.02936C21.3379 6.42964 21.746 8.06616 21.746 9.93893C21.746 11.8289 21.325 13.4654 20.4832 14.8485C19.6499 16.2316 18.4772 17.2968 16.9653 18.0442C15.4619 18.7916 13.7051 19.1653 11.6949 19.1653H4.89109V13.5986H10.2517C11.0936 13.5986 11.8109 13.4525 12.4036 13.1604C13.005 12.8598 13.4646 12.4345 13.7824 11.8847C14.1089 11.3349 14.2721 10.6863 14.2721 9.93893C14.2721 9.18295 14.1089 8.53865 13.7824 8.00603C13.4646 7.46481 13.005 7.05246 12.4036 6.76897C11.8109 6.47689 11.0936 6.33084 10.2517 6.33084H7.72601V27H0.561388ZM24.3747 27V0.609457H43.3945V6.38239H31.5393V10.9183H42.4151V16.6912H31.5393V21.2271H43.3429V27H24.3747ZM46.9478 27V0.609457H65.9675V6.38239H54.1124V10.9183H64.9882V16.6912H54.1124V21.2271H65.916V27H46.9478ZM69.5209 27V0.609457H76.6855V11.2791H77.0463L84.9841 0.609457H93.3342L84.4171 12.3615L93.5404 27H84.9841L79.0565 17.1035L76.6855 20.1962V27H69.5209ZM102.316 27H94.5841L103.295 0.609457H113.088L121.799 27H114.068L108.295 7.87717H108.089L102.316 27ZM100.873 16.5881H115.408V21.9487H100.873V16.5881Z" fill="#792DC4"/>
<path d="M124.341 27V0.609457H135.784C137.794 0.609457 139.482 0.880064 140.848 1.42128C142.223 1.96249 143.258 2.72706 143.954 3.71498C144.658 4.70291 145.01 5.86695 145.01 7.20709C145.01 8.17784 144.796 9.06268 144.366 9.86161C143.945 10.6605 143.352 11.3306 142.588 11.8718C141.823 12.4044 140.93 12.7738 139.907 12.98V13.2377C141.041 13.2807 142.072 13.5685 143 14.1011C143.928 14.6251 144.667 15.351 145.216 16.2788C145.766 17.198 146.041 18.2805 146.041 19.5261C146.041 20.9693 145.663 22.2537 144.907 23.379C144.16 24.5044 143.095 25.3892 141.711 26.0335C140.328 26.6778 138.679 27 136.763 27H124.341ZM131.506 21.2786H134.856C136.059 21.2786 136.961 21.0553 137.562 20.6085C138.164 20.1532 138.464 19.4832 138.464 18.5983C138.464 17.9798 138.322 17.4558 138.039 17.0262C137.755 16.5967 137.352 16.2703 136.828 16.0469C136.312 15.8235 135.689 15.7119 134.959 15.7119H131.506V21.2786ZM131.506 11.2791H134.444C135.071 11.2791 135.625 11.1803 136.106 10.9827C136.587 10.7851 136.961 10.5016 137.227 10.1322C137.502 9.75423 137.64 9.29463 137.64 8.75341C137.64 7.9373 137.347 7.31448 136.763 6.88494C136.179 6.44682 135.44 6.22776 134.547 6.22776H131.506V11.2791ZM174.146 13.8047C174.146 16.7427 173.574 19.2211 172.432 21.24C171.289 23.2502 169.747 24.775 167.806 25.8145C165.864 26.8454 163.699 27.3608 161.311 27.3608C158.906 27.3608 156.732 26.8411 154.791 25.8016C152.858 24.7535 151.32 23.2244 150.178 21.2142C149.044 19.1954 148.477 16.7256 148.477 13.8047C148.477 10.8667 149.044 8.39261 150.178 6.38239C151.32 4.36358 152.858 2.83874 154.791 1.80786C156.732 0.768385 158.906 0.248649 161.311 0.248649C163.699 0.248649 165.864 0.768385 167.806 1.80786C169.747 2.83874 171.289 4.36358 172.432 6.38239C173.574 8.39261 174.146 10.8667 174.146 13.8047ZM166.775 13.8047C166.775 12.224 166.564 10.8925 166.143 9.81007C165.731 8.71905 165.117 7.89435 164.301 7.33595C163.493 6.76897 162.497 6.48548 161.311 6.48548C160.126 6.48548 159.125 6.76897 158.309 7.33595C157.501 7.89435 156.887 8.71905 156.466 9.81007C156.054 10.8925 155.847 12.224 155.847 13.8047C155.847 15.3854 156.054 16.7213 156.466 17.8123C156.887 18.8947 157.501 19.7194 158.309 20.2864C159.125 20.8448 160.126 21.124 161.311 21.124C162.497 21.124 163.493 20.8448 164.301 20.2864C165.117 19.7194 165.731 18.8947 166.143 17.8123C166.564 16.7213 166.775 15.3854 166.775 13.8047ZM203.026 13.8047C203.026 16.7427 202.455 19.2211 201.313 21.24C200.17 23.2502 198.628 24.775 196.686 25.8145C194.745 26.8454 192.58 27.3608 190.192 27.3608C187.786 27.3608 185.613 26.8411 183.672 25.8016C181.739 24.7535 180.201 23.2244 179.058 21.2142C177.924 19.1954 177.357 16.7256 177.357 13.8047C177.357 10.8667 177.924 8.39261 179.058 6.38239C180.201 4.36358 181.739 2.83874 183.672 1.80786C185.613 0.768385 187.786 0.248649 190.192 0.248649C192.58 0.248649 194.745 0.768385 196.686 1.80786C198.628 2.83874 200.17 4.36358 201.313 6.38239C202.455 8.39261 203.026 10.8667 203.026 13.8047ZM195.656 13.8047C195.656 12.224 195.445 10.8925 195.024 9.81007C194.612 8.71905 193.998 7.89435 193.181 7.33595C192.374 6.76897 191.377 6.48548 190.192 6.48548C189.006 6.48548 188.006 6.76897 187.189 7.33595C186.382 7.89435 185.768 8.71905 185.347 9.81007C184.934 10.8925 184.728 12.224 184.728 13.8047C184.728 15.3854 184.934 16.7213 185.347 17.8123C185.768 18.8947 186.382 19.7194 187.189 20.2864C188.006 20.8448 189.006 21.124 190.192 21.124C191.377 21.124 192.374 20.8448 193.181 20.2864C193.998 19.7194 194.612 18.8947 195.024 17.8123C195.445 16.7213 195.656 15.3854 195.656 13.8047Z" fill="#52DDB3"/>
</svg>
