<svg width="192" height="267" viewBox="0 0 192 267" fill="none" xmlns="http://www.w3.org/2000/svg">
<path d="M163.884 165.745L96 234.401L28.116 165.745C14.6907 152.166 5.54807 134.866 1.84429 116.032C-1.85949 97.1982 0.041924 77.6765 7.30808 59.9355C14.5742 42.1945 26.8788 27.031 42.6658 16.3626C58.4528 5.69423 77.0132 0 96 0C114.987 0 133.547 5.69423 149.334 16.3626C165.121 27.031 177.426 42.1945 184.692 59.9355C191.958 77.6765 193.859 97.1982 190.156 116.032C186.452 134.866 177.309 152.166 163.884 165.745Z" fill="#792DC4"/>
<path d="M138.636 106.454V135.792L62.1384 54.3042C61.5535 53.6815 60.8085 53.2573 59.9974 53.0855C59.1863 52.9137 58.3456 53.002 57.5816 53.339C56.8176 53.6761 56.1646 54.2469 55.705 54.9793C55.2455 55.7117 55.0002 56.5727 55 57.4536V151H63.3636V68.2075L132.723 142.091H105.182V151H147V106.454H138.636Z" fill="white"/>
</svg>
