<svg width="192" height="267" viewBox="0 0 192 267" fill="none" xmlns="http://www.w3.org/2000/svg">
<path d="M163.884 165.745L96 234.401L28.116 165.745C14.6907 152.166 5.54807 134.866 1.84429 116.032C-1.85949 97.1982 0.041924 77.6765 7.30808 59.9355C14.5742 42.1945 26.8788 27.031 42.6658 16.3626C58.4528 5.69423 77.0132 0 96 0C114.987 0 133.547 5.69423 149.334 16.3626C165.121 27.031 177.426 42.1945 184.692 59.9355C191.958 77.6765 193.859 97.1982 190.156 116.032C186.452 134.866 177.309 152.166 163.884 165.745Z" fill="#792DC4"/>
<path d="M88.983 68.9985L107.944 74.7437L112.898 92.7145L114.167 97.3083L118.514 99.9298L133.621 109.081L137.705 138.75H61.4767L63.711 128.644L71.3048 125.202L77.211 122.519L78.5002 116.645L88.983 68.9985ZM78.75 53L65.25 114.25L51.75 120.375L45 151H153L146.25 102L126 89.75L119.25 65.25L78.75 53Z" fill="white"/>
</svg>
