<svg width="189" height="243" viewBox="0 0 189 243" fill="none" xmlns="http://www.w3.org/2000/svg">
<path d="M161.323 165.745L94.5 234.401L27.6767 165.745C14.4612 152.166 5.46138 134.866 1.81548 116.032C-1.83043 97.1982 0.0412688 77.6765 7.19389 59.9355C14.3465 42.1945 26.4588 27.031 41.9991 16.3626C57.5395 5.69423 75.8099 0 94.5 0C113.19 0 131.461 5.69423 147.001 16.3626C162.541 27.031 174.653 42.1945 181.806 59.9355C188.959 77.6765 190.83 97.1982 187.185 116.032C183.539 134.866 174.539 152.166 161.323 165.745Z" fill="#792DC4"/>
<path d="M160.655 120.136H136.956C129.58 99.4159 113.36 85 94.5 85C75.6403 85 59.42 99.4159 52.0444 120.136H28.3454C26.2822 120.136 24.6094 122.29 24.6094 124.949C24.6094 127.606 26.2822 129.76 28.3454 129.76H160.655C162.718 129.76 164.391 127.606 164.391 124.949C164.391 122.29 162.718 120.136 160.655 120.136Z" fill="white"/>
</svg>
