<svg width="192" height="267" viewBox="0 0 192 267" fill="none" xmlns="http://www.w3.org/2000/svg">
<path d="M163.884 165.745L96 234.401L28.116 165.745C14.6907 152.166 5.54807 134.866 1.84429 116.032C-1.85949 97.1982 0.0419235 77.6765 7.30808 59.9355C14.5742 42.1945 26.8788 27.031 42.6658 16.3626C58.4528 5.69423 77.0132 0 96 0C114.987 0 133.547 5.69423 149.334 16.3626C165.121 27.031 177.426 42.1945 184.692 59.9355C191.958 77.6765 193.859 97.1982 190.156 116.032C186.452 134.866 177.309 152.166 163.884 165.745Z" fill="#792DC4"/>
<path d="M96 70C79.2627 70 64.0953 74.1657 52.9087 81.1086C47.3127 84.6186 42.696 88.7843 39.3751 93.6443C36.0516 98.5429 34 104.29 34 110.5C34 116.71 36.0516 122.457 39.3751 127.356C42.696 132.216 47.3127 136.381 52.9087 139.891C64.0953 146.834 79.2627 151 96 151C112.737 151 127.905 146.834 139.081 139.891C144.695 136.381 149.299 132.216 152.625 127.356C155.951 122.457 158 116.71 158 110.5C158 104.29 155.951 98.5429 152.625 93.6443C149.299 88.7843 144.695 84.6186 139.081 81.1086C127.905 74.1657 112.737 70 96 70ZM96 86.5857C118.006 86.5857 140.039 94.7629 153.21 111.117C153.077 114.936 151.8 118.677 149.219 122.457C146.505 126.469 142.407 130.249 137.191 133.489C126.814 139.93 112.179 144.057 96 144.057C79.8215 144.057 65.1863 139.93 54.8086 133.489C49.6064 130.249 45.4926 126.469 42.7838 122.457C40.216 118.677 38.9307 114.936 38.803 111.117C51.972 94.7629 73.994 86.5857 96 86.5857Z" fill="white"/>
</svg>
