<svg width="1363" height="301" viewBox="0 0 1363 301" fill="none" xmlns="http://www.w3.org/2000/svg">
<rect width="1363" height="301" rx="15" fill="#F0F0F0"/>
<path d="M0 15C0 6.71573 6.71573 0 15 0H37V301H15C6.71573 301 0 294.284 0 286V15Z" fill="#792DC4"/>
<path d="M110.584 130.733H100.862V123.456H110.584C111.909 123.456 112.983 123.232 113.807 122.784C114.63 122.337 115.23 121.719 115.606 120.931C116 120.125 116.197 119.221 116.197 118.219C116.197 117.145 116 116.151 115.606 115.238C115.23 114.325 114.63 113.591 113.807 113.036C112.983 112.463 111.909 112.176 110.584 112.176H104.407V144H94.981V104.898H110.584C113.717 104.898 116.412 105.471 118.667 106.617C120.941 107.763 122.687 109.339 123.904 111.344C125.122 113.331 125.73 115.605 125.73 118.165C125.73 120.689 125.122 122.892 123.904 124.771C122.687 126.651 120.941 128.119 118.667 129.176C116.412 130.214 113.717 130.733 110.584 130.733ZM157.715 136.749V144H136.875V136.749H157.715ZM140.232 104.898V144H130.806V104.898H140.232ZM155.03 120.421V127.43H136.875V120.421H155.03ZM157.796 104.898V112.176H136.875V104.898H157.796ZM188.492 136.749V144H167.652V136.749H188.492ZM171.009 104.898V144H161.583V104.898H171.009ZM185.806 120.421V127.43H167.652V120.421H185.806ZM188.572 104.898V112.176H167.652V104.898H188.572ZM201.785 104.898V144H192.359V104.898H201.785ZM225.123 104.898L209.976 124.718L201.114 134.413L199.395 125.765L205.062 117.171L213.494 104.898H225.123ZM213.978 144L203.88 126.383L211.211 120.985L225.123 144H213.978ZM244.109 113.116L234.576 144H224.451L238.819 104.898H245.237L244.109 113.116ZM252.005 144L242.444 113.116L241.209 104.898H247.708L262.156 144H252.005ZM251.629 129.417V136.695H231.568V129.417H251.629ZM280.982 127.376H270.911L270.857 121.2H279.021C280.49 121.2 281.662 121.039 282.54 120.716C283.417 120.376 284.052 119.884 284.446 119.239C284.858 118.595 285.064 117.789 285.064 116.822C285.064 115.712 284.858 114.817 284.446 114.137C284.035 113.456 283.381 112.964 282.486 112.66C281.609 112.337 280.472 112.176 279.075 112.176H274.456V144H265.03V104.898H279.075C281.492 104.898 283.65 105.122 285.547 105.57C287.445 106 289.056 106.662 290.381 107.557C291.724 108.452 292.745 109.58 293.443 110.941C294.141 112.284 294.49 113.868 294.49 115.694C294.49 117.288 294.15 118.783 293.47 120.179C292.789 121.576 291.653 122.713 290.059 123.59C288.484 124.449 286.326 124.897 283.587 124.933L280.982 127.376ZM280.606 144H268.628L271.851 136.749H280.606C281.895 136.749 282.924 136.552 283.694 136.158C284.482 135.746 285.046 135.209 285.386 134.547C285.744 133.867 285.923 133.115 285.923 132.291C285.923 131.288 285.753 130.42 285.413 129.686C285.091 128.952 284.572 128.388 283.855 127.994C283.139 127.582 282.181 127.376 280.982 127.376H273.06L273.113 121.2H282.593L284.795 123.67C287.409 123.563 289.477 123.93 290.999 124.771C292.539 125.613 293.64 126.723 294.302 128.102C294.965 129.48 295.296 130.921 295.296 132.425C295.296 134.986 294.741 137.125 293.631 138.844C292.539 140.562 290.901 141.852 288.716 142.711C286.532 143.57 283.829 144 280.606 144ZM333.619 123.67V125.255C333.619 128.245 333.198 130.93 332.356 133.312C331.533 135.675 330.36 137.698 328.838 139.381C327.317 141.046 325.517 142.326 323.44 143.221C321.364 144.098 319.072 144.537 316.565 144.537C314.041 144.537 311.731 144.098 309.637 143.221C307.56 142.326 305.752 141.046 304.212 139.381C302.69 137.698 301.508 135.675 300.667 133.312C299.843 130.93 299.432 128.245 299.432 125.255V123.67C299.432 120.681 299.843 117.995 300.667 115.614C301.508 113.233 302.681 111.209 304.185 109.544C305.707 107.861 307.506 106.581 309.583 105.704C311.678 104.809 313.987 104.361 316.512 104.361C319.018 104.361 321.31 104.809 323.387 105.704C325.481 106.581 327.29 107.861 328.812 109.544C330.333 111.209 331.515 113.233 332.356 115.614C333.198 117.995 333.619 120.681 333.619 123.67ZM324.058 125.255V123.617C324.058 121.683 323.888 119.982 323.548 118.514C323.226 117.028 322.742 115.784 322.098 114.781C321.453 113.779 320.656 113.027 319.708 112.525C318.777 112.006 317.711 111.747 316.512 111.747C315.258 111.747 314.166 112.006 313.235 112.525C312.304 113.027 311.526 113.779 310.899 114.781C310.272 115.784 309.798 117.028 309.476 118.514C309.171 119.982 309.019 121.683 309.019 123.617V125.255C309.019 127.171 309.171 128.871 309.476 130.357C309.798 131.826 310.272 133.07 310.899 134.09C311.543 135.111 312.331 135.881 313.262 136.4C314.211 136.919 315.312 137.179 316.565 137.179C317.765 137.179 318.83 136.919 319.761 136.4C320.692 135.881 321.471 135.111 322.098 134.09C322.742 133.07 323.226 131.826 323.548 130.357C323.888 128.871 324.058 127.171 324.058 125.255ZM371.592 123.67V125.255C371.592 128.245 371.172 130.93 370.33 133.312C369.507 135.675 368.334 137.698 366.812 139.381C365.29 141.046 363.491 142.326 361.414 143.221C359.337 144.098 357.046 144.537 354.539 144.537C352.015 144.537 349.705 144.098 347.61 143.221C345.534 142.326 343.725 141.046 342.186 139.381C340.664 137.698 339.482 135.675 338.641 133.312C337.817 130.93 337.405 128.245 337.405 125.255V123.67C337.405 120.681 337.817 117.995 338.641 115.614C339.482 113.233 340.655 111.209 342.159 109.544C343.681 107.861 345.48 106.581 347.557 105.704C349.651 104.809 351.961 104.361 354.485 104.361C356.992 104.361 359.284 104.809 361.36 105.704C363.455 106.581 365.263 107.861 366.785 109.544C368.307 111.209 369.489 113.233 370.33 115.614C371.172 117.995 371.592 120.681 371.592 123.67ZM362.032 125.255V123.617C362.032 121.683 361.862 119.982 361.521 118.514C361.199 117.028 360.716 115.784 360.071 114.781C359.427 113.779 358.63 113.027 357.681 112.525C356.75 112.006 355.685 111.747 354.485 111.747C353.232 111.747 352.14 112.006 351.209 112.525C350.278 113.027 349.499 113.779 348.873 114.781C348.246 115.784 347.771 117.028 347.449 118.514C347.145 119.982 346.993 121.683 346.993 123.617V125.255C346.993 127.171 347.145 128.871 347.449 130.357C347.771 131.826 348.246 133.07 348.873 134.09C349.517 135.111 350.305 135.881 351.236 136.4C352.185 136.919 353.286 137.179 354.539 137.179C355.739 137.179 356.804 136.919 357.735 136.4C358.666 135.881 359.445 135.111 360.071 134.09C360.716 133.07 361.199 131.826 361.521 130.357C361.862 128.871 362.032 127.171 362.032 125.255Z" fill="black"/>
<path d="M96.563 55.1172H100.904L107.295 73.3862L113.687 55.1172H118.028L109.039 80H105.552L96.563 55.1172ZM94.2217 55.1172H98.5454L99.3315 72.9248V80H94.2217V55.1172ZM116.045 55.1172H120.386V80H115.259V72.9248L116.045 55.1172ZM123.787 70.9424V70.5835C123.787 69.2277 123.981 67.9801 124.368 66.8408C124.756 65.6901 125.319 64.6932 126.06 63.8501C126.801 63.007 127.712 62.3519 128.794 61.8848C129.877 61.4062 131.119 61.167 132.52 61.167C133.921 61.167 135.169 61.4062 136.263 61.8848C137.356 62.3519 138.274 63.007 139.014 63.8501C139.766 64.6932 140.336 65.6901 140.723 66.8408C141.111 67.9801 141.304 69.2277 141.304 70.5835V70.9424C141.304 72.2868 141.111 73.5343 140.723 74.6851C140.336 75.8244 139.766 76.8213 139.014 77.6758C138.274 78.5189 137.362 79.174 136.28 79.6411C135.197 80.1082 133.956 80.3418 132.554 80.3418C131.153 80.3418 129.905 80.1082 128.812 79.6411C127.729 79.174 126.812 78.5189 126.06 77.6758C125.319 76.8213 124.756 75.8244 124.368 74.6851C123.981 73.5343 123.787 72.2868 123.787 70.9424ZM128.709 70.5835V70.9424C128.709 71.7171 128.777 72.4406 128.914 73.1128C129.051 73.785 129.267 74.3774 129.563 74.8901C129.871 75.3914 130.27 75.7845 130.76 76.0693C131.25 76.3542 131.848 76.4966 132.554 76.4966C133.238 76.4966 133.825 76.3542 134.314 76.0693C134.804 75.7845 135.197 75.3914 135.494 74.8901C135.79 74.3774 136.006 73.785 136.143 73.1128C136.291 72.4406 136.365 71.7171 136.365 70.9424V70.5835C136.365 69.8315 136.291 69.1252 136.143 68.4644C136.006 67.7922 135.784 67.1997 135.477 66.687C135.18 66.1629 134.787 65.7528 134.297 65.4565C133.807 65.1603 133.215 65.0122 132.52 65.0122C131.825 65.0122 131.233 65.1603 130.743 65.4565C130.264 65.7528 129.871 66.1629 129.563 66.687C129.267 67.1997 129.051 67.7922 128.914 68.4644C128.777 69.1252 128.709 69.8315 128.709 70.5835ZM149.131 53.75V80H144.209V53.75H149.131ZM148.431 70.105H147.081C147.092 68.8175 147.263 67.6326 147.593 66.5503C147.924 65.4565 148.396 64.5109 149.012 63.7134C149.627 62.9045 150.362 62.2778 151.216 61.8335C152.082 61.3892 153.039 61.167 154.087 61.167C154.999 61.167 155.825 61.298 156.565 61.5601C157.317 61.8107 157.961 62.2209 158.497 62.7905C159.043 63.3488 159.465 64.0837 159.761 64.9951C160.057 65.9066 160.206 67.0117 160.206 68.3105V80H155.25V68.2764C155.25 67.4561 155.13 66.8123 154.891 66.3452C154.663 65.8667 154.327 65.5306 153.882 65.3369C153.449 65.1318 152.914 65.0293 152.276 65.0293C151.569 65.0293 150.966 65.1603 150.464 65.4224C149.974 65.6844 149.581 66.049 149.285 66.5161C148.989 66.9718 148.772 67.5073 148.636 68.1226C148.499 68.7378 148.431 69.3986 148.431 70.105ZM173.929 75.8301V67.5928C173.929 67.0003 173.832 66.4933 173.638 66.0718C173.444 65.6388 173.143 65.3027 172.732 65.0635C172.334 64.8242 171.815 64.7046 171.177 64.7046C170.63 64.7046 170.158 64.8014 169.759 64.9951C169.36 65.1774 169.052 65.4451 168.836 65.7983C168.619 66.1401 168.511 66.5446 168.511 67.0117H163.589C163.589 66.2256 163.772 65.4793 164.136 64.7729C164.501 64.0666 165.031 63.4456 165.726 62.9102C166.421 62.3633 167.247 61.936 168.204 61.6284C169.172 61.3208 170.254 61.167 171.451 61.167C172.886 61.167 174.162 61.4062 175.279 61.8848C176.395 62.3633 177.273 63.0811 177.911 64.0381C178.56 64.9951 178.885 66.1914 178.885 67.627V75.5396C178.885 76.5535 178.947 77.3853 179.073 78.0347C179.198 78.6727 179.38 79.231 179.62 79.7095V80H174.646C174.407 79.4987 174.225 78.8721 174.1 78.1201C173.986 77.3568 173.929 76.5934 173.929 75.8301ZM174.578 68.7378L174.612 71.5234H171.861C171.211 71.5234 170.647 71.5975 170.169 71.7456C169.69 71.8937 169.297 72.1045 168.99 72.3779C168.682 72.64 168.454 72.9476 168.306 73.3008C168.169 73.654 168.101 74.0413 168.101 74.4629C168.101 74.8844 168.198 75.2661 168.392 75.6079C168.585 75.9383 168.864 76.2004 169.229 76.394C169.594 76.5763 170.021 76.6675 170.511 76.6675C171.251 76.6675 171.895 76.5194 172.442 76.2231C172.989 75.9269 173.41 75.5623 173.707 75.1294C174.014 74.6965 174.174 74.2863 174.185 73.8989L175.484 75.9839C175.302 76.451 175.051 76.9352 174.732 77.4365C174.424 77.9378 174.031 78.4106 173.553 78.855C173.074 79.2879 172.499 79.6468 171.827 79.9316C171.154 80.2051 170.357 80.3418 169.434 80.3418C168.261 80.3418 167.195 80.1082 166.238 79.6411C165.293 79.1626 164.541 78.5075 163.982 77.6758C163.436 76.8327 163.162 75.8757 163.162 74.8047C163.162 73.8363 163.344 72.9761 163.709 72.2241C164.074 71.4722 164.609 70.8398 165.315 70.3271C166.033 69.8031 166.928 69.41 167.999 69.1479C169.069 68.8745 170.311 68.7378 171.724 68.7378H174.578ZM187.601 65.3369V80H182.662V61.5088H187.293L187.601 65.3369ZM186.917 70.105H185.55C185.55 68.8175 185.704 67.6326 186.011 66.5503C186.33 65.4565 186.792 64.5109 187.396 63.7134C188.011 62.9045 188.768 62.2778 189.668 61.8335C190.569 61.3892 191.611 61.167 192.796 61.167C193.616 61.167 194.368 61.2923 195.052 61.543C195.735 61.7822 196.322 62.1639 196.812 62.688C197.313 63.2007 197.701 63.8729 197.974 64.7046C198.248 65.5249 198.384 66.5104 198.384 67.6611V80H193.462V68.208C193.462 67.3649 193.348 66.7155 193.121 66.2598C192.893 65.804 192.568 65.485 192.146 65.3027C191.736 65.1204 191.241 65.0293 190.66 65.0293C190.022 65.0293 189.463 65.1603 188.985 65.4224C188.518 65.6844 188.13 66.049 187.823 66.5161C187.515 66.9718 187.287 67.5073 187.139 68.1226C186.991 68.7378 186.917 69.3986 186.917 70.105ZM197.923 69.541L196.163 69.7632C196.163 68.5555 196.311 67.4333 196.607 66.3965C196.915 65.3597 197.365 64.4482 197.957 63.6621C198.561 62.876 199.307 62.2664 200.196 61.8335C201.084 61.3892 202.11 61.167 203.272 61.167C204.161 61.167 204.97 61.298 205.699 61.5601C206.428 61.8107 207.049 62.2152 207.562 62.7734C208.086 63.3203 208.484 64.0381 208.758 64.9268C209.043 65.8154 209.185 66.9035 209.185 68.1909V80H204.246V68.1909C204.246 67.3364 204.132 66.687 203.904 66.2427C203.688 65.7869 203.369 65.4736 202.947 65.3027C202.537 65.1204 202.047 65.0293 201.478 65.0293C200.885 65.0293 200.367 65.1489 199.922 65.3882C199.478 65.616 199.108 65.9351 198.812 66.3452C198.515 66.7554 198.293 67.2339 198.145 67.7808C197.997 68.3162 197.923 68.903 197.923 69.541ZM217.918 65.3369V80H212.979V61.5088H217.61L217.918 65.3369ZM217.234 70.105H215.867C215.867 68.8175 216.021 67.6326 216.329 66.5503C216.648 65.4565 217.109 64.5109 217.713 63.7134C218.328 62.9045 219.086 62.2778 219.986 61.8335C220.886 61.3892 221.928 61.167 223.113 61.167C223.934 61.167 224.686 61.2923 225.369 61.543C226.053 61.7822 226.639 62.1639 227.129 62.688C227.631 63.2007 228.018 63.8729 228.292 64.7046C228.565 65.5249 228.702 66.5104 228.702 67.6611V80H223.78V68.208C223.78 67.3649 223.666 66.7155 223.438 66.2598C223.21 65.804 222.885 65.485 222.464 65.3027C222.054 65.1204 221.558 65.0293 220.977 65.0293C220.339 65.0293 219.781 65.1603 219.302 65.4224C218.835 65.6844 218.448 66.049 218.14 66.5161C217.833 66.9718 217.605 67.5073 217.457 68.1226C217.308 68.7378 217.234 69.3986 217.234 70.105ZM228.24 69.541L226.48 69.7632C226.48 68.5555 226.628 67.4333 226.924 66.3965C227.232 65.3597 227.682 64.4482 228.274 63.6621C228.878 62.876 229.625 62.2664 230.513 61.8335C231.402 61.3892 232.427 61.167 233.589 61.167C234.478 61.167 235.287 61.298 236.016 61.5601C236.745 61.8107 237.366 62.2152 237.879 62.7734C238.403 63.3203 238.802 64.0381 239.075 64.9268C239.36 65.8154 239.502 66.9035 239.502 68.1909V80H234.563V68.1909C234.563 67.3364 234.45 66.687 234.222 66.2427C234.005 65.7869 233.686 65.4736 233.265 65.3027C232.854 65.1204 232.365 65.0293 231.795 65.0293C231.202 65.0293 230.684 65.1489 230.24 65.3882C229.795 65.616 229.425 65.9351 229.129 66.3452C228.833 66.7554 228.611 67.2339 228.462 67.7808C228.314 68.3162 228.24 68.903 228.24 69.541ZM253.294 75.8301V67.5928C253.294 67.0003 253.197 66.4933 253.003 66.0718C252.81 65.6388 252.508 65.3027 252.098 65.0635C251.699 64.8242 251.181 64.7046 250.542 64.7046C249.996 64.7046 249.523 64.8014 249.124 64.9951C248.725 65.1774 248.418 65.4451 248.201 65.7983C247.985 66.1401 247.876 66.5446 247.876 67.0117H242.955C242.955 66.2256 243.137 65.4793 243.501 64.7729C243.866 64.0666 244.396 63.4456 245.091 62.9102C245.786 62.3633 246.612 61.936 247.569 61.6284C248.537 61.3208 249.62 61.167 250.816 61.167C252.251 61.167 253.528 61.4062 254.644 61.8848C255.761 62.3633 256.638 63.0811 257.276 64.0381C257.925 64.9951 258.25 66.1914 258.25 67.627V75.5396C258.25 76.5535 258.313 77.3853 258.438 78.0347C258.563 78.6727 258.746 79.231 258.985 79.7095V80H254.012C253.772 79.4987 253.59 78.8721 253.465 78.1201C253.351 77.3568 253.294 76.5934 253.294 75.8301ZM253.943 68.7378L253.978 71.5234H251.226C250.577 71.5234 250.013 71.5975 249.534 71.7456C249.056 71.8937 248.663 72.1045 248.355 72.3779C248.047 72.64 247.819 72.9476 247.671 73.3008C247.535 73.654 247.466 74.0413 247.466 74.4629C247.466 74.8844 247.563 75.2661 247.757 75.6079C247.951 75.9383 248.23 76.2004 248.594 76.394C248.959 76.5763 249.386 76.6675 249.876 76.6675C250.617 76.6675 251.26 76.5194 251.807 76.2231C252.354 75.9269 252.776 75.5623 253.072 75.1294C253.379 74.6965 253.539 74.2863 253.55 73.8989L254.849 75.9839C254.667 76.451 254.416 76.9352 254.097 77.4365C253.79 77.9378 253.396 78.4106 252.918 78.855C252.439 79.2879 251.864 79.6468 251.192 79.9316C250.52 80.2051 249.722 80.3418 248.799 80.3418C247.626 80.3418 246.561 80.1082 245.604 79.6411C244.658 79.1626 243.906 78.5075 243.348 77.6758C242.801 76.8327 242.527 75.8757 242.527 74.8047C242.527 73.8363 242.71 72.9761 243.074 72.2241C243.439 71.4722 243.974 70.8398 244.681 70.3271C245.398 69.8031 246.293 69.41 247.364 69.1479C248.435 68.8745 249.677 68.7378 251.089 68.7378H253.943ZM272.964 75.9668V53.75H277.92V80H273.46L272.964 75.9668ZM261.275 70.9766V70.6177C261.275 69.2049 261.434 67.9232 261.753 66.7725C262.072 65.6104 262.54 64.6134 263.155 63.7817C263.77 62.95 264.528 62.3063 265.428 61.8506C266.328 61.3949 267.353 61.167 268.504 61.167C269.586 61.167 270.532 61.3949 271.341 61.8506C272.161 62.3063 272.856 62.9557 273.426 63.7988C274.007 64.6305 274.474 65.616 274.827 66.7554C275.18 67.8833 275.437 69.1195 275.596 70.4639V71.25C275.437 72.5374 275.18 73.7337 274.827 74.8389C274.474 75.944 274.007 76.9124 273.426 77.7441C272.856 78.5645 272.161 79.2025 271.341 79.6582C270.521 80.1139 269.563 80.3418 268.47 80.3418C267.319 80.3418 266.294 80.1082 265.394 79.6411C264.505 79.174 263.753 78.5189 263.138 77.6758C262.534 76.8327 262.072 75.8415 261.753 74.7021C261.434 73.5628 261.275 72.321 261.275 70.9766ZM266.197 70.6177V70.9766C266.197 71.7399 266.254 72.452 266.368 73.1128C266.493 73.7736 266.692 74.3604 266.966 74.873C267.251 75.3743 267.615 75.7674 268.06 76.0522C268.515 76.3257 269.068 76.4624 269.717 76.4624C270.56 76.4624 271.255 76.2744 271.802 75.8984C272.349 75.5111 272.765 74.9813 273.05 74.3091C273.346 73.6369 273.517 72.8621 273.562 71.9849V69.7461C273.528 69.0283 273.426 68.3846 273.255 67.8149C273.095 67.2339 272.856 66.7383 272.537 66.3281C272.229 65.918 271.842 65.599 271.375 65.3711C270.919 65.1432 270.378 65.0293 269.751 65.0293C269.113 65.0293 268.567 65.1774 268.111 65.4736C267.655 65.7585 267.285 66.1515 267 66.6528C266.727 67.1541 266.521 67.7466 266.385 68.4302C266.259 69.1024 266.197 69.8315 266.197 70.6177ZM293.13 55.1172H297.471L303.863 73.3862L310.254 55.1172H314.595L305.606 80H302.12L293.13 55.1172ZM290.789 55.1172H295.113L295.899 72.9248V80H290.789V55.1172ZM312.613 55.1172H316.954V80H311.827V72.9248L312.613 55.1172ZM331.121 75.8301V67.5928C331.121 67.0003 331.024 66.4933 330.831 66.0718C330.637 65.6388 330.335 65.3027 329.925 65.0635C329.526 64.8242 329.008 64.7046 328.37 64.7046C327.823 64.7046 327.35 64.8014 326.951 64.9951C326.552 65.1774 326.245 65.4451 326.028 65.7983C325.812 66.1401 325.704 66.5446 325.704 67.0117H320.782C320.782 66.2256 320.964 65.4793 321.329 64.7729C321.693 64.0666 322.223 63.4456 322.918 62.9102C323.613 62.3633 324.439 61.936 325.396 61.6284C326.364 61.3208 327.447 61.167 328.643 61.167C330.079 61.167 331.355 61.4062 332.471 61.8848C333.588 62.3633 334.465 63.0811 335.103 64.0381C335.752 64.9951 336.077 66.1914 336.077 67.627V75.5396C336.077 76.5535 336.14 77.3853 336.265 78.0347C336.39 78.6727 336.573 79.231 336.812 79.7095V80H331.839C331.6 79.4987 331.417 78.8721 331.292 78.1201C331.178 77.3568 331.121 76.5934 331.121 75.8301ZM331.771 68.7378L331.805 71.5234H329.053C328.404 71.5234 327.84 71.5975 327.361 71.7456C326.883 71.8937 326.49 72.1045 326.182 72.3779C325.875 72.64 325.647 72.9476 325.499 73.3008C325.362 73.654 325.293 74.0413 325.293 74.4629C325.293 74.8844 325.39 75.2661 325.584 75.6079C325.778 75.9383 326.057 76.2004 326.421 76.394C326.786 76.5763 327.213 76.6675 327.703 76.6675C328.444 76.6675 329.087 76.5194 329.634 76.2231C330.181 75.9269 330.603 75.5623 330.899 75.1294C331.207 74.6965 331.366 74.2863 331.377 73.8989L332.676 75.9839C332.494 76.451 332.243 76.9352 331.924 77.4365C331.617 77.9378 331.224 78.4106 330.745 78.855C330.267 79.2879 329.691 79.6468 329.019 79.9316C328.347 80.2051 327.549 80.3418 326.626 80.3418C325.453 80.3418 324.388 80.1082 323.431 79.6411C322.485 79.1626 321.733 78.5075 321.175 77.6758C320.628 76.8327 320.354 75.8757 320.354 74.8047C320.354 73.8363 320.537 72.9761 320.901 72.2241C321.266 71.4722 321.801 70.8398 322.508 70.3271C323.226 69.8031 324.12 69.41 325.191 69.1479C326.262 68.8745 327.504 68.7378 328.917 68.7378H331.771ZM344.673 53.75V80H339.751V53.75H344.673ZM343.973 70.105H342.623C342.634 68.8175 342.805 67.6326 343.135 66.5503C343.466 65.4565 343.938 64.5109 344.554 63.7134C345.169 62.9045 345.904 62.2778 346.758 61.8335C347.624 61.3892 348.581 61.167 349.629 61.167C350.541 61.167 351.367 61.298 352.107 61.5601C352.859 61.8107 353.503 62.2209 354.039 62.7905C354.585 63.3488 355.007 64.0837 355.303 64.9951C355.599 65.9066 355.748 67.0117 355.748 68.3105V80H350.792V68.2764C350.792 67.4561 350.672 66.8123 350.433 66.3452C350.205 65.8667 349.869 65.5306 349.424 65.3369C348.991 65.1318 348.456 65.0293 347.818 65.0293C347.111 65.0293 346.508 65.1603 346.006 65.4224C345.516 65.6844 345.123 66.049 344.827 66.5161C344.531 66.9718 344.314 67.5073 344.178 68.1226C344.041 68.7378 343.973 69.3986 343.973 70.105ZM370.411 75.9668V53.75H375.367V80H370.906L370.411 75.9668ZM358.721 70.9766V70.6177C358.721 69.2049 358.881 67.9232 359.2 66.7725C359.519 65.6104 359.986 64.6134 360.601 63.7817C361.216 62.95 361.974 62.3063 362.874 61.8506C363.774 61.3949 364.799 61.167 365.95 61.167C367.033 61.167 367.978 61.3949 368.787 61.8506C369.607 62.3063 370.302 62.9557 370.872 63.7988C371.453 64.6305 371.92 65.616 372.273 66.7554C372.627 67.8833 372.883 69.1195 373.042 70.4639V71.25C372.883 72.5374 372.627 73.7337 372.273 74.8389C371.92 75.944 371.453 76.9124 370.872 77.7441C370.302 78.5645 369.607 79.2025 368.787 79.6582C367.967 80.1139 367.01 80.3418 365.916 80.3418C364.765 80.3418 363.74 80.1082 362.84 79.6411C361.951 79.174 361.199 78.5189 360.584 77.6758C359.98 76.8327 359.519 75.8415 359.2 74.7021C358.881 73.5628 358.721 72.321 358.721 70.9766ZM363.643 70.6177V70.9766C363.643 71.7399 363.7 72.452 363.814 73.1128C363.939 73.7736 364.139 74.3604 364.412 74.873C364.697 75.3743 365.062 75.7674 365.506 76.0522C365.962 76.3257 366.514 76.4624 367.164 76.4624C368.007 76.4624 368.702 76.2744 369.249 75.8984C369.795 75.5111 370.211 74.9813 370.496 74.3091C370.792 73.6369 370.963 72.8621 371.009 71.9849V69.7461C370.975 69.0283 370.872 68.3846 370.701 67.8149C370.542 67.2339 370.302 66.7383 369.983 66.3281C369.676 65.918 369.288 65.599 368.821 65.3711C368.366 65.1432 367.824 65.0293 367.198 65.0293C366.56 65.0293 366.013 65.1774 365.557 65.4736C365.101 65.7585 364.731 66.1515 364.446 66.6528C364.173 67.1541 363.968 67.7466 363.831 68.4302C363.706 69.1024 363.643 69.8315 363.643 70.6177ZM384.407 61.5088V80H379.468V61.5088H384.407ZM379.161 56.6895C379.161 55.9717 379.411 55.3792 379.913 54.9121C380.414 54.445 381.086 54.2114 381.929 54.2114C382.761 54.2114 383.427 54.445 383.929 54.9121C384.441 55.3792 384.698 55.9717 384.698 56.6895C384.698 57.4072 384.441 57.9997 383.929 58.4668C383.427 58.9339 382.761 59.1675 381.929 59.1675C381.086 59.1675 380.414 58.9339 379.913 58.4668C379.411 57.9997 379.161 57.4072 379.161 56.6895ZM407.615 59.3726L400.848 80H395.396L404.642 55.1172H408.111L407.615 59.3726ZM413.238 80L406.453 59.3726L405.906 55.1172H409.41L418.707 80H413.238ZM412.93 70.7373V74.7534H399.788V70.7373H412.93ZM425.901 53.75V80H420.962V53.75H425.901ZM439.949 75.8301V67.5928C439.949 67.0003 439.852 66.4933 439.659 66.0718C439.465 65.6388 439.163 65.3027 438.753 65.0635C438.354 64.8242 437.836 64.7046 437.198 64.7046C436.651 64.7046 436.178 64.8014 435.779 64.9951C435.381 65.1774 435.073 65.4451 434.856 65.7983C434.64 66.1401 434.532 66.5446 434.532 67.0117H429.61C429.61 66.2256 429.792 65.4793 430.157 64.7729C430.521 64.0666 431.051 63.4456 431.746 62.9102C432.441 62.3633 433.267 61.936 434.224 61.6284C435.193 61.3208 436.275 61.167 437.471 61.167C438.907 61.167 440.183 61.4062 441.299 61.8848C442.416 62.3633 443.293 63.0811 443.931 64.0381C444.581 64.9951 444.905 66.1914 444.905 67.627V75.5396C444.905 76.5535 444.968 77.3853 445.093 78.0347C445.219 78.6727 445.401 79.231 445.64 79.7095V80H440.667C440.428 79.4987 440.245 78.8721 440.12 78.1201C440.006 77.3568 439.949 76.5934 439.949 75.8301ZM440.599 68.7378L440.633 71.5234H437.881C437.232 71.5234 436.668 71.5975 436.189 71.7456C435.711 71.8937 435.318 72.1045 435.01 72.3779C434.703 72.64 434.475 72.9476 434.327 73.3008C434.19 73.654 434.122 74.0413 434.122 74.4629C434.122 74.8844 434.218 75.2661 434.412 75.6079C434.606 75.9383 434.885 76.2004 435.25 76.394C435.614 76.5763 436.041 76.6675 436.531 76.6675C437.272 76.6675 437.916 76.5194 438.462 76.2231C439.009 75.9269 439.431 75.5623 439.727 75.1294C440.035 74.6965 440.194 74.2863 440.206 73.8989L441.504 75.9839C441.322 76.451 441.071 76.9352 440.752 77.4365C440.445 77.9378 440.052 78.4106 439.573 78.855C439.095 79.2879 438.519 79.6468 437.847 79.9316C437.175 80.2051 436.377 80.3418 435.455 80.3418C434.281 80.3418 433.216 80.1082 432.259 79.6411C431.313 79.1626 430.561 78.5075 430.003 77.6758C429.456 76.8327 429.183 75.8757 429.183 74.8047C429.183 73.8363 429.365 72.9761 429.729 72.2241C430.094 71.4722 430.63 70.8398 431.336 70.3271C432.054 69.8031 432.948 69.41 434.019 69.1479C435.09 68.8745 436.332 68.7378 437.745 68.7378H440.599ZM453.621 65.3369V80H448.682V61.5088H453.313L453.621 65.3369ZM452.938 70.105H451.57C451.57 68.8175 451.724 67.6326 452.032 66.5503C452.351 65.4565 452.812 64.5109 453.416 63.7134C454.031 62.9045 454.789 62.2778 455.689 61.8335C456.589 61.3892 457.632 61.167 458.816 61.167C459.637 61.167 460.389 61.2923 461.072 61.543C461.756 61.7822 462.343 62.1639 462.833 62.688C463.334 63.2007 463.721 63.8729 463.995 64.7046C464.268 65.5249 464.405 66.5104 464.405 67.6611V80H459.483V68.208C459.483 67.3649 459.369 66.7155 459.141 66.2598C458.913 65.804 458.589 65.485 458.167 65.3027C457.757 65.1204 457.261 65.0293 456.68 65.0293C456.042 65.0293 455.484 65.1603 455.005 65.4224C454.538 65.6844 454.151 66.049 453.843 66.5161C453.536 66.9718 453.308 67.5073 453.16 68.1226C453.012 68.7378 452.938 69.3986 452.938 70.105ZM463.943 69.541L462.183 69.7632C462.183 68.5555 462.331 67.4333 462.627 66.3965C462.935 65.3597 463.385 64.4482 463.978 63.6621C464.581 62.876 465.328 62.2664 466.216 61.8335C467.105 61.3892 468.13 61.167 469.292 61.167C470.181 61.167 470.99 61.298 471.719 61.5601C472.448 61.8107 473.069 62.2152 473.582 62.7734C474.106 63.3203 474.505 64.0381 474.778 64.9268C475.063 65.8154 475.206 66.9035 475.206 68.1909V80H470.267V68.1909C470.267 67.3364 470.153 66.687 469.925 66.2427C469.708 65.7869 469.389 65.4736 468.968 65.3027C468.558 65.1204 468.068 65.0293 467.498 65.0293C466.906 65.0293 466.387 65.1489 465.943 65.3882C465.499 65.616 465.128 65.9351 464.832 66.3452C464.536 66.7554 464.314 67.2339 464.166 67.7808C464.017 68.3162 463.943 68.903 463.943 69.541ZM487.527 80.3418C486.092 80.3418 484.804 80.1139 483.665 79.6582C482.526 79.1911 481.557 78.5474 480.76 77.7271C479.974 76.9067 479.37 75.9554 478.948 74.873C478.527 73.7793 478.316 72.6172 478.316 71.3867V70.7031C478.316 69.3018 478.515 68.02 478.914 66.8579C479.313 65.6958 479.882 64.6875 480.623 63.833C481.375 62.9785 482.286 62.3234 483.357 61.8677C484.428 61.4006 485.636 61.167 486.98 61.167C488.291 61.167 489.453 61.3835 490.467 61.8164C491.481 62.2493 492.33 62.8646 493.013 63.6621C493.708 64.4596 494.232 65.4167 494.585 66.5332C494.939 67.6383 495.115 68.8688 495.115 70.2246V72.2754H480.418V68.9941H490.279V68.6182C490.279 67.9346 490.153 67.325 489.903 66.7896C489.664 66.2427 489.299 65.8097 488.809 65.4907C488.319 65.1717 487.693 65.0122 486.929 65.0122C486.28 65.0122 485.722 65.1546 485.254 65.4395C484.787 65.7243 484.406 66.123 484.109 66.6357C483.825 67.1484 483.608 67.7523 483.46 68.4473C483.323 69.1309 483.255 69.8828 483.255 70.7031V71.3867C483.255 72.1273 483.357 72.8109 483.562 73.4375C483.779 74.0641 484.081 74.6053 484.468 75.061C484.867 75.5168 485.346 75.87 485.904 76.1206C486.473 76.3713 487.117 76.4966 487.835 76.4966C488.724 76.4966 489.55 76.3257 490.313 75.9839C491.088 75.6307 491.754 75.1009 492.312 74.3945L494.705 76.9922C494.318 77.5505 493.788 78.0859 493.116 78.5986C492.455 79.1113 491.657 79.5329 490.723 79.8633C489.789 80.1823 488.724 80.3418 487.527 80.3418ZM502.72 53.75V80H497.798V53.75H502.72ZM502.02 70.105H500.669C500.681 68.8175 500.852 67.6326 501.182 66.5503C501.513 65.4565 501.985 64.5109 502.601 63.7134C503.216 62.9045 503.951 62.2778 504.805 61.8335C505.671 61.3892 506.628 61.167 507.676 61.167C508.588 61.167 509.414 61.298 510.154 61.5601C510.906 61.8107 511.55 62.2209 512.085 62.7905C512.632 63.3488 513.054 64.0837 513.35 64.9951C513.646 65.9066 513.794 67.0117 513.794 68.3105V80H508.838V68.2764C508.838 67.4561 508.719 66.8123 508.479 66.3452C508.252 65.8667 507.916 65.5306 507.471 65.3369C507.038 65.1318 506.503 65.0293 505.865 65.0293C505.158 65.0293 504.555 65.1603 504.053 65.4224C503.563 65.6844 503.17 66.049 502.874 66.5161C502.578 66.9718 502.361 67.5073 502.225 68.1226C502.088 68.7378 502.02 69.3986 502.02 70.105Z" fill="#888888"/>
<rect x="92" y="181" width="1179" height="80" rx="13.3333" fill="#CCCCCC"/>
<rect x="107" y="196.333" width="208" height="49.3333" rx="4.66667" fill="#888888" stroke="#888888" stroke-width="4"/>
<path d="M187.573 213.167V228.333H183.917V213.167H187.573ZM196.625 213.167L190.75 220.854L187.312 224.615L186.646 221.26L188.844 217.927L192.115 213.167H196.625ZM192.302 228.333L188.385 221.5L191.229 219.406L196.625 228.333H192.302ZM196.667 222.812V222.594C196.667 221.767 196.785 221.007 197.021 220.312C197.257 219.611 197.604 219.003 198.062 218.49C198.521 217.976 199.087 217.576 199.76 217.292C200.434 217 201.212 216.854 202.094 216.854C202.983 216.854 203.764 217 204.437 217.292C205.118 217.576 205.687 217.976 206.146 218.49C206.604 219.003 206.951 219.611 207.187 220.312C207.424 221.007 207.542 221.767 207.542 222.594V222.812C207.542 223.632 207.424 224.392 207.187 225.094C206.951 225.788 206.604 226.396 206.146 226.917C205.687 227.431 205.122 227.83 204.448 228.115C203.774 228.399 202.997 228.542 202.115 228.542C201.233 228.542 200.451 228.399 199.771 228.115C199.09 227.83 198.521 227.431 198.062 226.917C197.604 226.396 197.257 225.788 197.021 225.094C196.785 224.392 196.667 223.632 196.667 222.812ZM200.177 222.594V222.812C200.177 223.236 200.208 223.632 200.271 224C200.333 224.368 200.437 224.691 200.583 224.969C200.729 225.24 200.927 225.451 201.177 225.604C201.427 225.757 201.74 225.833 202.115 225.833C202.483 225.833 202.788 225.757 203.031 225.604C203.281 225.451 203.479 225.24 203.625 224.969C203.771 224.691 203.875 224.368 203.937 224C204 223.632 204.031 223.236 204.031 222.812V222.594C204.031 222.184 204 221.799 203.937 221.437C203.875 221.069 203.771 220.747 203.625 220.469C203.479 220.184 203.281 219.962 203.031 219.802C202.781 219.642 202.469 219.562 202.094 219.562C201.726 219.562 201.417 219.642 201.167 219.802C200.924 219.962 200.729 220.184 200.583 220.469C200.437 220.747 200.333 221.069 200.271 221.437C200.208 221.799 200.177 222.184 200.177 222.594ZM215.042 217.062V219.5H208.25V217.062H215.042ZM209.677 214.26H213.187V224.656C213.187 224.955 213.222 225.187 213.292 225.354C213.361 225.514 213.479 225.628 213.646 225.698C213.819 225.76 214.049 225.792 214.333 225.792C214.535 225.792 214.701 225.788 214.833 225.781C214.965 225.767 215.09 225.75 215.208 225.729V228.24C214.91 228.337 214.597 228.41 214.271 228.458C213.944 228.514 213.597 228.542 213.229 228.542C212.479 228.542 211.837 228.424 211.302 228.187C210.774 227.951 210.372 227.58 210.094 227.073C209.816 226.566 209.677 225.906 209.677 225.094V214.26ZM220.146 212.333V228.333H216.625V212.333H220.146ZM226.021 217.062V228.333H222.5V217.062H226.021ZM222.292 214.156C222.292 213.656 222.472 213.247 222.833 212.927C223.194 212.608 223.663 212.448 224.24 212.448C224.816 212.448 225.285 212.608 225.646 212.927C226.007 213.247 226.187 213.656 226.187 214.156C226.187 214.656 226.007 215.066 225.646 215.385C225.285 215.705 224.816 215.865 224.24 215.865C223.663 215.865 223.194 215.705 222.833 215.385C222.472 215.066 222.292 214.656 222.292 214.156ZM231.635 219.469V228.333H228.125V217.062H231.417L231.635 219.469ZM231.219 222.312L230.396 222.333C230.396 221.472 230.5 220.705 230.708 220.031C230.917 219.351 231.212 218.774 231.594 218.302C231.976 217.83 232.431 217.472 232.958 217.229C233.493 216.979 234.087 216.854 234.74 216.854C235.26 216.854 235.736 216.931 236.167 217.083C236.604 217.236 236.979 217.483 237.292 217.823C237.611 218.163 237.854 218.615 238.021 219.177C238.194 219.733 238.281 220.42 238.281 221.24V228.333H234.75V221.229C234.75 220.778 234.687 220.434 234.562 220.198C234.437 219.955 234.257 219.788 234.021 219.698C233.785 219.608 233.497 219.562 233.156 219.562C232.795 219.562 232.49 219.632 232.24 219.771C231.99 219.91 231.788 220.104 231.635 220.354C231.49 220.597 231.382 220.885 231.312 221.219C231.25 221.552 231.219 221.917 231.219 222.312Z" fill="white"/>
<rect x="339" y="196.333" width="208" height="49.3333" rx="4.66667" fill="#888888" stroke="#888888" stroke-width="4"/>
<path d="M419.073 225.521V228.333H411.406V225.521H419.073ZM412.708 213.167V228.333H409.052V213.167H412.708ZM426.302 225.5V220.854C426.302 220.535 426.257 220.26 426.167 220.031C426.076 219.802 425.934 219.625 425.74 219.5C425.545 219.368 425.285 219.302 424.958 219.302C424.694 219.302 424.469 219.347 424.281 219.437C424.094 219.528 423.951 219.663 423.854 219.844C423.757 220.024 423.708 220.253 423.708 220.531H420.198C420.198 220.01 420.312 219.528 420.542 219.083C420.778 218.632 421.111 218.24 421.542 217.906C421.979 217.573 422.5 217.316 423.104 217.135C423.715 216.948 424.396 216.854 425.146 216.854C426.042 216.854 426.84 217.003 427.542 217.302C428.25 217.601 428.809 218.049 429.219 218.646C429.628 219.236 429.833 219.979 429.833 220.875V225.49C429.833 226.226 429.875 226.785 429.958 227.167C430.042 227.542 430.16 227.872 430.312 228.156V228.333H426.792C426.625 227.986 426.5 227.562 426.417 227.062C426.34 226.556 426.302 226.035 426.302 225.5ZM426.729 221.448L426.75 223.323H425.198C424.872 223.323 424.594 223.368 424.365 223.458C424.142 223.549 423.962 223.674 423.823 223.833C423.691 223.986 423.594 224.16 423.531 224.354C423.476 224.549 423.448 224.753 423.448 224.969C423.448 225.177 423.497 225.365 423.594 225.531C423.698 225.691 423.837 225.816 424.01 225.906C424.184 225.997 424.378 226.042 424.594 226.042C424.983 226.042 425.312 225.969 425.583 225.823C425.861 225.67 426.073 225.486 426.219 225.271C426.365 225.056 426.437 224.854 426.437 224.667L427.208 226.104C427.069 226.382 426.91 226.663 426.729 226.948C426.556 227.233 426.337 227.497 426.073 227.74C425.816 227.976 425.5 228.17 425.125 228.323C424.75 228.469 424.295 228.542 423.76 228.542C423.066 228.542 422.427 228.399 421.844 228.115C421.267 227.83 420.806 227.434 420.458 226.927C420.111 226.413 419.937 225.823 419.937 225.156C419.937 224.573 420.042 224.052 420.25 223.594C420.465 223.135 420.788 222.747 421.219 222.427C421.649 222.108 422.198 221.865 422.865 221.698C423.531 221.531 424.316 221.448 425.219 221.448H426.729ZM435.323 219.854V228.333H431.812V217.062H435.094L435.323 219.854ZM438.656 216.979L438.594 220.24C438.455 220.226 438.267 220.208 438.031 220.187C437.795 220.167 437.597 220.156 437.437 220.156C437.028 220.156 436.674 220.205 436.375 220.302C436.083 220.392 435.84 220.531 435.646 220.719C435.458 220.899 435.319 221.128 435.229 221.406C435.146 221.684 435.108 222.007 435.115 222.375L434.479 221.958C434.479 221.201 434.552 220.514 434.698 219.896C434.851 219.271 435.066 218.733 435.344 218.281C435.622 217.823 435.958 217.472 436.354 217.229C436.75 216.979 437.194 216.854 437.687 216.854C437.861 216.854 438.031 216.865 438.198 216.885C438.372 216.906 438.524 216.937 438.656 216.979ZM445.406 225.5V220.854C445.406 220.535 445.361 220.26 445.271 220.031C445.181 219.802 445.038 219.625 444.844 219.5C444.649 219.368 444.389 219.302 444.063 219.302C443.799 219.302 443.573 219.347 443.385 219.437C443.198 219.528 443.056 219.663 442.958 219.844C442.861 220.024 442.813 220.253 442.813 220.531H439.302C439.302 220.01 439.417 219.528 439.646 219.083C439.882 218.632 440.215 218.24 440.646 217.906C441.083 217.573 441.604 217.316 442.208 217.135C442.819 216.948 443.5 216.854 444.25 216.854C445.146 216.854 445.944 217.003 446.646 217.302C447.354 217.601 447.913 218.049 448.323 218.646C448.733 219.236 448.938 219.979 448.938 220.875V225.49C448.938 226.226 448.979 226.785 449.063 227.167C449.146 227.542 449.264 227.872 449.417 228.156V228.333H445.896C445.729 227.986 445.604 227.562 445.521 227.062C445.444 226.556 445.406 226.035 445.406 225.5ZM445.833 221.448L445.854 223.323H444.302C443.976 223.323 443.698 223.368 443.469 223.458C443.247 223.549 443.066 223.674 442.927 223.833C442.795 223.986 442.698 224.16 442.635 224.354C442.58 224.549 442.552 224.753 442.552 224.969C442.552 225.177 442.601 225.365 442.698 225.531C442.802 225.691 442.941 225.816 443.115 225.906C443.288 225.997 443.483 226.042 443.698 226.042C444.087 226.042 444.417 225.969 444.688 225.823C444.965 225.67 445.177 225.486 445.323 225.271C445.469 225.056 445.542 224.854 445.542 224.667L446.313 226.104C446.174 226.382 446.014 226.663 445.833 226.948C445.66 227.233 445.441 227.497 445.177 227.74C444.92 227.976 444.604 228.17 444.229 228.323C443.854 228.469 443.399 228.542 442.865 228.542C442.17 228.542 441.531 228.399 440.948 228.115C440.372 227.83 439.91 227.434 439.563 226.927C439.215 226.413 439.042 225.823 439.042 225.156C439.042 224.573 439.146 224.052 439.354 223.594C439.569 223.135 439.892 222.747 440.323 222.427C440.753 222.108 441.302 221.865 441.969 221.698C442.635 221.531 443.42 221.448 444.323 221.448H445.833ZM454.781 225.927L457 217.062H460.698L457.01 228.333H454.823L454.781 225.927ZM453.469 217.062L455.656 225.927L455.635 228.333H453.437L449.76 217.062H453.469ZM467.052 228.542C466.135 228.542 465.316 228.399 464.594 228.115C463.872 227.823 463.26 227.424 462.76 226.917C462.267 226.41 461.889 225.826 461.625 225.167C461.368 224.507 461.24 223.809 461.24 223.073V222.677C461.24 221.851 461.354 221.087 461.583 220.385C461.812 219.677 462.153 219.059 462.604 218.531C463.056 218.003 463.622 217.594 464.302 217.302C464.983 217.003 465.774 216.854 466.677 216.854C467.476 216.854 468.191 216.983 468.823 217.24C469.455 217.497 469.99 217.865 470.427 218.344C470.872 218.823 471.208 219.403 471.437 220.083C471.674 220.764 471.792 221.528 471.792 222.375V223.802H462.583V221.604H468.365V221.333C468.372 220.958 468.306 220.639 468.167 220.375C468.035 220.111 467.84 219.91 467.583 219.771C467.326 219.632 467.014 219.562 466.646 219.562C466.264 219.562 465.948 219.646 465.698 219.812C465.455 219.979 465.264 220.208 465.125 220.5C464.993 220.785 464.899 221.115 464.844 221.49C464.788 221.865 464.76 222.26 464.76 222.677V223.073C464.76 223.49 464.816 223.868 464.927 224.208C465.045 224.549 465.212 224.84 465.427 225.083C465.649 225.319 465.913 225.503 466.219 225.635C466.531 225.767 466.885 225.833 467.281 225.833C467.76 225.833 468.233 225.743 468.698 225.562C469.163 225.382 469.562 225.083 469.896 224.667L471.49 226.562C471.26 226.889 470.934 227.205 470.51 227.51C470.094 227.816 469.594 228.066 469.01 228.26C468.427 228.448 467.774 228.542 467.052 228.542ZM476.927 212.333V228.333H473.406V212.333H476.927Z" fill="white"/>
<rect x="571" y="196.333" width="208" height="49.3333" rx="4.66667" fill="#888888" stroke="#888888" stroke-width="4"/>
<path d="M648.5 213.167H654.469C655.635 213.167 656.649 213.34 657.51 213.687C658.372 214.035 659.035 214.549 659.5 215.229C659.972 215.91 660.208 216.75 660.208 217.75C660.208 218.618 660.073 219.344 659.802 219.927C659.531 220.51 659.153 220.993 658.667 221.375C658.188 221.75 657.628 222.059 656.99 222.302L655.792 222.979H650.781L650.76 220.156H654.469C654.934 220.156 655.319 220.073 655.625 219.906C655.931 219.74 656.16 219.503 656.313 219.198C656.472 218.885 656.552 218.514 656.552 218.083C656.552 217.646 656.472 217.271 656.313 216.958C656.153 216.646 655.917 216.406 655.604 216.24C655.299 216.073 654.92 215.99 654.469 215.99H652.156V228.333H648.5V213.167ZM656.802 228.333L653.448 221.625L657.323 221.604L660.719 228.177V228.333H656.802ZM667.708 228.542C666.792 228.542 665.972 228.399 665.25 228.115C664.528 227.823 663.917 227.424 663.417 226.917C662.924 226.41 662.545 225.826 662.281 225.167C662.024 224.507 661.896 223.809 661.896 223.073V222.677C661.896 221.851 662.01 221.087 662.24 220.385C662.469 219.677 662.809 219.059 663.26 218.531C663.712 218.003 664.278 217.594 664.958 217.302C665.639 217.003 666.431 216.854 667.333 216.854C668.132 216.854 668.847 216.983 669.479 217.24C670.111 217.497 670.646 217.865 671.083 218.344C671.528 218.823 671.865 219.403 672.094 220.083C672.33 220.764 672.448 221.528 672.448 222.375V223.802H663.24V221.604H669.021V221.333C669.028 220.958 668.962 220.639 668.823 220.375C668.691 220.111 668.497 219.91 668.24 219.771C667.983 219.632 667.67 219.562 667.302 219.562C666.92 219.562 666.604 219.646 666.354 219.812C666.111 219.979 665.92 220.208 665.781 220.5C665.649 220.785 665.556 221.115 665.5 221.49C665.444 221.865 665.417 222.26 665.417 222.677V223.073C665.417 223.49 665.472 223.868 665.583 224.208C665.701 224.549 665.868 224.84 666.083 225.083C666.306 225.319 666.569 225.503 666.875 225.635C667.187 225.767 667.542 225.833 667.937 225.833C668.417 225.833 668.889 225.743 669.354 225.562C669.819 225.382 670.219 225.083 670.552 224.667L672.146 226.562C671.917 226.889 671.59 227.205 671.167 227.51C670.75 227.816 670.25 228.066 669.667 228.26C669.083 228.448 668.431 228.542 667.708 228.542ZM679.729 225.5V220.854C679.729 220.535 679.684 220.26 679.594 220.031C679.503 219.802 679.361 219.625 679.167 219.5C678.972 219.368 678.712 219.302 678.385 219.302C678.122 219.302 677.896 219.347 677.708 219.437C677.521 219.528 677.378 219.663 677.281 219.844C677.184 220.024 677.135 220.253 677.135 220.531H673.625C673.625 220.01 673.74 219.528 673.969 219.083C674.205 218.632 674.538 218.24 674.969 217.906C675.406 217.573 675.927 217.316 676.531 217.135C677.142 216.948 677.823 216.854 678.573 216.854C679.469 216.854 680.267 217.003 680.969 217.302C681.677 217.601 682.236 218.049 682.646 218.646C683.056 219.236 683.26 219.979 683.26 220.875V225.49C683.26 226.226 683.302 226.785 683.385 227.167C683.469 227.542 683.587 227.872 683.74 228.156V228.333H680.219C680.052 227.986 679.927 227.562 679.844 227.062C679.767 226.556 679.729 226.035 679.729 225.5ZM680.156 221.448L680.177 223.323H678.625C678.299 223.323 678.021 223.368 677.792 223.458C677.569 223.549 677.389 223.674 677.25 223.833C677.118 223.986 677.021 224.16 676.958 224.354C676.903 224.549 676.875 224.753 676.875 224.969C676.875 225.177 676.924 225.365 677.021 225.531C677.125 225.691 677.264 225.816 677.438 225.906C677.611 225.997 677.806 226.042 678.021 226.042C678.41 226.042 678.74 225.969 679.01 225.823C679.288 225.67 679.5 225.486 679.646 225.271C679.792 225.056 679.865 224.854 679.865 224.667L680.635 226.104C680.497 226.382 680.337 226.663 680.156 226.948C679.983 227.233 679.764 227.497 679.5 227.74C679.243 227.976 678.927 228.17 678.552 228.323C678.177 228.469 677.722 228.542 677.188 228.542C676.493 228.542 675.854 228.399 675.271 228.115C674.694 227.83 674.233 227.434 673.885 226.927C673.538 226.413 673.365 225.823 673.365 225.156C673.365 224.573 673.469 224.052 673.677 223.594C673.892 223.135 674.215 222.747 674.646 222.427C675.076 222.108 675.625 221.865 676.292 221.698C676.958 221.531 677.743 221.448 678.646 221.448H680.156ZM689.969 225.833C690.295 225.833 690.573 225.774 690.802 225.656C691.038 225.531 691.215 225.358 691.333 225.135C691.458 224.906 691.517 224.632 691.51 224.312H694.813C694.819 225.16 694.611 225.903 694.188 226.542C693.771 227.174 693.201 227.667 692.479 228.021C691.764 228.368 690.955 228.542 690.052 228.542C689.17 228.542 688.399 228.399 687.74 228.115C687.08 227.823 686.528 227.42 686.083 226.906C685.646 226.385 685.316 225.778 685.094 225.083C684.878 224.389 684.771 223.635 684.771 222.823V222.583C684.771 221.771 684.878 221.017 685.094 220.323C685.316 219.622 685.646 219.014 686.083 218.5C686.528 217.979 687.076 217.576 687.729 217.292C688.389 217 689.156 216.854 690.031 216.854C690.969 216.854 691.795 217.031 692.51 217.385C693.233 217.74 693.799 218.253 694.208 218.927C694.618 219.601 694.819 220.417 694.813 221.375H691.51C691.517 221.035 691.465 220.729 691.354 220.458C691.243 220.187 691.069 219.972 690.833 219.812C690.604 219.646 690.309 219.562 689.948 219.562C689.587 219.562 689.295 219.642 689.073 219.802C688.851 219.962 688.681 220.184 688.563 220.469C688.451 220.747 688.375 221.066 688.333 221.427C688.299 221.788 688.281 222.174 688.281 222.583V222.823C688.281 223.24 688.299 223.632 688.333 224C688.375 224.361 688.455 224.681 688.573 224.958C688.691 225.229 688.861 225.444 689.083 225.604C689.306 225.757 689.601 225.833 689.969 225.833ZM702.25 217.062V219.5H695.458V217.062H702.25ZM696.885 214.26H700.396V224.656C700.396 224.955 700.431 225.187 700.5 225.354C700.569 225.514 700.688 225.628 700.854 225.698C701.028 225.76 701.257 225.792 701.542 225.792C701.743 225.792 701.91 225.788 702.042 225.781C702.174 225.767 702.299 225.75 702.417 225.729V228.24C702.118 228.337 701.806 228.41 701.479 228.458C701.153 228.514 700.806 228.542 700.438 228.542C699.688 228.542 699.045 228.424 698.51 228.187C697.983 227.951 697.58 227.58 697.302 227.073C697.024 226.566 696.885 225.906 696.885 225.094V214.26Z" fill="white"/>
<rect x="803" y="196.333" width="208" height="49.3333" rx="4.66667" fill="#888888" stroke="#888888" stroke-width="4"/>
<path d="M875.26 213.167H878.24L881.625 223.719L885.01 213.167H887.99L882.833 228.333H880.417L875.26 213.167ZM873.448 213.167H876.531L877.104 224.792V228.333H873.448V213.167ZM886.719 213.167H889.812V228.333H886.146V224.792L886.719 213.167ZM895.448 227.01L898.365 217.062H902.135L897.604 230.01C897.507 230.295 897.378 230.601 897.219 230.927C897.059 231.26 896.84 231.576 896.563 231.875C896.285 232.174 895.927 232.417 895.49 232.604C895.059 232.792 894.524 232.885 893.885 232.885C893.545 232.885 893.295 232.868 893.135 232.833C892.983 232.806 892.747 232.753 892.427 232.677V230.167C892.517 230.167 892.594 230.167 892.656 230.167C892.726 230.167 892.802 230.167 892.885 230.167C893.26 230.167 893.559 230.128 893.781 230.052C894.01 229.976 894.184 229.865 894.302 229.719C894.427 229.573 894.524 229.396 894.594 229.187L895.448 227.01ZM894.708 217.062L896.927 224.948L897.313 228.667H894.958L890.948 217.062H894.708ZM911.031 224.302C911.031 224.066 910.997 223.854 910.927 223.667C910.858 223.472 910.729 223.292 910.542 223.125C910.354 222.958 910.083 222.792 909.729 222.625C909.382 222.451 908.924 222.271 908.354 222.083C907.688 221.861 907.045 221.611 906.427 221.333C905.809 221.049 905.257 220.719 904.771 220.344C904.285 219.962 903.899 219.517 903.615 219.01C903.33 218.497 903.188 217.899 903.188 217.219C903.188 216.566 903.333 215.979 903.625 215.458C903.917 214.931 904.323 214.483 904.844 214.115C905.372 213.74 905.99 213.455 906.698 213.26C907.406 213.059 908.181 212.958 909.021 212.958C910.132 212.958 911.111 213.153 911.958 213.542C912.813 213.924 913.479 214.469 913.958 215.177C914.444 215.878 914.688 216.708 914.688 217.667H911.052C911.052 217.285 910.972 216.948 910.813 216.656C910.66 216.365 910.427 216.135 910.115 215.969C909.802 215.802 909.41 215.719 908.938 215.719C908.479 215.719 908.094 215.788 907.781 215.927C907.469 216.066 907.233 216.253 907.073 216.49C906.913 216.719 906.833 216.972 906.833 217.25C906.833 217.479 906.896 217.687 907.021 217.875C907.153 218.056 907.337 218.226 907.573 218.385C907.816 218.545 908.108 218.698 908.448 218.844C908.795 218.99 909.184 219.132 909.615 219.271C910.42 219.528 911.135 219.816 911.76 220.135C912.392 220.448 912.924 220.806 913.354 221.208C913.792 221.604 914.122 222.056 914.344 222.562C914.573 223.069 914.688 223.642 914.688 224.281C914.688 224.962 914.556 225.566 914.292 226.094C914.028 226.622 913.649 227.069 913.156 227.437C912.663 227.799 912.073 228.073 911.385 228.26C910.698 228.448 909.931 228.542 909.083 228.542C908.306 228.542 907.538 228.444 906.781 228.25C906.031 228.049 905.351 227.743 904.74 227.333C904.128 226.917 903.639 226.385 903.271 225.74C902.91 225.087 902.729 224.312 902.729 223.417H906.396C906.396 223.861 906.455 224.236 906.573 224.542C906.691 224.847 906.865 225.094 907.094 225.281C907.323 225.462 907.604 225.594 907.938 225.677C908.271 225.753 908.653 225.792 909.083 225.792C909.549 225.792 909.924 225.726 910.208 225.594C910.493 225.455 910.701 225.274 910.833 225.052C910.965 224.823 911.031 224.573 911.031 224.302ZM925.031 225.833L929.26 229.187L926.99 231.104L922.833 227.75L925.031 225.833ZM929.437 220.448V221.062C929.437 222.222 929.274 223.264 928.948 224.187C928.628 225.104 928.17 225.889 927.573 226.542C926.983 227.187 926.285 227.684 925.479 228.031C924.674 228.372 923.785 228.542 922.812 228.542C921.833 228.542 920.937 228.372 920.125 228.031C919.319 227.684 918.618 227.187 918.021 226.542C917.431 225.889 916.972 225.104 916.646 224.187C916.326 223.264 916.167 222.222 916.167 221.062V220.448C916.167 219.288 916.326 218.247 916.646 217.323C916.972 216.399 917.427 215.615 918.01 214.969C918.601 214.316 919.299 213.819 920.104 213.479C920.917 213.132 921.812 212.958 922.792 212.958C923.764 212.958 924.653 213.132 925.458 213.479C926.271 213.819 926.972 214.316 927.562 214.969C928.16 215.615 928.622 216.399 928.948 217.323C929.274 218.247 929.437 219.288 929.437 220.448ZM925.719 221.062V220.427C925.719 219.677 925.653 219.017 925.521 218.448C925.396 217.872 925.208 217.389 924.958 217C924.708 216.611 924.399 216.319 924.031 216.125C923.67 215.924 923.257 215.823 922.792 215.823C922.306 215.823 921.882 215.924 921.521 216.125C921.16 216.319 920.858 216.611 920.615 217C920.372 217.389 920.187 217.872 920.062 218.448C919.944 219.017 919.885 219.677 919.885 220.427V221.062C919.885 221.806 919.944 222.465 920.062 223.042C920.187 223.611 920.372 224.094 920.615 224.49C920.865 224.885 921.17 225.184 921.531 225.385C921.899 225.587 922.326 225.687 922.812 225.687C923.278 225.687 923.691 225.587 924.052 225.385C924.413 225.184 924.715 224.885 924.958 224.49C925.208 224.094 925.396 223.611 925.521 223.042C925.653 222.465 925.719 221.806 925.719 221.062ZM941.323 225.521V228.333H933.656V225.521H941.323ZM934.958 213.167V228.333H931.302V213.167H934.958Z" fill="white"/>
</svg>
