<svg width="1363" height="167" viewBox="0 0 1363 167" fill="none" xmlns="http://www.w3.org/2000/svg">
<rect width="1363" height="167" rx="15" fill="#F0F0F0"/>
<path d="M0 15C0 6.71573 6.71573 0 15 0H37V167H15C6.71573 167 0 160.284 0 152V15Z" fill="#424241"/>
<path d="M100.906 50.9219L93.3945 48.2383V45.0859L103.602 49.375V51.6367L100.906 50.9219ZM93.3945 53.1719L100.918 50.4297L103.602 49.7852V52.0352L93.3945 56.3242V53.1719ZM110.035 55.293L113.434 40.9375H115.332L115.766 43.3281L112.145 58H110.105L110.035 55.293ZM108.289 40.9375L111.102 55.293L110.867 58H108.594L104.809 40.9375H108.289ZM118.754 55.2344L121.531 40.9375H125.012L121.238 58H118.965L118.754 55.2344ZM116.398 40.9375L119.82 55.3516L119.727 58H117.688L114.043 43.3164L114.512 40.9375H116.398ZM133.156 55.1406V49.4922C133.156 49.0859 133.09 48.7383 132.957 48.4492C132.824 48.1523 132.617 47.9219 132.336 47.7578C132.062 47.5938 131.707 47.5117 131.27 47.5117C130.895 47.5117 130.57 47.5781 130.297 47.7109C130.023 47.8359 129.812 48.0195 129.664 48.2617C129.516 48.4961 129.441 48.7734 129.441 49.0938H126.066C126.066 48.5547 126.191 48.043 126.441 47.5586C126.691 47.0742 127.055 46.6484 127.531 46.2812C128.008 45.9062 128.574 45.6133 129.23 45.4023C129.895 45.1914 130.637 45.0859 131.457 45.0859C132.441 45.0859 133.316 45.25 134.082 45.5781C134.848 45.9062 135.449 46.3984 135.887 47.0547C136.332 47.7109 136.555 48.5312 136.555 49.5156V54.9414C136.555 55.6367 136.598 56.207 136.684 56.6523C136.77 57.0898 136.895 57.4727 137.059 57.8008V58H133.648C133.484 57.6562 133.359 57.2266 133.273 56.7109C133.195 56.1875 133.156 55.6641 133.156 55.1406ZM133.602 50.2773L133.625 52.1875H131.738C131.293 52.1875 130.906 52.2383 130.578 52.3398C130.25 52.4414 129.98 52.5859 129.77 52.7734C129.559 52.9531 129.402 53.1641 129.301 53.4062C129.207 53.6484 129.16 53.9141 129.16 54.2031C129.16 54.4922 129.227 54.7539 129.359 54.9883C129.492 55.2148 129.684 55.3945 129.934 55.5273C130.184 55.6523 130.477 55.7148 130.812 55.7148C131.32 55.7148 131.762 55.6133 132.137 55.4102C132.512 55.207 132.801 54.957 133.004 54.6602C133.215 54.3633 133.324 54.082 133.332 53.8164L134.223 55.2461C134.098 55.5664 133.926 55.8984 133.707 56.2422C133.496 56.5859 133.227 56.9102 132.898 57.2148C132.57 57.5117 132.176 57.7578 131.715 57.9531C131.254 58.1406 130.707 58.2344 130.074 58.2344C129.27 58.2344 128.539 58.0742 127.883 57.7539C127.234 57.4258 126.719 56.9766 126.336 56.4062C125.961 55.8281 125.773 55.1719 125.773 54.4375C125.773 53.7734 125.898 53.1836 126.148 52.668C126.398 52.1523 126.766 51.7188 127.25 51.3672C127.742 51.0078 128.355 50.7383 129.09 50.5586C129.824 50.3711 130.676 50.2773 131.645 50.2773H133.602ZM145.367 45.3203V47.7109H137.984V45.3203H145.367ZM139.812 42.1914H143.188V54.1797C143.188 54.5469 143.234 54.8281 143.328 55.0234C143.43 55.2188 143.578 55.3555 143.773 55.4336C143.969 55.5039 144.215 55.5391 144.512 55.5391C144.723 55.5391 144.91 55.5312 145.074 55.5156C145.246 55.4922 145.391 55.4688 145.508 55.4453L145.52 57.9297C145.23 58.0234 144.918 58.0977 144.582 58.1523C144.246 58.207 143.875 58.2344 143.469 58.2344C142.727 58.2344 142.078 58.1133 141.523 57.8711C140.977 57.6211 140.555 57.2227 140.258 56.6758C139.961 56.1289 139.812 55.4102 139.812 54.5195V42.1914ZM152.527 55.5977C152.941 55.5977 153.309 55.5195 153.629 55.3633C153.949 55.1992 154.199 54.9727 154.379 54.6836C154.566 54.3867 154.664 54.0391 154.672 53.6406H157.848C157.84 54.5312 157.602 55.3242 157.133 56.0195C156.664 56.707 156.035 57.25 155.246 57.6484C154.457 58.0391 153.574 58.2344 152.598 58.2344C151.613 58.2344 150.754 58.0703 150.02 57.7422C149.293 57.4141 148.688 56.9609 148.203 56.3828C147.719 55.7969 147.355 55.1172 147.113 54.3438C146.871 53.5625 146.75 52.7266 146.75 51.8359V51.4961C146.75 50.5977 146.871 49.7617 147.113 48.9883C147.355 48.207 147.719 47.5273 148.203 46.9492C148.688 46.3633 149.293 45.9062 150.02 45.5781C150.746 45.25 151.598 45.0859 152.574 45.0859C153.613 45.0859 154.523 45.2852 155.305 45.6836C156.094 46.082 156.711 46.6523 157.156 47.3945C157.609 48.1289 157.84 49 157.848 50.0078H154.672C154.664 49.5859 154.574 49.2031 154.402 48.8594C154.238 48.5156 153.996 48.2422 153.676 48.0391C153.363 47.8281 152.977 47.7227 152.516 47.7227C152.023 47.7227 151.621 47.8281 151.309 48.0391C150.996 48.2422 150.754 48.5234 150.582 48.8828C150.41 49.2344 150.289 49.6367 150.219 50.0898C150.156 50.5352 150.125 51.0039 150.125 51.4961V51.8359C150.125 52.3281 150.156 52.8008 150.219 53.2539C150.281 53.707 150.398 54.1094 150.57 54.4609C150.75 54.8125 150.996 55.0898 151.309 55.293C151.621 55.4961 152.027 55.5977 152.527 55.5977ZM163.098 40V58H159.723V40H163.098ZM162.617 51.2148H161.691C161.699 50.332 161.816 49.5195 162.043 48.7773C162.27 48.0273 162.594 47.3789 163.016 46.832C163.438 46.2773 163.941 45.8477 164.527 45.543C165.121 45.2383 165.777 45.0859 166.496 45.0859C167.121 45.0859 167.688 45.1758 168.195 45.3555C168.711 45.5273 169.152 45.8086 169.52 46.1992C169.895 46.582 170.184 47.0859 170.387 47.7109C170.59 48.3359 170.691 49.0938 170.691 49.9844V58H167.293V49.9609C167.293 49.3984 167.211 48.957 167.047 48.6367C166.891 48.3086 166.66 48.0781 166.355 47.9453C166.059 47.8047 165.691 47.7344 165.254 47.7344C164.77 47.7344 164.355 47.8242 164.012 48.0039C163.676 48.1836 163.406 48.4336 163.203 48.7539C163 49.0664 162.852 49.4336 162.758 49.8555C162.664 50.2773 162.617 50.7305 162.617 51.2148ZM187.484 49.0703V49.8789C187.484 51.1758 187.309 52.3398 186.957 53.3711C186.605 54.4023 186.109 55.2812 185.469 56.0078C184.828 56.7266 184.062 57.2773 183.172 57.6602C182.289 58.043 181.309 58.2344 180.23 58.2344C179.16 58.2344 178.18 58.043 177.289 57.6602C176.406 57.2773 175.641 56.7266 174.992 56.0078C174.344 55.2812 173.84 54.4023 173.48 53.3711C173.129 52.3398 172.953 51.1758 172.953 49.8789V49.0703C172.953 47.7656 173.129 46.6016 173.48 45.5781C173.832 44.5469 174.328 43.668 174.969 42.9414C175.617 42.2148 176.383 41.6602 177.266 41.2773C178.156 40.8945 179.137 40.7031 180.207 40.7031C181.285 40.7031 182.266 40.8945 183.148 41.2773C184.039 41.6602 184.805 42.2148 185.445 42.9414C186.094 43.668 186.594 44.5469 186.945 45.5781C187.305 46.6016 187.484 47.7656 187.484 49.0703ZM183.934 49.8789V49.0469C183.934 48.1406 183.852 47.3438 183.688 46.6562C183.523 45.9688 183.281 45.3906 182.961 44.9219C182.641 44.4531 182.25 44.1016 181.789 43.8672C181.328 43.625 180.801 43.5039 180.207 43.5039C179.613 43.5039 179.086 43.625 178.625 43.8672C178.172 44.1016 177.785 44.4531 177.465 44.9219C177.152 45.3906 176.914 45.9688 176.75 46.6562C176.586 47.3438 176.504 48.1406 176.504 49.0469V49.8789C176.504 50.7773 176.586 51.5742 176.75 52.2695C176.914 52.957 177.156 53.5391 177.477 54.0156C177.797 54.4844 178.188 54.8398 178.648 55.082C179.109 55.3242 179.637 55.4453 180.23 55.4453C180.824 55.4453 181.352 55.3242 181.812 55.082C182.273 54.8398 182.66 54.4844 182.973 54.0156C183.285 53.5391 183.523 52.957 183.688 52.2695C183.852 51.5742 183.934 50.7773 183.934 49.8789ZM197.305 54.9648V45.3203H200.68V58H197.504L197.305 54.9648ZM197.68 52.3633L198.676 52.3398C198.676 53.1836 198.578 53.9688 198.383 54.6953C198.188 55.4141 197.895 56.0391 197.504 56.5703C197.113 57.0938 196.621 57.5039 196.027 57.8008C195.434 58.0898 194.734 58.2344 193.93 58.2344C193.312 58.2344 192.742 58.1484 192.219 57.9766C191.703 57.7969 191.258 57.5195 190.883 57.1445C190.516 56.7617 190.227 56.2734 190.016 55.6797C189.812 55.0781 189.711 54.3555 189.711 53.5117V45.3203H193.086V53.5352C193.086 53.9102 193.129 54.2266 193.215 54.4844C193.309 54.7422 193.438 54.9531 193.602 55.1172C193.766 55.2812 193.957 55.3984 194.176 55.4688C194.402 55.5391 194.652 55.5742 194.926 55.5742C195.621 55.5742 196.168 55.4336 196.566 55.1523C196.973 54.8711 197.258 54.4883 197.422 54.0039C197.594 53.5117 197.68 52.9648 197.68 52.3633ZM209.469 45.3203V47.7109H202.086V45.3203H209.469ZM203.914 42.1914H207.289V54.1797C207.289 54.5469 207.336 54.8281 207.43 55.0234C207.531 55.2188 207.68 55.3555 207.875 55.4336C208.07 55.5039 208.316 55.5391 208.613 55.5391C208.824 55.5391 209.012 55.5312 209.176 55.5156C209.348 55.4922 209.492 55.4688 209.609 55.4453L209.621 57.9297C209.332 58.0234 209.02 58.0977 208.684 58.1523C208.348 58.207 207.977 58.2344 207.57 58.2344C206.828 58.2344 206.18 58.1133 205.625 57.8711C205.078 57.6211 204.656 57.2227 204.359 56.6758C204.062 56.1289 203.914 55.4102 203.914 54.5195V42.1914ZM215.199 40.9375L214.812 52.7852H212L211.602 40.9375H215.199ZM211.508 56.4531C211.508 55.9531 211.68 55.5391 212.023 55.2109C212.375 54.875 212.836 54.707 213.406 54.707C213.984 54.707 214.445 54.875 214.789 55.2109C215.133 55.5391 215.305 55.9531 215.305 56.4531C215.305 56.9375 215.133 57.3477 214.789 57.6836C214.445 58.0195 213.984 58.1875 213.406 58.1875C212.836 58.1875 212.375 58.0195 212.023 57.6836C211.68 57.3477 211.508 56.9375 211.508 56.4531Z" fill="#888888"/>
<path d="M109.93 86.0078V118H102.217V86.0078H109.93ZM119.554 86.0078V91.9624H92.813V86.0078H119.554ZM132.012 118.439C130.079 118.439 128.35 118.139 126.827 117.539C125.303 116.923 124.014 116.081 122.959 115.012C121.919 113.942 121.121 112.712 120.564 111.32C120.022 109.929 119.751 108.457 119.751 106.904V106.069C119.751 104.326 119.993 102.714 120.477 101.235C120.96 99.7407 121.678 98.437 122.63 97.3237C123.582 96.2104 124.776 95.3462 126.211 94.731C127.647 94.1011 129.317 93.7861 131.221 93.7861C132.906 93.7861 134.415 94.0571 135.748 94.5991C137.081 95.1411 138.208 95.9175 139.131 96.9282C140.069 97.939 140.779 99.1621 141.263 100.598C141.761 102.033 142.01 103.645 142.01 105.432V108.442H122.586V103.806H134.781V103.234C134.795 102.443 134.656 101.77 134.363 101.213C134.085 100.656 133.675 100.231 133.133 99.9385C132.591 99.6455 131.932 99.499 131.155 99.499C130.35 99.499 129.683 99.6748 129.156 100.026C128.643 100.378 128.24 100.861 127.947 101.477C127.669 102.077 127.471 102.773 127.354 103.564C127.237 104.355 127.178 105.19 127.178 106.069V106.904C127.178 107.783 127.295 108.581 127.53 109.299C127.779 110.017 128.13 110.632 128.584 111.145C129.053 111.643 129.61 112.031 130.254 112.309C130.914 112.587 131.661 112.727 132.496 112.727C133.506 112.727 134.502 112.536 135.484 112.155C136.465 111.774 137.308 111.145 138.011 110.266L141.373 114.265C140.889 114.953 140.201 115.62 139.307 116.264C138.428 116.909 137.374 117.436 136.143 117.846C134.913 118.242 133.536 118.439 132.012 118.439ZM155.062 112.727C155.75 112.727 156.336 112.602 156.819 112.353C157.317 112.089 157.691 111.723 157.94 111.254C158.204 110.771 158.328 110.192 158.313 109.519H165.279C165.293 111.306 164.854 112.873 163.96 114.221C163.082 115.554 161.88 116.594 160.357 117.341C158.848 118.073 157.142 118.439 155.237 118.439C153.377 118.439 151.751 118.139 150.359 117.539C148.968 116.923 147.803 116.074 146.866 114.99C145.943 113.891 145.247 112.609 144.778 111.145C144.324 109.68 144.097 108.09 144.097 106.376V105.871C144.097 104.157 144.324 102.568 144.778 101.103C145.247 99.6235 145.943 98.3418 146.866 97.2578C147.803 96.1592 148.96 95.3096 150.337 94.709C151.729 94.0938 153.348 93.7861 155.193 93.7861C157.171 93.7861 158.914 94.1597 160.423 94.9067C161.946 95.6538 163.14 96.7378 164.004 98.1587C164.869 99.5796 165.293 101.301 165.279 103.322H158.313C158.328 102.604 158.218 101.96 157.984 101.389C157.75 100.817 157.383 100.363 156.885 100.026C156.402 99.6748 155.779 99.499 155.018 99.499C154.256 99.499 153.641 99.6675 153.172 100.004C152.703 100.341 152.344 100.81 152.095 101.411C151.861 101.997 151.7 102.67 151.612 103.432C151.539 104.194 151.502 105.007 151.502 105.871V106.376C151.502 107.255 151.539 108.083 151.612 108.859C151.7 109.621 151.868 110.295 152.117 110.881C152.366 111.452 152.725 111.906 153.194 112.243C153.663 112.565 154.285 112.727 155.062 112.727ZM175.694 84.25V118H168.289V84.25H175.694ZM174.815 105.3L173.079 105.344C173.079 103.674 173.284 102.136 173.694 100.729C174.104 99.3232 174.69 98.1001 175.452 97.0601C176.214 96.02 177.129 95.2144 178.199 94.6431C179.268 94.0718 180.455 93.7861 181.758 93.7861C182.93 93.7861 184 93.9546 184.966 94.2915C185.948 94.6284 186.79 95.1704 187.493 95.9175C188.211 96.6646 188.76 97.6387 189.141 98.8398C189.537 100.041 189.734 101.506 189.734 103.234V118H182.286V103.19C182.286 102.224 182.146 101.477 181.868 100.949C181.604 100.407 181.224 100.034 180.726 99.8286C180.228 99.6089 179.62 99.499 178.902 99.499C178.038 99.499 177.334 99.6455 176.792 99.9385C176.25 100.231 175.833 100.642 175.54 101.169C175.262 101.682 175.071 102.29 174.969 102.993C174.866 103.696 174.815 104.465 174.815 105.3ZM221.88 109.497C221.88 108.999 221.807 108.552 221.661 108.156C221.514 107.746 221.243 107.365 220.848 107.014C220.452 106.662 219.881 106.311 219.134 105.959C218.401 105.593 217.435 105.212 216.233 104.816C214.827 104.348 213.472 103.82 212.168 103.234C210.865 102.634 209.7 101.938 208.675 101.147C207.649 100.341 206.836 99.4038 206.236 98.3345C205.635 97.2505 205.335 95.9907 205.335 94.5552C205.335 93.1782 205.643 91.9404 206.258 90.8418C206.873 89.7285 207.73 88.7837 208.829 88.0073C209.942 87.2163 211.246 86.6157 212.74 86.2056C214.234 85.7808 215.867 85.5684 217.64 85.5684C219.983 85.5684 222.049 85.9785 223.836 86.7988C225.638 87.6045 227.044 88.7544 228.055 90.2485C229.08 91.728 229.593 93.4785 229.593 95.5H221.924C221.924 94.6943 221.756 93.9839 221.419 93.3687C221.097 92.7534 220.606 92.27 219.947 91.9185C219.288 91.5669 218.46 91.3911 217.464 91.3911C216.497 91.3911 215.684 91.5376 215.025 91.8306C214.366 92.1235 213.868 92.519 213.531 93.0171C213.194 93.5005 213.025 94.0352 213.025 94.6211C213.025 95.1045 213.157 95.5439 213.421 95.9395C213.699 96.3203 214.087 96.6792 214.585 97.0161C215.098 97.353 215.713 97.6753 216.431 97.9829C217.164 98.2905 217.984 98.5908 218.892 98.8838C220.591 99.4258 222.1 100.034 223.418 100.708C224.751 101.367 225.872 102.121 226.78 102.971C227.703 103.806 228.399 104.758 228.868 105.827C229.351 106.896 229.593 108.105 229.593 109.453C229.593 110.888 229.314 112.163 228.758 113.276C228.201 114.389 227.403 115.334 226.363 116.11C225.323 116.872 224.078 117.451 222.627 117.846C221.177 118.242 219.559 118.439 217.771 118.439C216.131 118.439 214.512 118.234 212.916 117.824C211.333 117.399 209.898 116.755 208.609 115.891C207.32 115.012 206.287 113.891 205.511 112.529C204.749 111.152 204.368 109.519 204.368 107.629H212.103C212.103 108.566 212.227 109.357 212.476 110.002C212.725 110.646 213.091 111.167 213.575 111.562C214.058 111.943 214.651 112.221 215.354 112.397C216.058 112.558 216.863 112.639 217.771 112.639C218.753 112.639 219.544 112.5 220.145 112.221C220.745 111.928 221.185 111.547 221.463 111.079C221.741 110.595 221.88 110.068 221.88 109.497ZM245.743 94.2256V99.3672H231.417V94.2256H245.743ZM234.427 88.3149H241.832V110.244C241.832 110.874 241.905 111.364 242.051 111.716C242.198 112.053 242.447 112.294 242.798 112.441C243.165 112.573 243.648 112.639 244.249 112.639C244.673 112.639 245.025 112.631 245.303 112.617C245.582 112.587 245.845 112.551 246.094 112.507V117.802C245.464 118.007 244.805 118.161 244.117 118.264C243.428 118.381 242.696 118.439 241.919 118.439C240.337 118.439 238.982 118.19 237.854 117.692C236.741 117.194 235.892 116.411 235.306 115.341C234.72 114.272 234.427 112.88 234.427 111.167V88.3149ZM261.036 112.023V102.224C261.036 101.55 260.94 100.971 260.75 100.488C260.56 100.004 260.259 99.6309 259.849 99.3672C259.439 99.0889 258.89 98.9497 258.201 98.9497C257.645 98.9497 257.168 99.0449 256.773 99.2354C256.377 99.4258 256.077 99.7114 255.872 100.092C255.667 100.473 255.564 100.957 255.564 101.542H248.16C248.16 100.444 248.401 99.4258 248.885 98.4883C249.383 97.5361 250.086 96.7085 250.994 96.0054C251.917 95.3022 253.016 94.7603 254.29 94.3794C255.579 93.9839 257.015 93.7861 258.597 93.7861C260.486 93.7861 262.171 94.1011 263.65 94.731C265.145 95.3608 266.324 96.3057 267.188 97.5654C268.052 98.8105 268.484 100.378 268.484 102.268V112.001C268.484 113.554 268.572 114.733 268.748 115.539C268.924 116.33 269.173 117.026 269.495 117.626V118H262.068C261.717 117.268 261.453 116.374 261.277 115.319C261.116 114.25 261.036 113.151 261.036 112.023ZM261.937 103.476L261.98 107.431H258.707C258.018 107.431 257.432 107.526 256.949 107.717C256.48 107.907 256.099 108.171 255.806 108.508C255.528 108.83 255.323 109.196 255.191 109.606C255.074 110.017 255.015 110.449 255.015 110.903C255.015 111.342 255.118 111.738 255.323 112.089C255.542 112.426 255.835 112.69 256.202 112.88C256.568 113.071 256.978 113.166 257.432 113.166C258.252 113.166 258.948 113.012 259.52 112.705C260.105 112.382 260.552 111.994 260.86 111.54C261.167 111.086 261.321 110.661 261.321 110.266L262.947 113.298C262.654 113.884 262.317 114.477 261.937 115.078C261.57 115.678 261.109 116.235 260.552 116.748C260.01 117.246 259.344 117.656 258.553 117.978C257.762 118.286 256.802 118.439 255.674 118.439C254.209 118.439 252.862 118.139 251.631 117.539C250.416 116.938 249.441 116.103 248.709 115.034C247.977 113.95 247.61 112.705 247.61 111.298C247.61 110.068 247.83 108.969 248.27 108.002C248.724 107.036 249.405 106.215 250.313 105.542C251.221 104.868 252.378 104.355 253.785 104.003C255.191 103.652 256.846 103.476 258.75 103.476H261.937ZM282.635 112.727C283.323 112.727 283.909 112.602 284.393 112.353C284.891 112.089 285.264 111.723 285.513 111.254C285.777 110.771 285.901 110.192 285.887 109.519H292.852C292.867 111.306 292.427 112.873 291.534 114.221C290.655 115.554 289.454 116.594 287.93 117.341C286.421 118.073 284.715 118.439 282.811 118.439C280.95 118.439 279.324 118.139 277.933 117.539C276.541 116.923 275.376 116.074 274.439 114.99C273.516 113.891 272.82 112.609 272.352 111.145C271.897 109.68 271.67 108.09 271.67 106.376V105.871C271.67 104.157 271.897 102.568 272.352 101.103C272.82 99.6235 273.516 98.3418 274.439 97.2578C275.376 96.1592 276.534 95.3096 277.911 94.709C279.302 94.0938 280.921 93.7861 282.767 93.7861C284.744 93.7861 286.487 94.1597 287.996 94.9067C289.52 95.6538 290.713 96.7378 291.578 98.1587C292.442 99.5796 292.867 101.301 292.852 103.322H285.887C285.901 102.604 285.792 101.96 285.557 101.389C285.323 100.817 284.957 100.363 284.458 100.026C283.975 99.6748 283.353 99.499 282.591 99.499C281.829 99.499 281.214 99.6675 280.745 100.004C280.276 100.341 279.917 100.81 279.668 101.411C279.434 101.997 279.273 102.67 279.185 103.432C279.112 104.194 279.075 105.007 279.075 105.871V106.376C279.075 107.255 279.112 108.083 279.185 108.859C279.273 109.621 279.441 110.295 279.69 110.881C279.939 111.452 280.298 111.906 280.767 112.243C281.236 112.565 281.858 112.727 282.635 112.727ZM303.487 84.228V118H296.082V84.228H303.487ZM318.692 94.2256L308.365 106.333L302.959 111.738L299.729 107.036L304.234 101.169L309.815 94.2256H318.692ZM310.76 118L304.41 107.167L309.881 103.278L319.241 118H310.76Z" fill="#424241"/>
<path d="M1363 15C1363 6.71573 1356.28 0 1348 0H1134V167H1348C1356.28 167 1363 160.284 1363 152V15Z" fill="#DD000D"/>
<path fill-rule="evenodd" clip-rule="evenodd" d="M1218.5 55C1218.37 55 1218.24 55.0527 1218.15 55.1464C1218.05 55.2402 1218 55.3674 1218 55.5V111.5C1218 111.633 1218.05 111.76 1218.15 111.854C1218.24 111.947 1218.37 112 1218.5 112H1278C1278.13 112 1278.26 111.947 1278.35 111.854C1278.45 111.76 1278.5 111.633 1278.5 111.5V66C1278.5 65.8674 1278.45 65.7402 1278.35 65.6464C1278.26 65.5527 1278.13 65.5 1278 65.5H1248.25C1247.36 65.5 1246.52 65.1045 1245.95 64.4206L1238.09 55H1218.5ZM1213.9 50.9038C1215.12 49.6848 1216.78 49 1218.5 49H1239.5C1240.39 49 1241.23 49.3955 1241.8 50.0794L1249.66 59.5H1278C1279.72 59.5 1281.38 60.1848 1282.6 61.4038C1283.82 62.6228 1284.5 64.2761 1284.5 66V111.5C1284.5 113.224 1283.82 114.877 1282.6 116.096C1281.38 117.315 1279.72 118 1278 118H1218.5C1216.78 118 1215.12 117.315 1213.9 116.096C1212.68 114.877 1212 113.224 1212 111.5V55.5C1212 53.7761 1212.68 52.1228 1213.9 50.9038Z" fill="white"/>
<path fill-rule="evenodd" clip-rule="evenodd" d="M1243.72 77.5251C1245.09 78.892 1245.09 81.108 1243.72 82.4749L1237.45 88.75L1243.72 95.0251C1245.09 96.392 1245.09 98.608 1243.72 99.9749C1242.36 101.342 1240.14 101.342 1238.78 99.9749L1230.03 91.2249C1228.66 89.858 1228.66 87.642 1230.03 86.2751L1238.78 77.5251C1240.14 76.1583 1242.36 76.1583 1243.72 77.5251Z" fill="white"/>
<path fill-rule="evenodd" clip-rule="evenodd" d="M1252.03 99.9749C1250.66 98.608 1250.66 96.392 1252.03 95.0251L1258.3 88.75L1252.03 82.4749C1250.66 81.108 1250.66 78.892 1252.03 77.5251C1253.39 76.1583 1255.61 76.1583 1256.97 77.5251L1265.72 86.2751C1267.09 87.642 1267.09 89.858 1265.72 91.2249L1256.97 99.9749C1255.61 101.342 1253.39 101.342 1252.03 99.9749Z" fill="white"/>
</svg>
