<svg width="1363" height="167" viewBox="0 0 1363 167" fill="none" xmlns="http://www.w3.org/2000/svg">
<rect width="1363" height="167" rx="15" fill="#F0F0F0"/>
<path d="M0 15C0 6.71573 6.71573 0 15 0H37V167H15C6.71573 167 0 160.284 0 152V15Z" fill="#424241"/>
<path d="M100.906 50.9219L93.3945 48.2383V45.0859L103.602 49.375V51.6367L100.906 50.9219ZM93.3945 53.1719L100.918 50.4297L103.602 49.7852V52.0352L93.3945 56.3242V53.1719ZM110.035 55.293L113.434 40.9375H115.332L115.766 43.3281L112.145 58H110.105L110.035 55.293ZM108.289 40.9375L111.102 55.293L110.867 58H108.594L104.809 40.9375H108.289ZM118.754 55.2344L121.531 40.9375H125.012L121.238 58H118.965L118.754 55.2344ZM116.398 40.9375L119.82 55.3516L119.727 58H117.688L114.043 43.3164L114.512 40.9375H116.398ZM133.156 55.1406V49.4922C133.156 49.0859 133.09 48.7383 132.957 48.4492C132.824 48.1523 132.617 47.9219 132.336 47.7578C132.062 47.5938 131.707 47.5117 131.27 47.5117C130.895 47.5117 130.57 47.5781 130.297 47.7109C130.023 47.8359 129.812 48.0195 129.664 48.2617C129.516 48.4961 129.441 48.7734 129.441 49.0938H126.066C126.066 48.5547 126.191 48.043 126.441 47.5586C126.691 47.0742 127.055 46.6484 127.531 46.2812C128.008 45.9062 128.574 45.6133 129.23 45.4023C129.895 45.1914 130.637 45.0859 131.457 45.0859C132.441 45.0859 133.316 45.25 134.082 45.5781C134.848 45.9062 135.449 46.3984 135.887 47.0547C136.332 47.7109 136.555 48.5312 136.555 49.5156V54.9414C136.555 55.6367 136.598 56.207 136.684 56.6523C136.77 57.0898 136.895 57.4727 137.059 57.8008V58H133.648C133.484 57.6562 133.359 57.2266 133.273 56.7109C133.195 56.1875 133.156 55.6641 133.156 55.1406ZM133.602 50.2773L133.625 52.1875H131.738C131.293 52.1875 130.906 52.2383 130.578 52.3398C130.25 52.4414 129.98 52.5859 129.77 52.7734C129.559 52.9531 129.402 53.1641 129.301 53.4062C129.207 53.6484 129.16 53.9141 129.16 54.2031C129.16 54.4922 129.227 54.7539 129.359 54.9883C129.492 55.2148 129.684 55.3945 129.934 55.5273C130.184 55.6523 130.477 55.7148 130.812 55.7148C131.32 55.7148 131.762 55.6133 132.137 55.4102C132.512 55.207 132.801 54.957 133.004 54.6602C133.215 54.3633 133.324 54.082 133.332 53.8164L134.223 55.2461C134.098 55.5664 133.926 55.8984 133.707 56.2422C133.496 56.5859 133.227 56.9102 132.898 57.2148C132.57 57.5117 132.176 57.7578 131.715 57.9531C131.254 58.1406 130.707 58.2344 130.074 58.2344C129.27 58.2344 128.539 58.0742 127.883 57.7539C127.234 57.4258 126.719 56.9766 126.336 56.4062C125.961 55.8281 125.773 55.1719 125.773 54.4375C125.773 53.7734 125.898 53.1836 126.148 52.668C126.398 52.1523 126.766 51.7188 127.25 51.3672C127.742 51.0078 128.355 50.7383 129.09 50.5586C129.824 50.3711 130.676 50.2773 131.645 50.2773H133.602ZM145.367 45.3203V47.7109H137.984V45.3203H145.367ZM139.812 42.1914H143.188V54.1797C143.188 54.5469 143.234 54.8281 143.328 55.0234C143.43 55.2188 143.578 55.3555 143.773 55.4336C143.969 55.5039 144.215 55.5391 144.512 55.5391C144.723 55.5391 144.91 55.5312 145.074 55.5156C145.246 55.4922 145.391 55.4688 145.508 55.4453L145.52 57.9297C145.23 58.0234 144.918 58.0977 144.582 58.1523C144.246 58.207 143.875 58.2344 143.469 58.2344C142.727 58.2344 142.078 58.1133 141.523 57.8711C140.977 57.6211 140.555 57.2227 140.258 56.6758C139.961 56.1289 139.812 55.4102 139.812 54.5195V42.1914ZM152.527 55.5977C152.941 55.5977 153.309 55.5195 153.629 55.3633C153.949 55.1992 154.199 54.9727 154.379 54.6836C154.566 54.3867 154.664 54.0391 154.672 53.6406H157.848C157.84 54.5312 157.602 55.3242 157.133 56.0195C156.664 56.707 156.035 57.25 155.246 57.6484C154.457 58.0391 153.574 58.2344 152.598 58.2344C151.613 58.2344 150.754 58.0703 150.02 57.7422C149.293 57.4141 148.688 56.9609 148.203 56.3828C147.719 55.7969 147.355 55.1172 147.113 54.3438C146.871 53.5625 146.75 52.7266 146.75 51.8359V51.4961C146.75 50.5977 146.871 49.7617 147.113 48.9883C147.355 48.207 147.719 47.5273 148.203 46.9492C148.688 46.3633 149.293 45.9062 150.02 45.5781C150.746 45.25 151.598 45.0859 152.574 45.0859C153.613 45.0859 154.523 45.2852 155.305 45.6836C156.094 46.082 156.711 46.6523 157.156 47.3945C157.609 48.1289 157.84 49 157.848 50.0078H154.672C154.664 49.5859 154.574 49.2031 154.402 48.8594C154.238 48.5156 153.996 48.2422 153.676 48.0391C153.363 47.8281 152.977 47.7227 152.516 47.7227C152.023 47.7227 151.621 47.8281 151.309 48.0391C150.996 48.2422 150.754 48.5234 150.582 48.8828C150.41 49.2344 150.289 49.6367 150.219 50.0898C150.156 50.5352 150.125 51.0039 150.125 51.4961V51.8359C150.125 52.3281 150.156 52.8008 150.219 53.2539C150.281 53.707 150.398 54.1094 150.57 54.4609C150.75 54.8125 150.996 55.0898 151.309 55.293C151.621 55.4961 152.027 55.5977 152.527 55.5977ZM163.098 40V58H159.723V40H163.098ZM162.617 51.2148H161.691C161.699 50.332 161.816 49.5195 162.043 48.7773C162.27 48.0273 162.594 47.3789 163.016 46.832C163.438 46.2773 163.941 45.8477 164.527 45.543C165.121 45.2383 165.777 45.0859 166.496 45.0859C167.121 45.0859 167.688 45.1758 168.195 45.3555C168.711 45.5273 169.152 45.8086 169.52 46.1992C169.895 46.582 170.184 47.0859 170.387 47.7109C170.59 48.3359 170.691 49.0938 170.691 49.9844V58H167.293V49.9609C167.293 49.3984 167.211 48.957 167.047 48.6367C166.891 48.3086 166.66 48.0781 166.355 47.9453C166.059 47.8047 165.691 47.7344 165.254 47.7344C164.77 47.7344 164.355 47.8242 164.012 48.0039C163.676 48.1836 163.406 48.4336 163.203 48.7539C163 49.0664 162.852 49.4336 162.758 49.8555C162.664 50.2773 162.617 50.7305 162.617 51.2148ZM187.484 49.0703V49.8789C187.484 51.1758 187.309 52.3398 186.957 53.3711C186.605 54.4023 186.109 55.2812 185.469 56.0078C184.828 56.7266 184.062 57.2773 183.172 57.6602C182.289 58.043 181.309 58.2344 180.23 58.2344C179.16 58.2344 178.18 58.043 177.289 57.6602C176.406 57.2773 175.641 56.7266 174.992 56.0078C174.344 55.2812 173.84 54.4023 173.48 53.3711C173.129 52.3398 172.953 51.1758 172.953 49.8789V49.0703C172.953 47.7656 173.129 46.6016 173.48 45.5781C173.832 44.5469 174.328 43.668 174.969 42.9414C175.617 42.2148 176.383 41.6602 177.266 41.2773C178.156 40.8945 179.137 40.7031 180.207 40.7031C181.285 40.7031 182.266 40.8945 183.148 41.2773C184.039 41.6602 184.805 42.2148 185.445 42.9414C186.094 43.668 186.594 44.5469 186.945 45.5781C187.305 46.6016 187.484 47.7656 187.484 49.0703ZM183.934 49.8789V49.0469C183.934 48.1406 183.852 47.3438 183.688 46.6562C183.523 45.9688 183.281 45.3906 182.961 44.9219C182.641 44.4531 182.25 44.1016 181.789 43.8672C181.328 43.625 180.801 43.5039 180.207 43.5039C179.613 43.5039 179.086 43.625 178.625 43.8672C178.172 44.1016 177.785 44.4531 177.465 44.9219C177.152 45.3906 176.914 45.9688 176.75 46.6562C176.586 47.3438 176.504 48.1406 176.504 49.0469V49.8789C176.504 50.7773 176.586 51.5742 176.75 52.2695C176.914 52.957 177.156 53.5391 177.477 54.0156C177.797 54.4844 178.188 54.8398 178.648 55.082C179.109 55.3242 179.637 55.4453 180.23 55.4453C180.824 55.4453 181.352 55.3242 181.812 55.082C182.273 54.8398 182.66 54.4844 182.973 54.0156C183.285 53.5391 183.523 52.957 183.688 52.2695C183.852 51.5742 183.934 50.7773 183.934 49.8789ZM197.305 54.9648V45.3203H200.68V58H197.504L197.305 54.9648ZM197.68 52.3633L198.676 52.3398C198.676 53.1836 198.578 53.9688 198.383 54.6953C198.188 55.4141 197.895 56.0391 197.504 56.5703C197.113 57.0938 196.621 57.5039 196.027 57.8008C195.434 58.0898 194.734 58.2344 193.93 58.2344C193.312 58.2344 192.742 58.1484 192.219 57.9766C191.703 57.7969 191.258 57.5195 190.883 57.1445C190.516 56.7617 190.227 56.2734 190.016 55.6797C189.812 55.0781 189.711 54.3555 189.711 53.5117V45.3203H193.086V53.5352C193.086 53.9102 193.129 54.2266 193.215 54.4844C193.309 54.7422 193.438 54.9531 193.602 55.1172C193.766 55.2812 193.957 55.3984 194.176 55.4688C194.402 55.5391 194.652 55.5742 194.926 55.5742C195.621 55.5742 196.168 55.4336 196.566 55.1523C196.973 54.8711 197.258 54.4883 197.422 54.0039C197.594 53.5117 197.68 52.9648 197.68 52.3633ZM209.469 45.3203V47.7109H202.086V45.3203H209.469ZM203.914 42.1914H207.289V54.1797C207.289 54.5469 207.336 54.8281 207.43 55.0234C207.531 55.2188 207.68 55.3555 207.875 55.4336C208.07 55.5039 208.316 55.5391 208.613 55.5391C208.824 55.5391 209.012 55.5312 209.176 55.5156C209.348 55.4922 209.492 55.4688 209.609 55.4453L209.621 57.9297C209.332 58.0234 209.02 58.0977 208.684 58.1523C208.348 58.207 207.977 58.2344 207.57 58.2344C206.828 58.2344 206.18 58.1133 205.625 57.8711C205.078 57.6211 204.656 57.2227 204.359 56.6758C204.062 56.1289 203.914 55.4102 203.914 54.5195V42.1914ZM215.199 40.9375L214.812 52.7852H212L211.602 40.9375H215.199ZM211.508 56.4531C211.508 55.9531 211.68 55.5391 212.023 55.2109C212.375 54.875 212.836 54.707 213.406 54.707C213.984 54.707 214.445 54.875 214.789 55.2109C215.133 55.5391 215.305 55.9531 215.305 56.4531C215.305 56.9375 215.133 57.3477 214.789 57.6836C214.445 58.0195 213.984 58.1875 213.406 58.1875C212.836 58.1875 212.375 58.0195 212.023 57.6836C211.68 57.3477 211.508 56.9375 211.508 56.4531Z" fill="#888888"/>
<path d="M102.635 86.0078V118H94.9443V86.0078H102.635ZM115.181 99.2573V118H107.776V94.2256H114.72L115.181 99.2573ZM114.28 105.3L112.588 105.344C112.588 103.674 112.786 102.136 113.182 100.729C113.577 99.3232 114.163 98.1001 114.939 97.0601C115.716 96.02 116.668 95.2144 117.796 94.6431C118.938 94.0718 120.257 93.7861 121.751 93.7861C122.791 93.7861 123.736 93.9473 124.585 94.2695C125.435 94.5771 126.167 95.0679 126.783 95.7417C127.398 96.4009 127.867 97.2651 128.189 98.3345C128.526 99.3892 128.694 100.656 128.694 102.136V118H121.29V103.081C121.29 102.07 121.172 101.308 120.938 100.795C120.718 100.283 120.396 99.9385 119.971 99.7627C119.546 99.5869 119.026 99.499 118.411 99.499C117.767 99.499 117.188 99.6455 116.675 99.9385C116.163 100.231 115.723 100.642 115.357 101.169C115.005 101.682 114.734 102.29 114.544 102.993C114.368 103.696 114.28 104.465 114.28 105.3ZM127.859 105.3L125.794 105.344C125.794 103.674 125.977 102.136 126.343 100.729C126.724 99.3232 127.288 98.1001 128.035 97.0601C128.797 96.02 129.742 95.2144 130.87 94.6431C131.998 94.0718 133.309 93.7861 134.803 93.7861C135.887 93.7861 136.883 93.9473 137.791 94.2695C138.699 94.5918 139.483 95.1118 140.142 95.8296C140.801 96.5474 141.314 97.4995 141.68 98.686C142.046 99.8579 142.229 101.308 142.229 103.037V118H134.803V103.037C134.803 102.055 134.686 101.315 134.451 100.817C134.231 100.305 133.909 99.9604 133.484 99.7847C133.06 99.5942 132.554 99.499 131.968 99.499C131.265 99.499 130.657 99.6455 130.145 99.9385C129.632 100.231 129.2 100.642 128.848 101.169C128.511 101.682 128.262 102.29 128.101 102.993C127.94 103.696 127.859 104.465 127.859 105.3ZM153.941 98.7959V127.141H146.536V94.2256H153.436L153.941 98.7959ZM168.531 105.827V106.289C168.531 108.017 168.333 109.621 167.938 111.101C167.542 112.58 166.956 113.869 166.18 114.968C165.403 116.066 164.437 116.923 163.279 117.539C162.137 118.139 160.811 118.439 159.302 118.439C157.881 118.439 156.658 118.125 155.633 117.495C154.607 116.865 153.75 115.993 153.062 114.88C152.374 113.767 151.817 112.492 151.392 111.057C150.967 109.621 150.63 108.105 150.381 106.508V105.915C150.63 104.201 150.967 102.612 151.392 101.147C151.817 99.6675 152.374 98.3784 153.062 97.2798C153.75 96.1812 154.6 95.3242 155.611 94.709C156.636 94.0938 157.859 93.7861 159.28 93.7861C160.789 93.7861 162.115 94.0718 163.257 94.6431C164.415 95.2144 165.381 96.0347 166.158 97.104C166.949 98.1587 167.542 99.4258 167.938 100.905C168.333 102.385 168.531 104.025 168.531 105.827ZM161.126 106.289V105.827C161.126 104.904 161.06 104.062 160.928 103.3C160.796 102.524 160.584 101.85 160.291 101.279C160.013 100.708 159.639 100.268 159.17 99.9604C158.702 99.6528 158.123 99.499 157.435 99.499C156.644 99.499 155.977 99.6235 155.435 99.8726C154.908 100.107 154.483 100.473 154.161 100.971C153.853 101.455 153.633 102.062 153.501 102.795C153.384 103.513 153.333 104.355 153.348 105.322V107.124C153.318 108.237 153.428 109.218 153.677 110.068C153.926 110.903 154.358 111.555 154.974 112.023C155.589 112.492 156.424 112.727 157.479 112.727C158.182 112.727 158.768 112.565 159.236 112.243C159.705 111.906 160.079 111.445 160.357 110.859C160.635 110.258 160.833 109.57 160.95 108.793C161.067 108.017 161.126 107.182 161.126 106.289ZM179.649 84.25V118H172.222V84.25H179.649ZM195.733 118.439C193.799 118.439 192.071 118.139 190.547 117.539C189.024 116.923 187.735 116.081 186.68 115.012C185.64 113.942 184.842 112.712 184.285 111.32C183.743 109.929 183.472 108.457 183.472 106.904V106.069C183.472 104.326 183.714 102.714 184.197 101.235C184.681 99.7407 185.398 98.437 186.351 97.3237C187.303 96.2104 188.497 95.3462 189.932 94.731C191.368 94.1011 193.038 93.7861 194.942 93.7861C196.626 93.7861 198.135 94.0571 199.468 94.5991C200.801 95.1411 201.929 95.9175 202.852 96.9282C203.79 97.939 204.5 99.1621 204.983 100.598C205.481 102.033 205.73 103.645 205.73 105.432V108.442H186.307V103.806H198.501V103.234C198.516 102.443 198.377 101.77 198.084 101.213C197.806 100.656 197.396 100.231 196.854 99.9385C196.312 99.6455 195.652 99.499 194.876 99.499C194.07 99.499 193.404 99.6748 192.876 100.026C192.364 100.378 191.961 100.861 191.668 101.477C191.39 102.077 191.192 102.773 191.075 103.564C190.958 104.355 190.899 105.19 190.899 106.069V106.904C190.899 107.783 191.016 108.581 191.25 109.299C191.5 110.017 191.851 110.632 192.305 111.145C192.774 111.643 193.331 112.031 193.975 112.309C194.634 112.587 195.381 112.727 196.216 112.727C197.227 112.727 198.223 112.536 199.205 112.155C200.186 111.774 201.028 111.145 201.731 110.266L205.093 114.265C204.61 114.953 203.921 115.62 203.028 116.264C202.149 116.909 201.094 117.436 199.864 117.846C198.633 118.242 197.256 118.439 195.733 118.439ZM216.211 99.2573V118H208.807V94.2256H215.75L216.211 99.2573ZM215.311 105.3L213.619 105.344C213.619 103.674 213.816 102.136 214.212 100.729C214.607 99.3232 215.193 98.1001 215.97 97.0601C216.746 96.02 217.698 95.2144 218.826 94.6431C219.969 94.0718 221.287 93.7861 222.781 93.7861C223.821 93.7861 224.766 93.9473 225.616 94.2695C226.465 94.5771 227.198 95.0679 227.813 95.7417C228.428 96.4009 228.897 97.2651 229.219 98.3345C229.556 99.3892 229.725 100.656 229.725 102.136V118H222.32V103.081C222.32 102.07 222.203 101.308 221.968 100.795C221.749 100.283 221.426 99.9385 221.001 99.7627C220.577 99.5869 220.057 99.499 219.441 99.499C218.797 99.499 218.218 99.6455 217.706 99.9385C217.193 100.231 216.753 100.642 216.387 101.169C216.036 101.682 215.765 102.29 215.574 102.993C215.398 103.696 215.311 104.465 215.311 105.3ZM228.89 105.3L226.824 105.344C226.824 103.674 227.007 102.136 227.374 100.729C227.754 99.3232 228.318 98.1001 229.065 97.0601C229.827 96.02 230.772 95.2144 231.9 94.6431C233.028 94.0718 234.339 93.7861 235.833 93.7861C236.917 93.7861 237.913 93.9473 238.821 94.2695C239.729 94.5918 240.513 95.1118 241.172 95.8296C241.832 96.5474 242.344 97.4995 242.71 98.686C243.077 99.8579 243.26 101.308 243.26 103.037V118H235.833V103.037C235.833 102.055 235.716 101.315 235.481 100.817C235.262 100.305 234.939 99.9604 234.515 99.7847C234.09 99.5942 233.584 99.499 232.999 99.499C232.295 99.499 231.688 99.6455 231.175 99.9385C230.662 100.231 230.23 100.642 229.878 101.169C229.542 101.682 229.292 102.29 229.131 102.993C228.97 103.696 228.89 104.465 228.89 105.3ZM259.014 118.439C257.081 118.439 255.352 118.139 253.829 117.539C252.305 116.923 251.016 116.081 249.961 115.012C248.921 113.942 248.123 112.712 247.566 111.32C247.024 109.929 246.753 108.457 246.753 106.904V106.069C246.753 104.326 246.995 102.714 247.479 101.235C247.962 99.7407 248.68 98.437 249.632 97.3237C250.584 96.2104 251.778 95.3462 253.213 94.731C254.649 94.1011 256.319 93.7861 258.223 93.7861C259.908 93.7861 261.417 94.0571 262.75 94.5991C264.083 95.1411 265.21 95.9175 266.133 96.9282C267.071 97.939 267.781 99.1621 268.265 100.598C268.763 102.033 269.012 103.645 269.012 105.432V108.442H249.588V103.806H261.783V103.234C261.797 102.443 261.658 101.77 261.365 101.213C261.087 100.656 260.677 100.231 260.135 99.9385C259.593 99.6455 258.934 99.499 258.157 99.499C257.352 99.499 256.685 99.6748 256.158 100.026C255.645 100.378 255.242 100.861 254.949 101.477C254.671 102.077 254.473 102.773 254.356 103.564C254.239 104.355 254.18 105.19 254.18 106.069V106.904C254.18 107.783 254.297 108.581 254.532 109.299C254.781 110.017 255.132 110.632 255.586 111.145C256.055 111.643 256.612 112.031 257.256 112.309C257.916 112.587 258.663 112.727 259.498 112.727C260.508 112.727 261.504 112.536 262.486 112.155C263.467 111.774 264.31 111.145 265.013 110.266L268.375 114.265C267.891 114.953 267.203 115.62 266.309 116.264C265.43 116.909 264.375 117.436 263.145 117.846C261.915 118.242 260.538 118.439 259.014 118.439ZM279.295 99.3013V118H271.89V94.2256H278.833L279.295 99.3013ZM278.416 105.3L276.68 105.344C276.68 103.527 276.9 101.909 277.339 100.488C277.779 99.0522 278.401 97.8364 279.207 96.8403C280.013 95.8442 280.972 95.0898 282.085 94.5771C283.213 94.0498 284.466 93.7861 285.843 93.7861C286.941 93.7861 287.945 93.9473 288.853 94.2695C289.776 94.5918 290.567 95.1118 291.226 95.8296C291.9 96.5474 292.413 97.4995 292.764 98.686C293.13 99.8579 293.313 101.308 293.313 103.037V118H285.865V103.015C285.865 102.062 285.733 101.337 285.469 100.839C285.206 100.327 284.825 99.9751 284.327 99.7847C283.829 99.5942 283.221 99.499 282.503 99.499C281.741 99.499 281.097 99.6455 280.569 99.9385C280.042 100.231 279.617 100.642 279.295 101.169C278.987 101.682 278.76 102.29 278.614 102.993C278.482 103.696 278.416 104.465 278.416 105.3ZM309.947 94.2256V99.3672H295.621V94.2256H309.947ZM298.631 88.3149H306.036V110.244C306.036 110.874 306.109 111.364 306.255 111.716C306.402 112.053 306.651 112.294 307.002 112.441C307.369 112.573 307.852 112.639 308.453 112.639C308.877 112.639 309.229 112.631 309.507 112.617C309.786 112.587 310.049 112.551 310.298 112.507V117.802C309.668 118.007 309.009 118.161 308.321 118.264C307.632 118.381 306.9 118.439 306.124 118.439C304.542 118.439 303.187 118.19 302.059 117.692C300.945 117.194 300.096 116.411 299.51 115.341C298.924 114.272 298.631 112.88 298.631 111.167V88.3149ZM325.24 112.023V102.224C325.24 101.55 325.145 100.971 324.954 100.488C324.764 100.004 324.463 99.6309 324.053 99.3672C323.643 99.0889 323.094 98.9497 322.405 98.9497C321.849 98.9497 321.373 99.0449 320.977 99.2354C320.582 99.4258 320.281 99.7114 320.076 100.092C319.871 100.473 319.769 100.957 319.769 101.542H312.364C312.364 100.444 312.605 99.4258 313.089 98.4883C313.587 97.5361 314.29 96.7085 315.198 96.0054C316.121 95.3022 317.22 94.7603 318.494 94.3794C319.783 93.9839 321.219 93.7861 322.801 93.7861C324.69 93.7861 326.375 94.1011 327.854 94.731C329.349 95.3608 330.528 96.3057 331.392 97.5654C332.256 98.8105 332.688 100.378 332.688 102.268V112.001C332.688 113.554 332.776 114.733 332.952 115.539C333.128 116.33 333.377 117.026 333.699 117.626V118H326.272C325.921 117.268 325.657 116.374 325.481 115.319C325.32 114.25 325.24 113.151 325.24 112.023ZM326.141 103.476L326.185 107.431H322.911C322.222 107.431 321.636 107.526 321.153 107.717C320.684 107.907 320.303 108.171 320.01 108.508C319.732 108.83 319.527 109.196 319.395 109.606C319.278 110.017 319.219 110.449 319.219 110.903C319.219 111.342 319.322 111.738 319.527 112.089C319.747 112.426 320.04 112.69 320.406 112.88C320.772 113.071 321.182 113.166 321.636 113.166C322.457 113.166 323.152 113.012 323.724 112.705C324.31 112.382 324.756 111.994 325.064 111.54C325.372 111.086 325.525 110.661 325.525 110.266L327.151 113.298C326.858 113.884 326.521 114.477 326.141 115.078C325.774 115.678 325.313 116.235 324.756 116.748C324.214 117.246 323.548 117.656 322.757 117.978C321.966 118.286 321.006 118.439 319.878 118.439C318.414 118.439 317.066 118.139 315.835 117.539C314.62 116.938 313.646 116.103 312.913 115.034C312.181 113.95 311.814 112.705 311.814 111.298C311.814 110.068 312.034 108.969 312.474 108.002C312.928 107.036 313.609 106.215 314.517 105.542C315.425 104.868 316.583 104.355 317.989 104.003C319.395 103.652 321.05 103.476 322.955 103.476H326.141ZM349.322 94.2256V99.3672H334.996V94.2256H349.322ZM338.006 88.3149H345.411V110.244C345.411 110.874 345.484 111.364 345.63 111.716C345.777 112.053 346.026 112.294 346.377 112.441C346.744 112.573 347.227 112.639 347.828 112.639C348.252 112.639 348.604 112.631 348.882 112.617C349.161 112.587 349.424 112.551 349.673 112.507V117.802C349.043 118.007 348.384 118.161 347.696 118.264C347.007 118.381 346.275 118.439 345.499 118.439C343.917 118.439 342.562 118.19 341.434 117.692C340.32 117.194 339.471 116.411 338.885 115.341C338.299 114.272 338.006 112.88 338.006 111.167V88.3149ZM360.088 94.2256V118H352.662V94.2256H360.088ZM352.222 88.0952C352.222 87.0405 352.603 86.1763 353.365 85.5024C354.126 84.8286 355.115 84.4917 356.331 84.4917C357.547 84.4917 358.536 84.8286 359.297 85.5024C360.059 86.1763 360.44 87.0405 360.44 88.0952C360.44 89.1499 360.059 90.0142 359.297 90.688C358.536 91.3618 357.547 91.6987 356.331 91.6987C355.115 91.6987 354.126 91.3618 353.365 90.688C352.603 90.0142 352.222 89.1499 352.222 88.0952ZM363.736 106.354V105.893C363.736 104.15 363.985 102.546 364.483 101.081C364.981 99.6016 365.713 98.3198 366.68 97.2358C367.647 96.1519 368.841 95.3096 370.262 94.709C371.683 94.0938 373.323 93.7861 375.184 93.7861C377.059 93.7861 378.707 94.0938 380.127 94.709C381.563 95.3096 382.764 96.1519 383.731 97.2358C384.698 98.3198 385.43 99.6016 385.928 101.081C386.426 102.546 386.675 104.15 386.675 105.893V106.354C386.675 108.083 386.426 109.687 385.928 111.167C385.43 112.631 384.698 113.913 383.731 115.012C382.764 116.096 381.57 116.938 380.149 117.539C378.729 118.139 377.088 118.439 375.228 118.439C373.367 118.439 371.719 118.139 370.284 117.539C368.848 116.938 367.647 116.096 366.68 115.012C365.713 113.913 364.981 112.631 364.483 111.167C363.985 109.687 363.736 108.083 363.736 106.354ZM371.141 105.893V106.354C371.141 107.248 371.207 108.083 371.338 108.859C371.47 109.636 371.69 110.317 371.998 110.903C372.305 111.474 372.723 111.921 373.25 112.243C373.777 112.565 374.437 112.727 375.228 112.727C376.004 112.727 376.648 112.565 377.161 112.243C377.688 111.921 378.106 111.474 378.414 110.903C378.721 110.317 378.941 109.636 379.073 108.859C379.205 108.083 379.271 107.248 379.271 106.354V105.893C379.271 105.029 379.205 104.216 379.073 103.454C378.941 102.678 378.721 101.997 378.414 101.411C378.106 100.81 377.688 100.341 377.161 100.004C376.634 99.6675 375.975 99.499 375.184 99.499C374.407 99.499 373.755 99.6675 373.228 100.004C372.715 100.341 372.305 100.81 371.998 101.411C371.69 101.997 371.47 102.678 371.338 103.454C371.207 104.216 371.141 105.029 371.141 105.893ZM397.244 99.3013V118H389.839V94.2256H396.783L397.244 99.3013ZM396.365 105.3L394.629 105.344C394.629 103.527 394.849 101.909 395.289 100.488C395.728 99.0522 396.351 97.8364 397.156 96.8403C397.962 95.8442 398.921 95.0898 400.035 94.5771C401.163 94.0498 402.415 93.7861 403.792 93.7861C404.891 93.7861 405.894 93.9473 406.802 94.2695C407.725 94.5918 408.516 95.1118 409.175 95.8296C409.849 96.5474 410.362 97.4995 410.713 98.686C411.08 99.8579 411.263 101.308 411.263 103.037V118H403.814V103.015C403.814 102.062 403.682 101.337 403.418 100.839C403.155 100.327 402.774 99.9751 402.276 99.7847C401.778 99.5942 401.17 99.499 400.452 99.499C399.69 99.499 399.046 99.6455 398.519 99.9385C397.991 100.231 397.566 100.642 397.244 101.169C396.937 101.682 396.709 102.29 396.563 102.993C396.431 103.696 396.365 104.465 396.365 105.3Z" fill="#424241"/>
<path d="M1363 15C1363 6.71573 1356.28 0 1348 0H1134V167H1348C1356.28 167 1363 160.284 1363 152V15Z" fill="#DD000D"/>
<path d="M1281.5 49H1216.5L1214 51.5V116.5L1216.5 119H1281.5L1284 116.5V51.5L1281.5 49ZM1279 114H1234V104H1245.5C1247 107 1250.5 109 1254 109C1259.5 109 1264 104.5 1264 99C1264 93.5 1259.5 89 1254 89C1248.5 89 1244 93.5 1244 99H1229V114H1219V54H1229V65.5C1226 67 1224 70.5 1224 74C1224 79.5 1228.5 84 1234 84C1239.5 84 1244 79.5 1244 74H1254C1254 79.5 1258.5 84 1264 84C1269.5 84 1274 79.5 1274 74C1274 68.5 1269.5 64 1264 64C1260.5 64 1257 66 1255.5 69H1242.5C1241 66 1237.5 64 1234 64V54H1279V114ZM1249 99C1249 96 1251 94 1254 94C1257 94 1259 96 1259 99C1259 102 1257 104 1254 104C1251 104 1249 102 1249 99ZM1234 69C1237 69 1239 71 1239 74C1239 77 1237 79 1234 79C1231 79 1229 77 1229 74C1229 71 1231 69 1234 69ZM1264 69C1267 69 1269 71 1269 74C1269 77 1267 79 1264 79C1261 79 1259 77 1259 74C1259 71 1261 69 1264 69Z" fill="white"/>
</svg>
