<svg width="1363" height="167" viewBox="0 0 1363 167" fill="none" xmlns="http://www.w3.org/2000/svg">
<rect width="1363" height="167" rx="15" fill="#F0F0F0"/>
<path d="M0 15C0 6.71573 6.71573 0 15 0H37V167H15C6.71573 167 0 160.284 0 152V15Z" fill="#424241"/>
<path d="M100.906 50.9219L93.3945 48.2383V45.0859L103.602 49.375V51.6367L100.906 50.9219ZM93.3945 53.1719L100.918 50.4297L103.602 49.7852V52.0352L93.3945 56.3242V53.1719ZM110.035 55.293L113.434 40.9375H115.332L115.766 43.3281L112.145 58H110.105L110.035 55.293ZM108.289 40.9375L111.102 55.293L110.867 58H108.594L104.809 40.9375H108.289ZM118.754 55.2344L121.531 40.9375H125.012L121.238 58H118.965L118.754 55.2344ZM116.398 40.9375L119.82 55.3516L119.727 58H117.688L114.043 43.3164L114.512 40.9375H116.398ZM133.156 55.1406V49.4922C133.156 49.0859 133.09 48.7383 132.957 48.4492C132.824 48.1523 132.617 47.9219 132.336 47.7578C132.062 47.5938 131.707 47.5117 131.27 47.5117C130.895 47.5117 130.57 47.5781 130.297 47.7109C130.023 47.8359 129.812 48.0195 129.664 48.2617C129.516 48.4961 129.441 48.7734 129.441 49.0938H126.066C126.066 48.5547 126.191 48.043 126.441 47.5586C126.691 47.0742 127.055 46.6484 127.531 46.2812C128.008 45.9062 128.574 45.6133 129.23 45.4023C129.895 45.1914 130.637 45.0859 131.457 45.0859C132.441 45.0859 133.316 45.25 134.082 45.5781C134.848 45.9062 135.449 46.3984 135.887 47.0547C136.332 47.7109 136.555 48.5312 136.555 49.5156V54.9414C136.555 55.6367 136.598 56.207 136.684 56.6523C136.77 57.0898 136.895 57.4727 137.059 57.8008V58H133.648C133.484 57.6562 133.359 57.2266 133.273 56.7109C133.195 56.1875 133.156 55.6641 133.156 55.1406ZM133.602 50.2773L133.625 52.1875H131.738C131.293 52.1875 130.906 52.2383 130.578 52.3398C130.25 52.4414 129.98 52.5859 129.77 52.7734C129.559 52.9531 129.402 53.1641 129.301 53.4062C129.207 53.6484 129.16 53.9141 129.16 54.2031C129.16 54.4922 129.227 54.7539 129.359 54.9883C129.492 55.2148 129.684 55.3945 129.934 55.5273C130.184 55.6523 130.477 55.7148 130.812 55.7148C131.32 55.7148 131.762 55.6133 132.137 55.4102C132.512 55.207 132.801 54.957 133.004 54.6602C133.215 54.3633 133.324 54.082 133.332 53.8164L134.223 55.2461C134.098 55.5664 133.926 55.8984 133.707 56.2422C133.496 56.5859 133.227 56.9102 132.898 57.2148C132.57 57.5117 132.176 57.7578 131.715 57.9531C131.254 58.1406 130.707 58.2344 130.074 58.2344C129.27 58.2344 128.539 58.0742 127.883 57.7539C127.234 57.4258 126.719 56.9766 126.336 56.4062C125.961 55.8281 125.773 55.1719 125.773 54.4375C125.773 53.7734 125.898 53.1836 126.148 52.668C126.398 52.1523 126.766 51.7188 127.25 51.3672C127.742 51.0078 128.355 50.7383 129.09 50.5586C129.824 50.3711 130.676 50.2773 131.645 50.2773H133.602ZM145.367 45.3203V47.7109H137.984V45.3203H145.367ZM139.812 42.1914H143.188V54.1797C143.188 54.5469 143.234 54.8281 143.328 55.0234C143.43 55.2188 143.578 55.3555 143.773 55.4336C143.969 55.5039 144.215 55.5391 144.512 55.5391C144.723 55.5391 144.91 55.5312 145.074 55.5156C145.246 55.4922 145.391 55.4688 145.508 55.4453L145.52 57.9297C145.23 58.0234 144.918 58.0977 144.582 58.1523C144.246 58.207 143.875 58.2344 143.469 58.2344C142.727 58.2344 142.078 58.1133 141.523 57.8711C140.977 57.6211 140.555 57.2227 140.258 56.6758C139.961 56.1289 139.812 55.4102 139.812 54.5195V42.1914ZM152.527 55.5977C152.941 55.5977 153.309 55.5195 153.629 55.3633C153.949 55.1992 154.199 54.9727 154.379 54.6836C154.566 54.3867 154.664 54.0391 154.672 53.6406H157.848C157.84 54.5312 157.602 55.3242 157.133 56.0195C156.664 56.707 156.035 57.25 155.246 57.6484C154.457 58.0391 153.574 58.2344 152.598 58.2344C151.613 58.2344 150.754 58.0703 150.02 57.7422C149.293 57.4141 148.688 56.9609 148.203 56.3828C147.719 55.7969 147.355 55.1172 147.113 54.3438C146.871 53.5625 146.75 52.7266 146.75 51.8359V51.4961C146.75 50.5977 146.871 49.7617 147.113 48.9883C147.355 48.207 147.719 47.5273 148.203 46.9492C148.688 46.3633 149.293 45.9062 150.02 45.5781C150.746 45.25 151.598 45.0859 152.574 45.0859C153.613 45.0859 154.523 45.2852 155.305 45.6836C156.094 46.082 156.711 46.6523 157.156 47.3945C157.609 48.1289 157.84 49 157.848 50.0078H154.672C154.664 49.5859 154.574 49.2031 154.402 48.8594C154.238 48.5156 153.996 48.2422 153.676 48.0391C153.363 47.8281 152.977 47.7227 152.516 47.7227C152.023 47.7227 151.621 47.8281 151.309 48.0391C150.996 48.2422 150.754 48.5234 150.582 48.8828C150.41 49.2344 150.289 49.6367 150.219 50.0898C150.156 50.5352 150.125 51.0039 150.125 51.4961V51.8359C150.125 52.3281 150.156 52.8008 150.219 53.2539C150.281 53.707 150.398 54.1094 150.57 54.4609C150.75 54.8125 150.996 55.0898 151.309 55.293C151.621 55.4961 152.027 55.5977 152.527 55.5977ZM163.098 40V58H159.723V40H163.098ZM162.617 51.2148H161.691C161.699 50.332 161.816 49.5195 162.043 48.7773C162.27 48.0273 162.594 47.3789 163.016 46.832C163.438 46.2773 163.941 45.8477 164.527 45.543C165.121 45.2383 165.777 45.0859 166.496 45.0859C167.121 45.0859 167.688 45.1758 168.195 45.3555C168.711 45.5273 169.152 45.8086 169.52 46.1992C169.895 46.582 170.184 47.0859 170.387 47.7109C170.59 48.3359 170.691 49.0938 170.691 49.9844V58H167.293V49.9609C167.293 49.3984 167.211 48.957 167.047 48.6367C166.891 48.3086 166.66 48.0781 166.355 47.9453C166.059 47.8047 165.691 47.7344 165.254 47.7344C164.77 47.7344 164.355 47.8242 164.012 48.0039C163.676 48.1836 163.406 48.4336 163.203 48.7539C163 49.0664 162.852 49.4336 162.758 49.8555C162.664 50.2773 162.617 50.7305 162.617 51.2148ZM187.484 49.0703V49.8789C187.484 51.1758 187.309 52.3398 186.957 53.3711C186.605 54.4023 186.109 55.2812 185.469 56.0078C184.828 56.7266 184.062 57.2773 183.172 57.6602C182.289 58.043 181.309 58.2344 180.23 58.2344C179.16 58.2344 178.18 58.043 177.289 57.6602C176.406 57.2773 175.641 56.7266 174.992 56.0078C174.344 55.2812 173.84 54.4023 173.48 53.3711C173.129 52.3398 172.953 51.1758 172.953 49.8789V49.0703C172.953 47.7656 173.129 46.6016 173.48 45.5781C173.832 44.5469 174.328 43.668 174.969 42.9414C175.617 42.2148 176.383 41.6602 177.266 41.2773C178.156 40.8945 179.137 40.7031 180.207 40.7031C181.285 40.7031 182.266 40.8945 183.148 41.2773C184.039 41.6602 184.805 42.2148 185.445 42.9414C186.094 43.668 186.594 44.5469 186.945 45.5781C187.305 46.6016 187.484 47.7656 187.484 49.0703ZM183.934 49.8789V49.0469C183.934 48.1406 183.852 47.3438 183.688 46.6562C183.523 45.9688 183.281 45.3906 182.961 44.9219C182.641 44.4531 182.25 44.1016 181.789 43.8672C181.328 43.625 180.801 43.5039 180.207 43.5039C179.613 43.5039 179.086 43.625 178.625 43.8672C178.172 44.1016 177.785 44.4531 177.465 44.9219C177.152 45.3906 176.914 45.9688 176.75 46.6562C176.586 47.3438 176.504 48.1406 176.504 49.0469V49.8789C176.504 50.7773 176.586 51.5742 176.75 52.2695C176.914 52.957 177.156 53.5391 177.477 54.0156C177.797 54.4844 178.188 54.8398 178.648 55.082C179.109 55.3242 179.637 55.4453 180.23 55.4453C180.824 55.4453 181.352 55.3242 181.812 55.082C182.273 54.8398 182.66 54.4844 182.973 54.0156C183.285 53.5391 183.523 52.957 183.688 52.2695C183.852 51.5742 183.934 50.7773 183.934 49.8789ZM197.305 54.9648V45.3203H200.68V58H197.504L197.305 54.9648ZM197.68 52.3633L198.676 52.3398C198.676 53.1836 198.578 53.9688 198.383 54.6953C198.188 55.4141 197.895 56.0391 197.504 56.5703C197.113 57.0938 196.621 57.5039 196.027 57.8008C195.434 58.0898 194.734 58.2344 193.93 58.2344C193.312 58.2344 192.742 58.1484 192.219 57.9766C191.703 57.7969 191.258 57.5195 190.883 57.1445C190.516 56.7617 190.227 56.2734 190.016 55.6797C189.812 55.0781 189.711 54.3555 189.711 53.5117V45.3203H193.086V53.5352C193.086 53.9102 193.129 54.2266 193.215 54.4844C193.309 54.7422 193.438 54.9531 193.602 55.1172C193.766 55.2812 193.957 55.3984 194.176 55.4688C194.402 55.5391 194.652 55.5742 194.926 55.5742C195.621 55.5742 196.168 55.4336 196.566 55.1523C196.973 54.8711 197.258 54.4883 197.422 54.0039C197.594 53.5117 197.68 52.9648 197.68 52.3633ZM209.469 45.3203V47.7109H202.086V45.3203H209.469ZM203.914 42.1914H207.289V54.1797C207.289 54.5469 207.336 54.8281 207.43 55.0234C207.531 55.2188 207.68 55.3555 207.875 55.4336C208.07 55.5039 208.316 55.5391 208.613 55.5391C208.824 55.5391 209.012 55.5312 209.176 55.5156C209.348 55.4922 209.492 55.4688 209.609 55.4453L209.621 57.9297C209.332 58.0234 209.02 58.0977 208.684 58.1523C208.348 58.207 207.977 58.2344 207.57 58.2344C206.828 58.2344 206.18 58.1133 205.625 57.8711C205.078 57.6211 204.656 57.2227 204.359 56.6758C204.062 56.1289 203.914 55.4102 203.914 54.5195V42.1914ZM215.199 40.9375L214.812 52.7852H212L211.602 40.9375H215.199ZM211.508 56.4531C211.508 55.9531 211.68 55.5391 212.023 55.2109C212.375 54.875 212.836 54.707 213.406 54.707C213.984 54.707 214.445 54.875 214.789 55.2109C215.133 55.5391 215.305 55.9531 215.305 56.4531C215.305 56.9375 215.133 57.3477 214.789 57.6836C214.445 58.0195 213.984 58.1875 213.406 58.1875C212.836 58.1875 212.375 58.0195 212.023 57.6836C211.68 57.3477 211.508 56.9375 211.508 56.4531Z" fill="#888888"/>
<path d="M107.205 107.146H99.251V101.191H107.205C108.289 101.191 109.168 101.008 109.842 100.642C110.516 100.275 111.006 99.77 111.314 99.1255C111.636 98.4663 111.797 97.7266 111.797 96.9062C111.797 96.0273 111.636 95.2144 111.314 94.4673C111.006 93.7202 110.516 93.1196 109.842 92.6655C109.168 92.1968 108.289 91.9624 107.205 91.9624H102.151V118H94.439V86.0078H107.205C109.769 86.0078 111.973 86.4766 113.819 87.4141C115.679 88.3516 117.107 89.6406 118.104 91.2812C119.1 92.9072 119.598 94.7676 119.598 96.8623C119.598 98.9277 119.1 100.729 118.104 102.268C117.107 103.806 115.679 105.007 113.819 105.871C111.973 106.721 109.769 107.146 107.205 107.146ZM130.87 100.114V118H123.465V94.2256H130.386L130.87 100.114ZM137.901 94.0498L137.769 100.927C137.476 100.898 137.081 100.861 136.583 100.817C136.084 100.773 135.667 100.751 135.33 100.751C134.466 100.751 133.719 100.854 133.089 101.059C132.474 101.25 131.961 101.542 131.551 101.938C131.155 102.319 130.862 102.802 130.672 103.388C130.496 103.974 130.416 104.655 130.43 105.432L129.09 104.553C129.09 102.956 129.244 101.506 129.551 100.202C129.874 98.8838 130.328 97.7485 130.914 96.7964C131.5 95.8296 132.21 95.0898 133.045 94.5771C133.88 94.0498 134.817 93.7861 135.857 93.7861C136.224 93.7861 136.583 93.8081 136.934 93.8521C137.3 93.896 137.623 93.9619 137.901 94.0498ZM138.736 106.354V105.893C138.736 104.15 138.985 102.546 139.483 101.081C139.981 99.6016 140.713 98.3198 141.68 97.2358C142.647 96.1519 143.841 95.3096 145.262 94.709C146.683 94.0938 148.323 93.7861 150.184 93.7861C152.059 93.7861 153.707 94.0938 155.127 94.709C156.563 95.3096 157.764 96.1519 158.731 97.2358C159.698 98.3198 160.43 99.6016 160.928 101.081C161.426 102.546 161.675 104.15 161.675 105.893V106.354C161.675 108.083 161.426 109.687 160.928 111.167C160.43 112.631 159.698 113.913 158.731 115.012C157.764 116.096 156.57 116.938 155.149 117.539C153.729 118.139 152.088 118.439 150.228 118.439C148.367 118.439 146.719 118.139 145.284 117.539C143.848 116.938 142.647 116.096 141.68 115.012C140.713 113.913 139.981 112.631 139.483 111.167C138.985 109.687 138.736 108.083 138.736 106.354ZM146.141 105.893V106.354C146.141 107.248 146.207 108.083 146.338 108.859C146.47 109.636 146.69 110.317 146.998 110.903C147.305 111.474 147.723 111.921 148.25 112.243C148.777 112.565 149.437 112.727 150.228 112.727C151.004 112.727 151.648 112.565 152.161 112.243C152.688 111.921 153.106 111.474 153.414 110.903C153.721 110.317 153.941 109.636 154.073 108.859C154.205 108.083 154.271 107.248 154.271 106.354V105.893C154.271 105.029 154.205 104.216 154.073 103.454C153.941 102.678 153.721 101.997 153.414 101.411C153.106 100.81 152.688 100.341 152.161 100.004C151.634 99.6675 150.975 99.499 150.184 99.499C149.407 99.499 148.755 99.6675 148.228 100.004C147.715 100.341 147.305 100.81 146.998 101.411C146.69 101.997 146.47 102.678 146.338 103.454C146.207 104.216 146.141 105.029 146.141 105.893ZM165.521 94.2256H172.947V118.769C172.947 120.673 172.581 122.277 171.849 123.581C171.116 124.899 170.069 125.896 168.707 126.569C167.344 127.258 165.718 127.602 163.829 127.602C163.199 127.602 162.62 127.573 162.093 127.514C161.551 127.47 160.958 127.375 160.313 127.229V121.625C160.694 121.684 161.045 121.728 161.368 121.757C161.69 121.801 162.042 121.823 162.422 121.823C163.096 121.823 163.66 121.713 164.114 121.494C164.568 121.274 164.913 120.937 165.147 120.483C165.396 120.029 165.521 119.458 165.521 118.769V94.2256ZM164.971 88.0952C164.971 87.0405 165.352 86.1763 166.114 85.5024C166.875 84.8286 167.864 84.4917 169.08 84.4917C170.296 84.4917 171.285 84.8286 172.046 85.5024C172.808 86.1763 173.189 87.0405 173.189 88.0952C173.189 89.1499 172.808 90.0142 172.046 90.688C171.285 91.3618 170.296 91.6987 169.08 91.6987C167.864 91.6987 166.875 91.3618 166.114 90.688C165.352 90.0142 164.971 89.1499 164.971 88.0952ZM188.658 118.439C186.724 118.439 184.996 118.139 183.472 117.539C181.949 116.923 180.66 116.081 179.605 115.012C178.565 113.942 177.767 112.712 177.21 111.32C176.668 109.929 176.397 108.457 176.397 106.904V106.069C176.397 104.326 176.639 102.714 177.122 101.235C177.605 99.7407 178.323 98.437 179.275 97.3237C180.228 96.2104 181.421 95.3462 182.857 94.731C184.292 94.1011 185.962 93.7861 187.867 93.7861C189.551 93.7861 191.06 94.0571 192.393 94.5991C193.726 95.1411 194.854 95.9175 195.777 96.9282C196.714 97.939 197.425 99.1621 197.908 100.598C198.406 102.033 198.655 103.645 198.655 105.432V108.442H179.231V103.806H191.426V103.234C191.441 102.443 191.302 101.77 191.009 101.213C190.73 100.656 190.32 100.231 189.778 99.9385C189.236 99.6455 188.577 99.499 187.801 99.499C186.995 99.499 186.329 99.6748 185.801 100.026C185.289 100.378 184.886 100.861 184.593 101.477C184.314 102.077 184.117 102.773 184 103.564C183.882 104.355 183.824 105.19 183.824 106.069V106.904C183.824 107.783 183.941 108.581 184.175 109.299C184.424 110.017 184.776 110.632 185.23 111.145C185.699 111.643 186.255 112.031 186.9 112.309C187.559 112.587 188.306 112.727 189.141 112.727C190.152 112.727 191.148 112.536 192.129 112.155C193.111 111.774 193.953 111.145 194.656 110.266L198.018 114.265C197.535 114.953 196.846 115.62 195.953 116.264C195.074 116.909 194.019 117.436 192.789 117.846C191.558 118.242 190.181 118.439 188.658 118.439ZM211.707 112.727C212.396 112.727 212.981 112.602 213.465 112.353C213.963 112.089 214.336 111.723 214.585 111.254C214.849 110.771 214.974 110.192 214.959 109.519H221.924C221.939 111.306 221.5 112.873 220.606 114.221C219.727 115.554 218.526 116.594 217.002 117.341C215.494 118.073 213.787 118.439 211.883 118.439C210.022 118.439 208.396 118.139 207.005 117.539C205.613 116.923 204.449 116.074 203.511 114.99C202.588 113.891 201.893 112.609 201.424 111.145C200.97 109.68 200.743 108.09 200.743 106.376V105.871C200.743 104.157 200.97 102.568 201.424 101.103C201.893 99.6235 202.588 98.3418 203.511 97.2578C204.449 96.1592 205.606 95.3096 206.983 94.709C208.375 94.0938 209.993 93.7861 211.839 93.7861C213.816 93.7861 215.56 94.1597 217.068 94.9067C218.592 95.6538 219.786 96.7378 220.65 98.1587C221.514 99.5796 221.939 101.301 221.924 103.322H214.959C214.974 102.604 214.864 101.96 214.629 101.389C214.395 100.817 214.029 100.363 213.531 100.026C213.047 99.6748 212.425 99.499 211.663 99.499C210.901 99.499 210.286 99.6675 209.817 100.004C209.349 100.341 208.99 100.81 208.741 101.411C208.506 101.997 208.345 102.67 208.257 103.432C208.184 104.194 208.147 105.007 208.147 105.871V106.376C208.147 107.255 208.184 108.083 208.257 108.859C208.345 109.621 208.514 110.295 208.763 110.881C209.012 111.452 209.371 111.906 209.839 112.243C210.308 112.565 210.931 112.727 211.707 112.727ZM237.613 94.2256V99.3672H223.287V94.2256H237.613ZM226.297 88.3149H233.702V110.244C233.702 110.874 233.775 111.364 233.921 111.716C234.068 112.053 234.317 112.294 234.668 112.441C235.035 112.573 235.518 112.639 236.119 112.639C236.543 112.639 236.895 112.631 237.173 112.617C237.452 112.587 237.715 112.551 237.964 112.507V117.802C237.334 118.007 236.675 118.161 235.987 118.264C235.298 118.381 234.566 118.439 233.79 118.439C232.208 118.439 230.853 118.19 229.725 117.692C228.611 117.194 227.762 116.411 227.176 115.341C226.59 114.272 226.297 112.88 226.297 111.167V88.3149ZM264.881 107.146H256.927V101.191H264.881C265.965 101.191 266.844 101.008 267.518 100.642C268.191 100.275 268.682 99.77 268.99 99.1255C269.312 98.4663 269.473 97.7266 269.473 96.9062C269.473 96.0273 269.312 95.2144 268.99 94.4673C268.682 93.7202 268.191 93.1196 267.518 92.6655C266.844 92.1968 265.965 91.9624 264.881 91.9624H259.827V118H252.115V86.0078H264.881C267.444 86.0078 269.649 86.4766 271.495 87.4141C273.355 88.3516 274.783 89.6406 275.779 91.2812C276.775 92.9072 277.273 94.7676 277.273 96.8623C277.273 98.9277 276.775 100.729 275.779 102.268C274.783 103.806 273.355 105.007 271.495 105.871C269.649 106.721 267.444 107.146 264.881 107.146ZM288.326 84.25V118H280.921V84.25H288.326ZM287.447 105.3L285.711 105.344C285.711 103.674 285.916 102.136 286.326 100.729C286.736 99.3232 287.322 98.1001 288.084 97.0601C288.846 96.02 289.761 95.2144 290.831 94.6431C291.9 94.0718 293.086 93.7861 294.39 93.7861C295.562 93.7861 296.631 93.9546 297.598 94.2915C298.58 94.6284 299.422 95.1704 300.125 95.9175C300.843 96.6646 301.392 97.6387 301.773 98.8398C302.168 100.041 302.366 101.506 302.366 103.234V118H294.917V103.19C294.917 102.224 294.778 101.477 294.5 100.949C294.236 100.407 293.855 100.034 293.357 99.8286C292.859 99.6089 292.251 99.499 291.534 99.499C290.669 99.499 289.966 99.6455 289.424 99.9385C288.882 100.231 288.465 100.642 288.172 101.169C287.894 101.682 287.703 102.29 287.601 102.993C287.498 103.696 287.447 104.465 287.447 105.3ZM314.297 94.2256V118H306.871V94.2256H314.297ZM306.431 88.0952C306.431 87.0405 306.812 86.1763 307.574 85.5024C308.335 84.8286 309.324 84.4917 310.54 84.4917C311.756 84.4917 312.745 84.8286 313.506 85.5024C314.268 86.1763 314.649 87.0405 314.649 88.0952C314.649 89.1499 314.268 90.0142 313.506 90.688C312.745 91.3618 311.756 91.6987 310.54 91.6987C309.324 91.6987 308.335 91.3618 307.574 90.688C306.812 90.0142 306.431 89.1499 306.431 88.0952ZM326.69 84.25V118H319.263V84.25H326.69ZM330.337 106.354V105.893C330.337 104.15 330.586 102.546 331.084 101.081C331.583 99.6016 332.315 98.3198 333.282 97.2358C334.249 96.1519 335.442 95.3096 336.863 94.709C338.284 94.0938 339.925 93.7861 341.785 93.7861C343.66 93.7861 345.308 94.0938 346.729 94.709C348.165 95.3096 349.366 96.1519 350.333 97.2358C351.299 98.3198 352.032 99.6016 352.53 101.081C353.028 102.546 353.277 104.15 353.277 105.893V106.354C353.277 108.083 353.028 109.687 352.53 111.167C352.032 112.631 351.299 113.913 350.333 115.012C349.366 116.096 348.172 116.938 346.751 117.539C345.33 118.139 343.689 118.439 341.829 118.439C339.969 118.439 338.321 118.139 336.885 117.539C335.45 116.938 334.249 116.096 333.282 115.012C332.315 113.913 331.583 112.631 331.084 111.167C330.586 109.687 330.337 108.083 330.337 106.354ZM337.742 105.893V106.354C337.742 107.248 337.808 108.083 337.94 108.859C338.072 109.636 338.292 110.317 338.599 110.903C338.907 111.474 339.324 111.921 339.852 112.243C340.379 112.565 341.038 112.727 341.829 112.727C342.605 112.727 343.25 112.565 343.763 112.243C344.29 111.921 344.708 111.474 345.015 110.903C345.323 110.317 345.542 109.636 345.674 108.859C345.806 108.083 345.872 107.248 345.872 106.354V105.893C345.872 105.029 345.806 104.216 345.674 103.454C345.542 102.678 345.323 101.997 345.015 101.411C344.708 100.81 344.29 100.341 343.763 100.004C343.235 99.6675 342.576 99.499 341.785 99.499C341.009 99.499 340.357 99.6675 339.83 100.004C339.317 100.341 338.907 100.81 338.599 101.411C338.292 101.997 338.072 102.678 337.94 103.454C337.808 104.216 337.742 105.029 337.742 105.893ZM369.031 111.32C369.031 110.91 368.892 110.559 368.614 110.266C368.35 109.958 367.881 109.68 367.208 109.431C366.534 109.167 365.589 108.903 364.373 108.64C363.216 108.391 362.125 108.061 361.099 107.651C360.088 107.241 359.202 106.743 358.44 106.157C357.679 105.571 357.078 104.875 356.639 104.069C356.214 103.264 356.001 102.341 356.001 101.301C356.001 100.29 356.214 99.3379 356.639 98.4443C357.078 97.5361 357.715 96.7378 358.55 96.0493C359.4 95.3462 360.433 94.7969 361.648 94.4014C362.864 93.9912 364.249 93.7861 365.801 93.7861C367.94 93.7861 369.786 94.1157 371.338 94.7749C372.891 95.4194 374.085 96.3276 374.92 97.4995C375.77 98.6567 376.194 99.9971 376.194 101.521H368.79C368.79 100.92 368.687 100.407 368.482 99.9824C368.292 99.5576 367.977 99.2354 367.537 99.0156C367.098 98.7812 366.512 98.6641 365.779 98.6641C365.267 98.6641 364.798 98.7593 364.373 98.9497C363.963 99.1401 363.633 99.4038 363.384 99.7407C363.135 100.078 363.011 100.473 363.011 100.927C363.011 101.25 363.084 101.542 363.23 101.806C363.392 102.055 363.633 102.29 363.956 102.509C364.278 102.714 364.688 102.905 365.186 103.081C365.684 103.242 366.285 103.388 366.988 103.52C368.584 103.813 370.079 104.23 371.47 104.772C372.862 105.314 373.99 106.083 374.854 107.08C375.733 108.076 376.172 109.416 376.172 111.101C376.172 112.155 375.931 113.129 375.447 114.023C374.964 114.902 374.268 115.678 373.36 116.352C372.452 117.011 371.36 117.524 370.086 117.89C368.812 118.256 367.376 118.439 365.779 118.439C363.509 118.439 361.59 118.037 360.022 117.231C358.455 116.411 357.269 115.385 356.463 114.155C355.672 112.91 355.276 111.65 355.276 110.375H362.176C362.205 111.108 362.381 111.708 362.703 112.177C363.04 112.646 363.487 112.99 364.043 113.21C364.6 113.43 365.245 113.54 365.977 113.54C366.651 113.54 367.208 113.444 367.647 113.254C368.101 113.063 368.445 112.807 368.68 112.485C368.914 112.148 369.031 111.76 369.031 111.32ZM378.721 106.354V105.893C378.721 104.15 378.97 102.546 379.468 101.081C379.966 99.6016 380.699 98.3198 381.666 97.2358C382.632 96.1519 383.826 95.3096 385.247 94.709C386.668 94.0938 388.309 93.7861 390.169 93.7861C392.044 93.7861 393.692 94.0938 395.113 94.709C396.548 95.3096 397.75 96.1519 398.716 97.2358C399.683 98.3198 400.416 99.6016 400.914 101.081C401.412 102.546 401.661 104.15 401.661 105.893V106.354C401.661 108.083 401.412 109.687 400.914 111.167C400.416 112.631 399.683 113.913 398.716 115.012C397.75 116.096 396.556 116.938 395.135 117.539C393.714 118.139 392.073 118.439 390.213 118.439C388.353 118.439 386.705 118.139 385.269 117.539C383.833 116.938 382.632 116.096 381.666 115.012C380.699 113.913 379.966 112.631 379.468 111.167C378.97 109.687 378.721 108.083 378.721 106.354ZM386.126 105.893V106.354C386.126 107.248 386.192 108.083 386.324 108.859C386.456 109.636 386.675 110.317 386.983 110.903C387.291 111.474 387.708 111.921 388.235 112.243C388.763 112.565 389.422 112.727 390.213 112.727C390.989 112.727 391.634 112.565 392.146 112.243C392.674 111.921 393.091 111.474 393.399 110.903C393.707 110.317 393.926 109.636 394.058 108.859C394.19 108.083 394.256 107.248 394.256 106.354V105.893C394.256 105.029 394.19 104.216 394.058 103.454C393.926 102.678 393.707 101.997 393.399 101.411C393.091 100.81 392.674 100.341 392.146 100.004C391.619 99.6675 390.96 99.499 390.169 99.499C389.393 99.499 388.741 99.6675 388.213 100.004C387.701 100.341 387.291 100.81 386.983 101.411C386.675 101.997 386.456 102.678 386.324 103.454C386.192 104.216 386.126 105.029 386.126 105.893ZM412.427 98.7959V127.141H405.022V94.2256H411.922L412.427 98.7959ZM427.017 105.827V106.289C427.017 108.017 426.819 109.621 426.424 111.101C426.028 112.58 425.442 113.869 424.666 114.968C423.89 116.066 422.923 116.923 421.766 117.539C420.623 118.139 419.297 118.439 417.789 118.439C416.368 118.439 415.145 118.125 414.119 117.495C413.094 116.865 412.237 115.993 411.548 114.88C410.86 113.767 410.303 112.492 409.878 111.057C409.454 109.621 409.117 108.105 408.868 106.508V105.915C409.117 104.201 409.454 102.612 409.878 101.147C410.303 99.6675 410.86 98.3784 411.548 97.2798C412.237 96.1812 413.086 95.3242 414.097 94.709C415.123 94.0938 416.346 93.7861 417.767 93.7861C419.275 93.7861 420.601 94.0718 421.744 94.6431C422.901 95.2144 423.868 96.0347 424.644 97.104C425.435 98.1587 426.028 99.4258 426.424 100.905C426.819 102.385 427.017 104.025 427.017 105.827ZM419.612 106.289V105.827C419.612 104.904 419.546 104.062 419.415 103.3C419.283 102.524 419.07 101.85 418.777 101.279C418.499 100.708 418.125 100.268 417.657 99.9604C417.188 99.6528 416.609 99.499 415.921 99.499C415.13 99.499 414.463 99.6235 413.921 99.8726C413.394 100.107 412.969 100.473 412.647 100.971C412.339 101.455 412.12 102.062 411.988 102.795C411.871 103.513 411.819 104.355 411.834 105.322V107.124C411.805 108.237 411.915 109.218 412.164 110.068C412.413 110.903 412.845 111.555 413.46 112.023C414.075 112.492 414.91 112.727 415.965 112.727C416.668 112.727 417.254 112.565 417.723 112.243C418.191 111.906 418.565 111.445 418.843 110.859C419.122 110.258 419.319 109.57 419.437 108.793C419.554 108.017 419.612 107.182 419.612 106.289ZM437.564 84.25V118H430.159V84.25H437.564ZM436.685 105.3L434.949 105.344C434.949 103.674 435.154 102.136 435.564 100.729C435.975 99.3232 436.561 98.1001 437.322 97.0601C438.084 96.02 439 95.2144 440.069 94.6431C441.138 94.0718 442.325 93.7861 443.628 93.7861C444.8 93.7861 445.87 93.9546 446.836 94.2915C447.818 94.6284 448.66 95.1704 449.363 95.9175C450.081 96.6646 450.63 97.6387 451.011 98.8398C451.407 100.041 451.604 101.506 451.604 103.234V118H444.156V103.19C444.156 102.224 444.017 101.477 443.738 100.949C443.475 100.407 443.094 100.034 442.596 99.8286C442.098 99.6089 441.49 99.499 440.772 99.499C439.908 99.499 439.205 99.6455 438.663 99.9385C438.121 100.231 437.703 100.642 437.41 101.169C437.132 101.682 436.941 102.29 436.839 102.993C436.736 103.696 436.685 104.465 436.685 105.3ZM463.008 115.209L469.161 94.2256H477.115L467.557 121.538C467.352 122.138 467.081 122.783 466.744 123.471C466.407 124.174 465.945 124.841 465.359 125.471C464.773 126.101 464.019 126.613 463.096 127.009C462.188 127.404 461.06 127.602 459.712 127.602C458.995 127.602 458.467 127.565 458.13 127.492C457.808 127.434 457.31 127.324 456.636 127.163V121.867C456.827 121.867 456.988 121.867 457.12 121.867C457.266 121.867 457.427 121.867 457.603 121.867C458.394 121.867 459.024 121.787 459.493 121.625C459.976 121.464 460.342 121.23 460.591 120.922C460.855 120.615 461.06 120.241 461.207 119.802L463.008 115.209ZM461.448 94.2256L466.128 110.859L466.941 118.703H461.976L453.516 94.2256H461.448Z" fill="#424241"/>
<path d="M1363 15C1363 6.71573 1356.28 0 1348 0H1134V167H1348C1356.28 167 1363 160.284 1363 152V15Z" fill="#DD000D"/>
<path d="M1234.26 106.286H1262.74V111.857H1234.26V106.286ZM1239.96 117.429H1257.04V123H1239.96V117.429ZM1248.5 45C1240.95 45 1233.71 47.9349 1228.37 53.1592C1223.03 58.3834 1220.03 65.469 1220.03 72.8571C1219.84 76.9057 1220.63 80.9412 1222.34 84.6315C1224.05 88.3219 1226.64 91.5616 1229.88 94.0843C1232.73 96.675 1234.26 98.1514 1234.26 100.714H1239.96C1239.96 95.5886 1236.8 92.7193 1233.72 89.9614C1231.06 87.9676 1228.94 85.3658 1227.55 82.3838C1226.15 79.4019 1225.53 76.1308 1225.72 72.8571C1225.72 66.9466 1228.12 61.2781 1232.39 57.0988C1236.67 52.9194 1242.46 50.5714 1248.5 50.5714C1254.54 50.5714 1260.33 52.9194 1264.61 57.0988C1268.88 61.2781 1271.28 66.9466 1271.28 72.8571C1271.47 76.1333 1270.84 79.4059 1269.44 82.388C1268.04 85.3701 1265.92 87.9706 1263.25 89.9614C1260.2 92.7471 1257.04 95.5329 1257.04 100.714H1262.74C1262.74 98.1514 1264.25 96.675 1267.12 94.0564C1270.36 91.5381 1272.94 88.3031 1274.66 84.6176C1276.37 80.9321 1277.16 76.9014 1276.97 72.8571C1276.97 69.1989 1276.24 65.5765 1274.81 62.1967C1273.37 58.8169 1271.28 55.7459 1268.63 53.1592C1265.99 50.5724 1262.85 48.5205 1259.4 47.1205C1255.94 45.7205 1252.24 45 1248.5 45V45Z" fill="white"/>
</svg>
