<svg width="1363" height="167" viewBox="0 0 1363 167" fill="none" xmlns="http://www.w3.org/2000/svg">
<rect width="1363" height="167" rx="15" fill="#F0F0F0"/>
<path d="M0 15C0 6.71573 6.71573 0 15 0H37V167H15C6.71573 167 0 160.284 0 152V15Z" fill="#424241"/>
<path d="M100.906 50.9219L93.3945 48.2383V45.0859L103.602 49.375V51.6367L100.906 50.9219ZM93.3945 53.1719L100.918 50.4297L103.602 49.7852V52.0352L93.3945 56.3242V53.1719ZM110.035 55.293L113.434 40.9375H115.332L115.766 43.3281L112.145 58H110.105L110.035 55.293ZM108.289 40.9375L111.102 55.293L110.867 58H108.594L104.809 40.9375H108.289ZM118.754 55.2344L121.531 40.9375H125.012L121.238 58H118.965L118.754 55.2344ZM116.398 40.9375L119.82 55.3516L119.727 58H117.688L114.043 43.3164L114.512 40.9375H116.398ZM133.156 55.1406V49.4922C133.156 49.0859 133.09 48.7383 132.957 48.4492C132.824 48.1523 132.617 47.9219 132.336 47.7578C132.062 47.5938 131.707 47.5117 131.27 47.5117C130.895 47.5117 130.57 47.5781 130.297 47.7109C130.023 47.8359 129.812 48.0195 129.664 48.2617C129.516 48.4961 129.441 48.7734 129.441 49.0938H126.066C126.066 48.5547 126.191 48.043 126.441 47.5586C126.691 47.0742 127.055 46.6484 127.531 46.2812C128.008 45.9062 128.574 45.6133 129.23 45.4023C129.895 45.1914 130.637 45.0859 131.457 45.0859C132.441 45.0859 133.316 45.25 134.082 45.5781C134.848 45.9062 135.449 46.3984 135.887 47.0547C136.332 47.7109 136.555 48.5312 136.555 49.5156V54.9414C136.555 55.6367 136.598 56.207 136.684 56.6523C136.77 57.0898 136.895 57.4727 137.059 57.8008V58H133.648C133.484 57.6562 133.359 57.2266 133.273 56.7109C133.195 56.1875 133.156 55.6641 133.156 55.1406ZM133.602 50.2773L133.625 52.1875H131.738C131.293 52.1875 130.906 52.2383 130.578 52.3398C130.25 52.4414 129.98 52.5859 129.77 52.7734C129.559 52.9531 129.402 53.1641 129.301 53.4062C129.207 53.6484 129.16 53.9141 129.16 54.2031C129.16 54.4922 129.227 54.7539 129.359 54.9883C129.492 55.2148 129.684 55.3945 129.934 55.5273C130.184 55.6523 130.477 55.7148 130.812 55.7148C131.32 55.7148 131.762 55.6133 132.137 55.4102C132.512 55.207 132.801 54.957 133.004 54.6602C133.215 54.3633 133.324 54.082 133.332 53.8164L134.223 55.2461C134.098 55.5664 133.926 55.8984 133.707 56.2422C133.496 56.5859 133.227 56.9102 132.898 57.2148C132.57 57.5117 132.176 57.7578 131.715 57.9531C131.254 58.1406 130.707 58.2344 130.074 58.2344C129.27 58.2344 128.539 58.0742 127.883 57.7539C127.234 57.4258 126.719 56.9766 126.336 56.4062C125.961 55.8281 125.773 55.1719 125.773 54.4375C125.773 53.7734 125.898 53.1836 126.148 52.668C126.398 52.1523 126.766 51.7188 127.25 51.3672C127.742 51.0078 128.355 50.7383 129.09 50.5586C129.824 50.3711 130.676 50.2773 131.645 50.2773H133.602ZM145.367 45.3203V47.7109H137.984V45.3203H145.367ZM139.812 42.1914H143.188V54.1797C143.188 54.5469 143.234 54.8281 143.328 55.0234C143.43 55.2188 143.578 55.3555 143.773 55.4336C143.969 55.5039 144.215 55.5391 144.512 55.5391C144.723 55.5391 144.91 55.5312 145.074 55.5156C145.246 55.4922 145.391 55.4688 145.508 55.4453L145.52 57.9297C145.23 58.0234 144.918 58.0977 144.582 58.1523C144.246 58.207 143.875 58.2344 143.469 58.2344C142.727 58.2344 142.078 58.1133 141.523 57.8711C140.977 57.6211 140.555 57.2227 140.258 56.6758C139.961 56.1289 139.812 55.4102 139.812 54.5195V42.1914ZM152.527 55.5977C152.941 55.5977 153.309 55.5195 153.629 55.3633C153.949 55.1992 154.199 54.9727 154.379 54.6836C154.566 54.3867 154.664 54.0391 154.672 53.6406H157.848C157.84 54.5312 157.602 55.3242 157.133 56.0195C156.664 56.707 156.035 57.25 155.246 57.6484C154.457 58.0391 153.574 58.2344 152.598 58.2344C151.613 58.2344 150.754 58.0703 150.02 57.7422C149.293 57.4141 148.688 56.9609 148.203 56.3828C147.719 55.7969 147.355 55.1172 147.113 54.3438C146.871 53.5625 146.75 52.7266 146.75 51.8359V51.4961C146.75 50.5977 146.871 49.7617 147.113 48.9883C147.355 48.207 147.719 47.5273 148.203 46.9492C148.688 46.3633 149.293 45.9062 150.02 45.5781C150.746 45.25 151.598 45.0859 152.574 45.0859C153.613 45.0859 154.523 45.2852 155.305 45.6836C156.094 46.082 156.711 46.6523 157.156 47.3945C157.609 48.1289 157.84 49 157.848 50.0078H154.672C154.664 49.5859 154.574 49.2031 154.402 48.8594C154.238 48.5156 153.996 48.2422 153.676 48.0391C153.363 47.8281 152.977 47.7227 152.516 47.7227C152.023 47.7227 151.621 47.8281 151.309 48.0391C150.996 48.2422 150.754 48.5234 150.582 48.8828C150.41 49.2344 150.289 49.6367 150.219 50.0898C150.156 50.5352 150.125 51.0039 150.125 51.4961V51.8359C150.125 52.3281 150.156 52.8008 150.219 53.2539C150.281 53.707 150.398 54.1094 150.57 54.4609C150.75 54.8125 150.996 55.0898 151.309 55.293C151.621 55.4961 152.027 55.5977 152.527 55.5977ZM163.098 40V58H159.723V40H163.098ZM162.617 51.2148H161.691C161.699 50.332 161.816 49.5195 162.043 48.7773C162.27 48.0273 162.594 47.3789 163.016 46.832C163.438 46.2773 163.941 45.8477 164.527 45.543C165.121 45.2383 165.777 45.0859 166.496 45.0859C167.121 45.0859 167.688 45.1758 168.195 45.3555C168.711 45.5273 169.152 45.8086 169.52 46.1992C169.895 46.582 170.184 47.0859 170.387 47.7109C170.59 48.3359 170.691 49.0938 170.691 49.9844V58H167.293V49.9609C167.293 49.3984 167.211 48.957 167.047 48.6367C166.891 48.3086 166.66 48.0781 166.355 47.9453C166.059 47.8047 165.691 47.7344 165.254 47.7344C164.77 47.7344 164.355 47.8242 164.012 48.0039C163.676 48.1836 163.406 48.4336 163.203 48.7539C163 49.0664 162.852 49.4336 162.758 49.8555C162.664 50.2773 162.617 50.7305 162.617 51.2148ZM187.484 49.0703V49.8789C187.484 51.1758 187.309 52.3398 186.957 53.3711C186.605 54.4023 186.109 55.2812 185.469 56.0078C184.828 56.7266 184.062 57.2773 183.172 57.6602C182.289 58.043 181.309 58.2344 180.23 58.2344C179.16 58.2344 178.18 58.043 177.289 57.6602C176.406 57.2773 175.641 56.7266 174.992 56.0078C174.344 55.2812 173.84 54.4023 173.48 53.3711C173.129 52.3398 172.953 51.1758 172.953 49.8789V49.0703C172.953 47.7656 173.129 46.6016 173.48 45.5781C173.832 44.5469 174.328 43.668 174.969 42.9414C175.617 42.2148 176.383 41.6602 177.266 41.2773C178.156 40.8945 179.137 40.7031 180.207 40.7031C181.285 40.7031 182.266 40.8945 183.148 41.2773C184.039 41.6602 184.805 42.2148 185.445 42.9414C186.094 43.668 186.594 44.5469 186.945 45.5781C187.305 46.6016 187.484 47.7656 187.484 49.0703ZM183.934 49.8789V49.0469C183.934 48.1406 183.852 47.3438 183.688 46.6562C183.523 45.9688 183.281 45.3906 182.961 44.9219C182.641 44.4531 182.25 44.1016 181.789 43.8672C181.328 43.625 180.801 43.5039 180.207 43.5039C179.613 43.5039 179.086 43.625 178.625 43.8672C178.172 44.1016 177.785 44.4531 177.465 44.9219C177.152 45.3906 176.914 45.9688 176.75 46.6562C176.586 47.3438 176.504 48.1406 176.504 49.0469V49.8789C176.504 50.7773 176.586 51.5742 176.75 52.2695C176.914 52.957 177.156 53.5391 177.477 54.0156C177.797 54.4844 178.188 54.8398 178.648 55.082C179.109 55.3242 179.637 55.4453 180.23 55.4453C180.824 55.4453 181.352 55.3242 181.812 55.082C182.273 54.8398 182.66 54.4844 182.973 54.0156C183.285 53.5391 183.523 52.957 183.688 52.2695C183.852 51.5742 183.934 50.7773 183.934 49.8789ZM197.305 54.9648V45.3203H200.68V58H197.504L197.305 54.9648ZM197.68 52.3633L198.676 52.3398C198.676 53.1836 198.578 53.9688 198.383 54.6953C198.188 55.4141 197.895 56.0391 197.504 56.5703C197.113 57.0938 196.621 57.5039 196.027 57.8008C195.434 58.0898 194.734 58.2344 193.93 58.2344C193.312 58.2344 192.742 58.1484 192.219 57.9766C191.703 57.7969 191.258 57.5195 190.883 57.1445C190.516 56.7617 190.227 56.2734 190.016 55.6797C189.812 55.0781 189.711 54.3555 189.711 53.5117V45.3203H193.086V53.5352C193.086 53.9102 193.129 54.2266 193.215 54.4844C193.309 54.7422 193.438 54.9531 193.602 55.1172C193.766 55.2812 193.957 55.3984 194.176 55.4688C194.402 55.5391 194.652 55.5742 194.926 55.5742C195.621 55.5742 196.168 55.4336 196.566 55.1523C196.973 54.8711 197.258 54.4883 197.422 54.0039C197.594 53.5117 197.68 52.9648 197.68 52.3633ZM209.469 45.3203V47.7109H202.086V45.3203H209.469ZM203.914 42.1914H207.289V54.1797C207.289 54.5469 207.336 54.8281 207.43 55.0234C207.531 55.2188 207.68 55.3555 207.875 55.4336C208.07 55.5039 208.316 55.5391 208.613 55.5391C208.824 55.5391 209.012 55.5312 209.176 55.5156C209.348 55.4922 209.492 55.4688 209.609 55.4453L209.621 57.9297C209.332 58.0234 209.02 58.0977 208.684 58.1523C208.348 58.207 207.977 58.2344 207.57 58.2344C206.828 58.2344 206.18 58.1133 205.625 57.8711C205.078 57.6211 204.656 57.2227 204.359 56.6758C204.062 56.1289 203.914 55.4102 203.914 54.5195V42.1914ZM215.199 40.9375L214.812 52.7852H212L211.602 40.9375H215.199ZM211.508 56.4531C211.508 55.9531 211.68 55.5391 212.023 55.2109C212.375 54.875 212.836 54.707 213.406 54.707C213.984 54.707 214.445 54.875 214.789 55.2109C215.133 55.5391 215.305 55.9531 215.305 56.4531C215.305 56.9375 215.133 57.3477 214.789 57.6836C214.445 58.0195 213.984 58.1875 213.406 58.1875C212.836 58.1875 212.375 58.0195 212.023 57.6836C211.68 57.3477 211.508 56.9375 211.508 56.4531Z" fill="#888888"/>
<path d="M101.822 115.1L108.194 86.0078H111.995L114.061 88.4907L107.271 118H103.074L101.822 115.1ZM100.13 86.0078L105.513 115.319L104.129 118H99.2729L92.4834 86.0078H100.13ZM117.554 115.166L122.894 86.0078H130.518L123.729 118H118.895L117.554 115.166ZM114.742 86.0078L121.268 115.275L119.949 118H115.752L108.809 88.4468L110.962 86.0078H114.742ZM141.021 94.2256V118H133.594V94.2256H141.021ZM133.155 88.0952C133.155 87.0405 133.536 86.1763 134.297 85.5024C135.059 84.8286 136.048 84.4917 137.264 84.4917C138.479 84.4917 139.468 84.8286 140.23 85.5024C140.992 86.1763 141.373 87.0405 141.373 88.0952C141.373 89.1499 140.992 90.0142 140.23 90.688C139.468 91.3618 138.479 91.6987 137.264 91.6987C136.048 91.6987 135.059 91.3618 134.297 90.688C133.536 90.0142 133.155 89.1499 133.155 88.0952ZM153.062 100.114V118H145.657V94.2256H152.579L153.062 100.114ZM160.093 94.0498L159.961 100.927C159.668 100.898 159.273 100.861 158.775 100.817C158.277 100.773 157.859 100.751 157.522 100.751C156.658 100.751 155.911 100.854 155.281 101.059C154.666 101.25 154.153 101.542 153.743 101.938C153.348 102.319 153.055 102.802 152.864 103.388C152.688 103.974 152.608 104.655 152.623 105.432L151.282 104.553C151.282 102.956 151.436 101.506 151.744 100.202C152.066 98.8838 152.52 97.7485 153.106 96.7964C153.692 95.8296 154.402 95.0898 155.237 94.5771C156.072 94.0498 157.01 93.7861 158.05 93.7861C158.416 93.7861 158.775 93.8081 159.126 93.8521C159.493 93.896 159.815 93.9619 160.093 94.0498ZM173.716 118.439C171.783 118.439 170.054 118.139 168.531 117.539C167.007 116.923 165.718 116.081 164.664 115.012C163.624 113.942 162.825 112.712 162.269 111.32C161.727 109.929 161.456 108.457 161.456 106.904V106.069C161.456 104.326 161.697 102.714 162.181 101.235C162.664 99.7407 163.382 98.437 164.334 97.3237C165.286 96.2104 166.48 95.3462 167.916 94.731C169.351 94.1011 171.021 93.7861 172.925 93.7861C174.61 93.7861 176.119 94.0571 177.452 94.5991C178.785 95.1411 179.913 95.9175 180.835 96.9282C181.773 97.939 182.483 99.1621 182.967 100.598C183.465 102.033 183.714 103.645 183.714 105.432V108.442H164.29V103.806H176.485V103.234C176.5 102.443 176.36 101.77 176.067 101.213C175.789 100.656 175.379 100.231 174.837 99.9385C174.295 99.6455 173.636 99.499 172.859 99.499C172.054 99.499 171.387 99.6748 170.86 100.026C170.347 100.378 169.944 100.861 169.651 101.477C169.373 102.077 169.175 102.773 169.058 103.564C168.941 104.355 168.882 105.19 168.882 106.069V106.904C168.882 107.783 169 108.581 169.234 109.299C169.483 110.017 169.834 110.632 170.289 111.145C170.757 111.643 171.314 112.031 171.958 112.309C172.618 112.587 173.365 112.727 174.2 112.727C175.21 112.727 176.207 112.536 177.188 112.155C178.169 111.774 179.012 111.145 179.715 110.266L183.077 114.265C182.593 114.953 181.905 115.62 181.011 116.264C180.132 116.909 179.078 117.436 177.847 117.846C176.617 118.242 175.24 118.439 173.716 118.439ZM195.799 118H188.35V92.292C188.35 90.4463 188.724 88.8936 189.471 87.6338C190.218 86.374 191.272 85.4219 192.635 84.7773C193.997 84.1182 195.608 83.7886 197.469 83.7886C198.113 83.7886 198.721 83.8325 199.292 83.9204C199.864 84.0083 200.42 84.1182 200.962 84.25L200.984 89.6992C200.721 89.626 200.45 89.5747 200.171 89.5454C199.893 89.5161 199.549 89.5015 199.139 89.5015C198.421 89.5015 197.813 89.6113 197.315 89.8311C196.817 90.0361 196.436 90.3511 196.172 90.7759C195.923 91.186 195.799 91.6914 195.799 92.292V118ZM200.413 94.2256V99.3672H184.922V94.2256H200.413ZM210.542 100.114V118H203.138V94.2256H210.059L210.542 100.114ZM217.574 94.0498L217.442 100.927C217.149 100.898 216.753 100.861 216.255 100.817C215.757 100.773 215.34 100.751 215.003 100.751C214.139 100.751 213.392 100.854 212.762 101.059C212.146 101.25 211.634 101.542 211.224 101.938C210.828 102.319 210.535 102.802 210.345 103.388C210.169 103.974 210.088 104.655 210.103 105.432L208.763 104.553C208.763 102.956 208.917 101.506 209.224 100.202C209.546 98.8838 210 97.7485 210.586 96.7964C211.172 95.8296 211.883 95.0898 212.718 94.5771C213.553 94.0498 214.49 93.7861 215.53 93.7861C215.896 93.7861 216.255 93.8081 216.607 93.8521C216.973 93.896 217.295 93.9619 217.574 94.0498ZM231.812 112.023V102.224C231.812 101.55 231.717 100.971 231.526 100.488C231.336 100.004 231.036 99.6309 230.625 99.3672C230.215 99.0889 229.666 98.9497 228.978 98.9497C228.421 98.9497 227.945 99.0449 227.549 99.2354C227.154 99.4258 226.854 99.7114 226.648 100.092C226.443 100.473 226.341 100.957 226.341 101.542H218.936C218.936 100.444 219.178 99.4258 219.661 98.4883C220.159 97.5361 220.862 96.7085 221.771 96.0054C222.693 95.3022 223.792 94.7603 225.066 94.3794C226.355 93.9839 227.791 93.7861 229.373 93.7861C231.263 93.7861 232.947 94.1011 234.427 94.731C235.921 95.3608 237.1 96.3057 237.964 97.5654C238.829 98.8105 239.261 100.378 239.261 102.268V112.001C239.261 113.554 239.349 114.733 239.524 115.539C239.7 116.33 239.949 117.026 240.271 117.626V118H232.845C232.493 117.268 232.229 116.374 232.054 115.319C231.893 114.25 231.812 113.151 231.812 112.023ZM232.713 103.476L232.757 107.431H229.483C228.794 107.431 228.208 107.526 227.725 107.717C227.256 107.907 226.875 108.171 226.583 108.508C226.304 108.83 226.099 109.196 225.967 109.606C225.85 110.017 225.792 110.449 225.792 110.903C225.792 111.342 225.894 111.738 226.099 112.089C226.319 112.426 226.612 112.69 226.978 112.88C227.344 113.071 227.754 113.166 228.208 113.166C229.029 113.166 229.725 113.012 230.296 112.705C230.882 112.382 231.329 111.994 231.636 111.54C231.944 111.086 232.098 110.661 232.098 110.266L233.724 113.298C233.431 113.884 233.094 114.477 232.713 115.078C232.347 115.678 231.885 116.235 231.329 116.748C230.787 117.246 230.12 117.656 229.329 117.978C228.538 118.286 227.579 118.439 226.451 118.439C224.986 118.439 223.638 118.139 222.408 117.539C221.192 116.938 220.218 116.103 219.485 115.034C218.753 113.95 218.387 112.705 218.387 111.298C218.387 110.068 218.606 108.969 219.046 108.002C219.5 107.036 220.181 106.215 221.089 105.542C221.998 104.868 223.155 104.355 224.561 104.003C225.967 103.652 227.623 103.476 229.527 103.476H232.713ZM250.84 99.2573V118H243.436V94.2256H250.379L250.84 99.2573ZM249.939 105.3L248.248 105.344C248.248 103.674 248.445 102.136 248.841 100.729C249.236 99.3232 249.822 98.1001 250.599 97.0601C251.375 96.02 252.327 95.2144 253.455 94.6431C254.598 94.0718 255.916 93.7861 257.41 93.7861C258.45 93.7861 259.395 93.9473 260.245 94.2695C261.094 94.5771 261.827 95.0679 262.442 95.7417C263.057 96.4009 263.526 97.2651 263.848 98.3345C264.185 99.3892 264.354 100.656 264.354 102.136V118H256.949V103.081C256.949 102.07 256.832 101.308 256.597 100.795C256.377 100.283 256.055 99.9385 255.63 99.7627C255.206 99.5869 254.686 99.499 254.07 99.499C253.426 99.499 252.847 99.6455 252.334 99.9385C251.822 100.231 251.382 100.642 251.016 101.169C250.665 101.682 250.394 102.29 250.203 102.993C250.027 103.696 249.939 104.465 249.939 105.3ZM263.519 105.3L261.453 105.344C261.453 103.674 261.636 102.136 262.002 100.729C262.383 99.3232 262.947 98.1001 263.694 97.0601C264.456 96.02 265.401 95.2144 266.529 94.6431C267.657 94.0718 268.968 93.7861 270.462 93.7861C271.546 93.7861 272.542 93.9473 273.45 94.2695C274.358 94.5918 275.142 95.1118 275.801 95.8296C276.46 96.5474 276.973 97.4995 277.339 98.686C277.706 99.8579 277.889 101.308 277.889 103.037V118H270.462V103.037C270.462 102.055 270.345 101.315 270.11 100.817C269.891 100.305 269.568 99.9604 269.144 99.7847C268.719 99.5942 268.213 99.499 267.627 99.499C266.924 99.499 266.316 99.6455 265.804 99.9385C265.291 100.231 264.859 100.642 264.507 101.169C264.17 101.682 263.921 102.29 263.76 102.993C263.599 103.696 263.519 104.465 263.519 105.3ZM293.643 118.439C291.709 118.439 289.981 118.139 288.458 117.539C286.934 116.923 285.645 116.081 284.59 115.012C283.55 113.942 282.752 112.712 282.195 111.32C281.653 109.929 281.382 108.457 281.382 106.904V106.069C281.382 104.326 281.624 102.714 282.107 101.235C282.591 99.7407 283.309 98.437 284.261 97.3237C285.213 96.2104 286.407 95.3462 287.842 94.731C289.278 94.1011 290.948 93.7861 292.852 93.7861C294.537 93.7861 296.045 94.0571 297.378 94.5991C298.711 95.1411 299.839 95.9175 300.762 96.9282C301.7 97.939 302.41 99.1621 302.894 100.598C303.392 102.033 303.641 103.645 303.641 105.432V108.442H284.217V103.806H296.412V103.234C296.426 102.443 296.287 101.77 295.994 101.213C295.716 100.656 295.306 100.231 294.764 99.9385C294.222 99.6455 293.562 99.499 292.786 99.499C291.98 99.499 291.314 99.6748 290.787 100.026C290.274 100.378 289.871 100.861 289.578 101.477C289.3 102.077 289.102 102.773 288.985 103.564C288.868 104.355 288.809 105.19 288.809 106.069V106.904C288.809 107.783 288.926 108.581 289.161 109.299C289.41 110.017 289.761 110.632 290.215 111.145C290.684 111.643 291.241 112.031 291.885 112.309C292.544 112.587 293.292 112.727 294.126 112.727C295.137 112.727 296.133 112.536 297.115 112.155C298.096 111.774 298.938 111.145 299.642 110.266L303.003 114.265C302.52 114.953 301.832 115.62 300.938 116.264C300.059 116.909 299.004 117.436 297.774 117.846C296.543 118.242 295.167 118.439 293.643 118.439ZM319.109 111.32C319.109 110.91 318.97 110.559 318.692 110.266C318.428 109.958 317.959 109.68 317.286 109.431C316.612 109.167 315.667 108.903 314.451 108.64C313.294 108.391 312.203 108.061 311.177 107.651C310.167 107.241 309.28 106.743 308.519 106.157C307.757 105.571 307.156 104.875 306.717 104.069C306.292 103.264 306.08 102.341 306.08 101.301C306.08 100.29 306.292 99.3379 306.717 98.4443C307.156 97.5361 307.793 96.7378 308.628 96.0493C309.478 95.3462 310.511 94.7969 311.727 94.4014C312.942 93.9912 314.327 93.7861 315.879 93.7861C318.018 93.7861 319.864 94.1157 321.417 94.7749C322.969 95.4194 324.163 96.3276 324.998 97.4995C325.848 98.6567 326.272 99.9971 326.272 101.521H318.868C318.868 100.92 318.765 100.407 318.56 99.9824C318.37 99.5576 318.055 99.2354 317.615 99.0156C317.176 98.7812 316.59 98.6641 315.857 98.6641C315.345 98.6641 314.876 98.7593 314.451 98.9497C314.041 99.1401 313.711 99.4038 313.462 99.7407C313.213 100.078 313.089 100.473 313.089 100.927C313.089 101.25 313.162 101.542 313.309 101.806C313.47 102.055 313.711 102.29 314.034 102.509C314.356 102.714 314.766 102.905 315.264 103.081C315.762 103.242 316.363 103.388 317.066 103.52C318.663 103.813 320.157 104.23 321.548 104.772C322.94 105.314 324.068 106.083 324.932 107.08C325.811 108.076 326.25 109.416 326.25 111.101C326.25 112.155 326.009 113.129 325.525 114.023C325.042 114.902 324.346 115.678 323.438 116.352C322.53 117.011 321.438 117.524 320.164 117.89C318.89 118.256 317.454 118.439 315.857 118.439C313.587 118.439 311.668 118.037 310.101 117.231C308.533 116.411 307.347 115.385 306.541 114.155C305.75 112.91 305.354 111.65 305.354 110.375H312.254C312.283 111.108 312.459 111.708 312.781 112.177C313.118 112.646 313.565 112.99 314.122 113.21C314.678 113.43 315.323 113.54 316.055 113.54C316.729 113.54 317.286 113.444 317.725 113.254C318.179 113.063 318.523 112.807 318.758 112.485C318.992 112.148 319.109 111.76 319.109 111.32Z" fill="#424241"/>
<path d="M1363 15C1363 6.71573 1356.28 0 1348 0H1134V167H1348C1356.28 167 1363 160.284 1363 152V15Z" fill="#DD000D"/>
<path fill-rule="evenodd" clip-rule="evenodd" d="M1203 49C1203 47.8954 1203.9 47 1205 47H1292.5C1293.6 47 1294.5 47.8954 1294.5 49V118.996C1294.5 120.101 1293.6 120.996 1292.5 120.996H1205C1203.9 120.996 1203 120.101 1203 118.996V49ZM1207 51V55.4945H1290.5V51H1207ZM1290.5 59.4945H1235.44V116.996H1290.5V59.4945ZM1231.44 116.996V59.4945H1207V116.996H1231.44Z" fill="white"/>
<path fill-rule="evenodd" clip-rule="evenodd" d="M1209.97 64.8004C1209.97 63.6958 1210.87 62.8004 1211.97 62.8004H1225.97C1227.08 62.8004 1227.97 63.6958 1227.97 64.8004V84.1956C1227.97 85.3001 1227.08 86.1956 1225.97 86.1956H1211.97C1210.87 86.1956 1209.97 85.3001 1209.97 84.1956V64.8004ZM1213.97 66.8004V82.1956H1223.97V66.8004H1213.97ZM1239.58 65.6964C1239.58 64.5918 1240.47 63.6964 1241.58 63.6964H1284.5C1285.61 63.6964 1286.5 64.5918 1286.5 65.6964V111.905C1286.5 113.01 1285.61 113.905 1284.5 113.905H1241.58C1240.47 113.905 1239.58 113.01 1239.58 111.905V65.6964ZM1243.58 67.6964V109.905H1282.5V67.6964H1243.58ZM1209.81 95.9363C1209.81 94.8317 1210.71 93.9363 1211.81 93.9363H1220.73C1221.84 93.9363 1222.73 94.8317 1222.73 95.9363C1222.73 97.0409 1221.84 97.9363 1220.73 97.9363H1211.81C1210.71 97.9363 1209.81 97.0409 1209.81 95.9363ZM1209.81 102.936C1209.81 101.832 1210.71 100.936 1211.81 100.936H1226.35C1227.46 100.936 1228.35 101.832 1228.35 102.936C1228.35 104.041 1227.46 104.936 1226.35 104.936H1211.81C1210.71 104.936 1209.81 104.041 1209.81 102.936ZM1209.81 109.936C1209.81 108.832 1210.71 107.936 1211.81 107.936H1220.73C1221.84 107.936 1222.73 108.832 1222.73 109.936C1222.73 111.041 1221.84 111.936 1220.73 111.936H1211.81C1210.71 111.936 1209.81 111.041 1209.81 109.936Z" fill="white"/>
</svg>
