<svg width="1363" height="167" viewBox="0 0 1363 167" fill="none" xmlns="http://www.w3.org/2000/svg">
<rect width="1363" height="167" rx="15" fill="#F0F0F0"/>
<path d="M0 15C0 6.71573 6.71573 0 15 0H37V167H15C6.71573 167 0 160.284 0 152V15Z" fill="#424241"/>
<path d="M100.906 50.9219L93.3945 48.2383V45.0859L103.602 49.375V51.6367L100.906 50.9219ZM93.3945 53.1719L100.918 50.4297L103.602 49.7852V52.0352L93.3945 56.3242V53.1719ZM110.035 55.293L113.434 40.9375H115.332L115.766 43.3281L112.145 58H110.105L110.035 55.293ZM108.289 40.9375L111.102 55.293L110.867 58H108.594L104.809 40.9375H108.289ZM118.754 55.2344L121.531 40.9375H125.012L121.238 58H118.965L118.754 55.2344ZM116.398 40.9375L119.82 55.3516L119.727 58H117.688L114.043 43.3164L114.512 40.9375H116.398ZM133.156 55.1406V49.4922C133.156 49.0859 133.09 48.7383 132.957 48.4492C132.824 48.1523 132.617 47.9219 132.336 47.7578C132.062 47.5938 131.707 47.5117 131.27 47.5117C130.895 47.5117 130.57 47.5781 130.297 47.7109C130.023 47.8359 129.812 48.0195 129.664 48.2617C129.516 48.4961 129.441 48.7734 129.441 49.0938H126.066C126.066 48.5547 126.191 48.043 126.441 47.5586C126.691 47.0742 127.055 46.6484 127.531 46.2812C128.008 45.9062 128.574 45.6133 129.23 45.4023C129.895 45.1914 130.637 45.0859 131.457 45.0859C132.441 45.0859 133.316 45.25 134.082 45.5781C134.848 45.9062 135.449 46.3984 135.887 47.0547C136.332 47.7109 136.555 48.5312 136.555 49.5156V54.9414C136.555 55.6367 136.598 56.207 136.684 56.6523C136.77 57.0898 136.895 57.4727 137.059 57.8008V58H133.648C133.484 57.6562 133.359 57.2266 133.273 56.7109C133.195 56.1875 133.156 55.6641 133.156 55.1406ZM133.602 50.2773L133.625 52.1875H131.738C131.293 52.1875 130.906 52.2383 130.578 52.3398C130.25 52.4414 129.98 52.5859 129.77 52.7734C129.559 52.9531 129.402 53.1641 129.301 53.4062C129.207 53.6484 129.16 53.9141 129.16 54.2031C129.16 54.4922 129.227 54.7539 129.359 54.9883C129.492 55.2148 129.684 55.3945 129.934 55.5273C130.184 55.6523 130.477 55.7148 130.812 55.7148C131.32 55.7148 131.762 55.6133 132.137 55.4102C132.512 55.207 132.801 54.957 133.004 54.6602C133.215 54.3633 133.324 54.082 133.332 53.8164L134.223 55.2461C134.098 55.5664 133.926 55.8984 133.707 56.2422C133.496 56.5859 133.227 56.9102 132.898 57.2148C132.57 57.5117 132.176 57.7578 131.715 57.9531C131.254 58.1406 130.707 58.2344 130.074 58.2344C129.27 58.2344 128.539 58.0742 127.883 57.7539C127.234 57.4258 126.719 56.9766 126.336 56.4062C125.961 55.8281 125.773 55.1719 125.773 54.4375C125.773 53.7734 125.898 53.1836 126.148 52.668C126.398 52.1523 126.766 51.7188 127.25 51.3672C127.742 51.0078 128.355 50.7383 129.09 50.5586C129.824 50.3711 130.676 50.2773 131.645 50.2773H133.602ZM145.367 45.3203V47.7109H137.984V45.3203H145.367ZM139.812 42.1914H143.188V54.1797C143.188 54.5469 143.234 54.8281 143.328 55.0234C143.43 55.2188 143.578 55.3555 143.773 55.4336C143.969 55.5039 144.215 55.5391 144.512 55.5391C144.723 55.5391 144.91 55.5312 145.074 55.5156C145.246 55.4922 145.391 55.4688 145.508 55.4453L145.52 57.9297C145.23 58.0234 144.918 58.0977 144.582 58.1523C144.246 58.207 143.875 58.2344 143.469 58.2344C142.727 58.2344 142.078 58.1133 141.523 57.8711C140.977 57.6211 140.555 57.2227 140.258 56.6758C139.961 56.1289 139.812 55.4102 139.812 54.5195V42.1914ZM152.527 55.5977C152.941 55.5977 153.309 55.5195 153.629 55.3633C153.949 55.1992 154.199 54.9727 154.379 54.6836C154.566 54.3867 154.664 54.0391 154.672 53.6406H157.848C157.84 54.5312 157.602 55.3242 157.133 56.0195C156.664 56.707 156.035 57.25 155.246 57.6484C154.457 58.0391 153.574 58.2344 152.598 58.2344C151.613 58.2344 150.754 58.0703 150.02 57.7422C149.293 57.4141 148.688 56.9609 148.203 56.3828C147.719 55.7969 147.355 55.1172 147.113 54.3438C146.871 53.5625 146.75 52.7266 146.75 51.8359V51.4961C146.75 50.5977 146.871 49.7617 147.113 48.9883C147.355 48.207 147.719 47.5273 148.203 46.9492C148.688 46.3633 149.293 45.9062 150.02 45.5781C150.746 45.25 151.598 45.0859 152.574 45.0859C153.613 45.0859 154.523 45.2852 155.305 45.6836C156.094 46.082 156.711 46.6523 157.156 47.3945C157.609 48.1289 157.84 49 157.848 50.0078H154.672C154.664 49.5859 154.574 49.2031 154.402 48.8594C154.238 48.5156 153.996 48.2422 153.676 48.0391C153.363 47.8281 152.977 47.7227 152.516 47.7227C152.023 47.7227 151.621 47.8281 151.309 48.0391C150.996 48.2422 150.754 48.5234 150.582 48.8828C150.41 49.2344 150.289 49.6367 150.219 50.0898C150.156 50.5352 150.125 51.0039 150.125 51.4961V51.8359C150.125 52.3281 150.156 52.8008 150.219 53.2539C150.281 53.707 150.398 54.1094 150.57 54.4609C150.75 54.8125 150.996 55.0898 151.309 55.293C151.621 55.4961 152.027 55.5977 152.527 55.5977ZM163.098 40V58H159.723V40H163.098ZM162.617 51.2148H161.691C161.699 50.332 161.816 49.5195 162.043 48.7773C162.27 48.0273 162.594 47.3789 163.016 46.832C163.438 46.2773 163.941 45.8477 164.527 45.543C165.121 45.2383 165.777 45.0859 166.496 45.0859C167.121 45.0859 167.688 45.1758 168.195 45.3555C168.711 45.5273 169.152 45.8086 169.52 46.1992C169.895 46.582 170.184 47.0859 170.387 47.7109C170.59 48.3359 170.691 49.0938 170.691 49.9844V58H167.293V49.9609C167.293 49.3984 167.211 48.957 167.047 48.6367C166.891 48.3086 166.66 48.0781 166.355 47.9453C166.059 47.8047 165.691 47.7344 165.254 47.7344C164.77 47.7344 164.355 47.8242 164.012 48.0039C163.676 48.1836 163.406 48.4336 163.203 48.7539C163 49.0664 162.852 49.4336 162.758 49.8555C162.664 50.2773 162.617 50.7305 162.617 51.2148ZM187.484 49.0703V49.8789C187.484 51.1758 187.309 52.3398 186.957 53.3711C186.605 54.4023 186.109 55.2812 185.469 56.0078C184.828 56.7266 184.062 57.2773 183.172 57.6602C182.289 58.043 181.309 58.2344 180.23 58.2344C179.16 58.2344 178.18 58.043 177.289 57.6602C176.406 57.2773 175.641 56.7266 174.992 56.0078C174.344 55.2812 173.84 54.4023 173.48 53.3711C173.129 52.3398 172.953 51.1758 172.953 49.8789V49.0703C172.953 47.7656 173.129 46.6016 173.48 45.5781C173.832 44.5469 174.328 43.668 174.969 42.9414C175.617 42.2148 176.383 41.6602 177.266 41.2773C178.156 40.8945 179.137 40.7031 180.207 40.7031C181.285 40.7031 182.266 40.8945 183.148 41.2773C184.039 41.6602 184.805 42.2148 185.445 42.9414C186.094 43.668 186.594 44.5469 186.945 45.5781C187.305 46.6016 187.484 47.7656 187.484 49.0703ZM183.934 49.8789V49.0469C183.934 48.1406 183.852 47.3438 183.688 46.6562C183.523 45.9688 183.281 45.3906 182.961 44.9219C182.641 44.4531 182.25 44.1016 181.789 43.8672C181.328 43.625 180.801 43.5039 180.207 43.5039C179.613 43.5039 179.086 43.625 178.625 43.8672C178.172 44.1016 177.785 44.4531 177.465 44.9219C177.152 45.3906 176.914 45.9688 176.75 46.6562C176.586 47.3438 176.504 48.1406 176.504 49.0469V49.8789C176.504 50.7773 176.586 51.5742 176.75 52.2695C176.914 52.957 177.156 53.5391 177.477 54.0156C177.797 54.4844 178.188 54.8398 178.648 55.082C179.109 55.3242 179.637 55.4453 180.23 55.4453C180.824 55.4453 181.352 55.3242 181.812 55.082C182.273 54.8398 182.66 54.4844 182.973 54.0156C183.285 53.5391 183.523 52.957 183.688 52.2695C183.852 51.5742 183.934 50.7773 183.934 49.8789ZM197.305 54.9648V45.3203H200.68V58H197.504L197.305 54.9648ZM197.68 52.3633L198.676 52.3398C198.676 53.1836 198.578 53.9688 198.383 54.6953C198.188 55.4141 197.895 56.0391 197.504 56.5703C197.113 57.0938 196.621 57.5039 196.027 57.8008C195.434 58.0898 194.734 58.2344 193.93 58.2344C193.312 58.2344 192.742 58.1484 192.219 57.9766C191.703 57.7969 191.258 57.5195 190.883 57.1445C190.516 56.7617 190.227 56.2734 190.016 55.6797C189.812 55.0781 189.711 54.3555 189.711 53.5117V45.3203H193.086V53.5352C193.086 53.9102 193.129 54.2266 193.215 54.4844C193.309 54.7422 193.438 54.9531 193.602 55.1172C193.766 55.2812 193.957 55.3984 194.176 55.4688C194.402 55.5391 194.652 55.5742 194.926 55.5742C195.621 55.5742 196.168 55.4336 196.566 55.1523C196.973 54.8711 197.258 54.4883 197.422 54.0039C197.594 53.5117 197.68 52.9648 197.68 52.3633ZM209.469 45.3203V47.7109H202.086V45.3203H209.469ZM203.914 42.1914H207.289V54.1797C207.289 54.5469 207.336 54.8281 207.43 55.0234C207.531 55.2188 207.68 55.3555 207.875 55.4336C208.07 55.5039 208.316 55.5391 208.613 55.5391C208.824 55.5391 209.012 55.5312 209.176 55.5156C209.348 55.4922 209.492 55.4688 209.609 55.4453L209.621 57.9297C209.332 58.0234 209.02 58.0977 208.684 58.1523C208.348 58.207 207.977 58.2344 207.57 58.2344C206.828 58.2344 206.18 58.1133 205.625 57.8711C205.078 57.6211 204.656 57.2227 204.359 56.6758C204.062 56.1289 203.914 55.4102 203.914 54.5195V42.1914ZM215.199 40.9375L214.812 52.7852H212L211.602 40.9375H215.199ZM211.508 56.4531C211.508 55.9531 211.68 55.5391 212.023 55.2109C212.375 54.875 212.836 54.707 213.406 54.707C213.984 54.707 214.445 54.875 214.789 55.2109C215.133 55.5391 215.305 55.9531 215.305 56.4531C215.305 56.9375 215.133 57.3477 214.789 57.6836C214.445 58.0195 213.984 58.1875 213.406 58.1875C212.836 58.1875 212.375 58.0195 212.023 57.6836C211.68 57.3477 211.508 56.9375 211.508 56.4531Z" fill="#888888"/>
<path d="M115.994 98.708V104.641H99.5806V98.708H115.994ZM102.151 86.0078V118H94.439V86.0078H102.151ZM121.18 86.0078V118H113.489V86.0078H121.18ZM124.805 106.354V105.893C124.805 104.15 125.054 102.546 125.552 101.081C126.05 99.6016 126.783 98.3198 127.75 97.2358C128.716 96.1519 129.91 95.3096 131.331 94.709C132.752 94.0938 134.393 93.7861 136.253 93.7861C138.128 93.7861 139.776 94.0938 141.197 94.709C142.632 95.3096 143.833 96.1519 144.8 97.2358C145.767 98.3198 146.5 99.6016 146.998 101.081C147.496 102.546 147.745 104.15 147.745 105.893V106.354C147.745 108.083 147.496 109.687 146.998 111.167C146.5 112.631 145.767 113.913 144.8 115.012C143.833 116.096 142.64 116.938 141.219 117.539C139.798 118.139 138.157 118.439 136.297 118.439C134.437 118.439 132.789 118.139 131.353 117.539C129.917 116.938 128.716 116.096 127.75 115.012C126.783 113.913 126.05 112.631 125.552 111.167C125.054 109.687 124.805 108.083 124.805 106.354ZM132.21 105.893V106.354C132.21 107.248 132.276 108.083 132.408 108.859C132.54 109.636 132.759 110.317 133.067 110.903C133.375 111.474 133.792 111.921 134.319 112.243C134.847 112.565 135.506 112.727 136.297 112.727C137.073 112.727 137.718 112.565 138.23 112.243C138.758 111.921 139.175 111.474 139.483 110.903C139.791 110.317 140.01 109.636 140.142 108.859C140.274 108.083 140.34 107.248 140.34 106.354V105.893C140.34 105.029 140.274 104.216 140.142 103.454C140.01 102.678 139.791 101.997 139.483 101.411C139.175 100.81 138.758 100.341 138.23 100.004C137.703 99.6675 137.044 99.499 136.253 99.499C135.477 99.499 134.825 99.6675 134.297 100.004C133.785 100.341 133.375 100.81 133.067 101.411C132.759 101.997 132.54 102.678 132.408 103.454C132.276 104.216 132.21 105.029 132.21 105.893ZM158.27 110.925L162.664 94.2256H167.3L165.652 102.597L161.302 118H157.588L158.27 110.925ZM156.534 94.2256L159.258 110.793L159.566 118H155.062L149.437 94.2256H156.534ZM171.211 110.441L173.958 94.2256H181.055L175.474 118H170.97L171.211 110.441ZM167.828 94.2256L172.266 110.881L172.947 118H169.19L164.927 102.641L163.345 94.2256H167.828ZM209.466 86.0078V118H201.753V86.0078H209.466ZM219.09 86.0078V91.9624H192.349V86.0078H219.09ZM216.475 106.354V105.893C216.475 104.15 216.724 102.546 217.222 101.081C217.72 99.6016 218.453 98.3198 219.419 97.2358C220.386 96.1519 221.58 95.3096 223.001 94.709C224.422 94.0938 226.062 93.7861 227.923 93.7861C229.798 93.7861 231.446 94.0938 232.867 94.709C234.302 95.3096 235.503 96.1519 236.47 97.2358C237.437 98.3198 238.169 99.6016 238.667 101.081C239.166 102.546 239.415 104.15 239.415 105.893V106.354C239.415 108.083 239.166 109.687 238.667 111.167C238.169 112.631 237.437 113.913 236.47 115.012C235.503 116.096 234.31 116.938 232.889 117.539C231.468 118.139 229.827 118.439 227.967 118.439C226.106 118.439 224.458 118.139 223.023 117.539C221.587 116.938 220.386 116.096 219.419 115.012C218.453 113.913 217.72 112.631 217.222 111.167C216.724 109.687 216.475 108.083 216.475 106.354ZM223.88 105.893V106.354C223.88 107.248 223.946 108.083 224.078 108.859C224.209 109.636 224.429 110.317 224.737 110.903C225.044 111.474 225.462 111.921 225.989 112.243C226.517 112.565 227.176 112.727 227.967 112.727C228.743 112.727 229.388 112.565 229.9 112.243C230.428 111.921 230.845 111.474 231.153 110.903C231.46 110.317 231.68 109.636 231.812 108.859C231.944 108.083 232.01 107.248 232.01 106.354V105.893C232.01 105.029 231.944 104.216 231.812 103.454C231.68 102.678 231.46 101.997 231.153 101.411C230.845 100.81 230.428 100.341 229.9 100.004C229.373 99.6675 228.714 99.499 227.923 99.499C227.146 99.499 226.495 99.6675 225.967 100.004C225.455 100.341 225.044 100.81 224.737 101.411C224.429 101.997 224.209 102.678 224.078 103.454C223.946 104.216 223.88 105.029 223.88 105.893ZM254.268 86.0078H266.858C269.319 86.0078 271.458 86.374 273.274 87.1064C275.091 87.8389 276.49 88.9229 277.471 90.3584C278.467 91.7939 278.965 93.5664 278.965 95.6758C278.965 97.5068 278.68 99.0376 278.108 100.268C277.537 101.499 276.739 102.517 275.713 103.322C274.703 104.113 273.523 104.765 272.176 105.278L269.649 106.706H259.08L259.036 100.751H266.858C267.84 100.751 268.653 100.576 269.297 100.224C269.942 99.8726 270.425 99.3745 270.748 98.73C271.084 98.0708 271.253 97.2871 271.253 96.3789C271.253 95.4561 271.084 94.665 270.748 94.0059C270.411 93.3467 269.913 92.8413 269.253 92.4897C268.609 92.1382 267.811 91.9624 266.858 91.9624H261.98V118H254.268V86.0078ZM271.78 118L264.705 103.85L272.879 103.806L280.042 117.67V118H271.78ZM297.159 112.221V94.2256H304.585V118H297.642L297.159 112.221ZM297.862 107.387L299.795 107.343C299.795 108.94 299.605 110.419 299.224 111.782C298.843 113.129 298.279 114.301 297.532 115.297C296.8 116.293 295.892 117.07 294.808 117.626C293.738 118.168 292.5 118.439 291.094 118.439C289.922 118.439 288.846 118.278 287.864 117.956C286.897 117.619 286.062 117.099 285.359 116.396C284.656 115.678 284.107 114.763 283.711 113.649C283.331 112.521 283.14 111.174 283.14 109.606V94.2256H290.545V109.65C290.545 110.178 290.611 110.632 290.743 111.013C290.875 111.394 291.065 111.716 291.314 111.979C291.563 112.229 291.871 112.419 292.237 112.551C292.618 112.668 293.05 112.727 293.533 112.727C294.646 112.727 295.518 112.492 296.148 112.023C296.778 111.555 297.217 110.917 297.466 110.112C297.73 109.306 297.862 108.398 297.862 107.387ZM315.945 99.3013V118H308.541V94.2256H315.484L315.945 99.3013ZM315.066 105.3L313.331 105.344C313.331 103.527 313.55 101.909 313.99 100.488C314.429 99.0522 315.052 97.8364 315.857 96.8403C316.663 95.8442 317.623 95.0898 318.736 94.5771C319.864 94.0498 321.116 93.7861 322.493 93.7861C323.592 93.7861 324.595 93.9473 325.503 94.2695C326.426 94.5918 327.217 95.1118 327.876 95.8296C328.55 96.5474 329.063 97.4995 329.415 98.686C329.781 99.8579 329.964 101.308 329.964 103.037V118H322.515V103.015C322.515 102.062 322.383 101.337 322.12 100.839C321.856 100.327 321.475 99.9751 320.977 99.7847C320.479 99.5942 319.871 99.499 319.153 99.499C318.392 99.499 317.747 99.6455 317.22 99.9385C316.692 100.231 316.268 100.642 315.945 101.169C315.638 101.682 315.411 102.29 315.264 102.993C315.132 103.696 315.066 104.465 315.066 105.3ZM345.85 107.871H339.544C339.544 106.582 339.632 105.446 339.808 104.465C339.998 103.469 340.32 102.575 340.774 101.784C341.229 100.993 341.844 100.261 342.62 99.5869C343.309 99.0156 343.902 98.4663 344.4 97.939C344.898 97.4116 345.279 96.877 345.542 96.335C345.806 95.793 345.938 95.2144 345.938 94.5991C345.938 93.8374 345.828 93.2148 345.608 92.7314C345.403 92.248 345.088 91.8892 344.664 91.6548C344.253 91.4058 343.733 91.2812 343.104 91.2812C342.591 91.2812 342.107 91.4058 341.653 91.6548C341.214 91.9038 340.855 92.292 340.577 92.8193C340.298 93.332 340.145 94.0132 340.115 94.8628H332.667C332.71 92.6802 333.194 90.9077 334.117 89.5454C335.054 88.1685 336.299 87.165 337.852 86.5352C339.419 85.8906 341.17 85.5684 343.104 85.5684C345.242 85.5684 347.081 85.8979 348.619 86.5571C350.157 87.2163 351.336 88.1978 352.156 89.5015C352.977 90.7905 353.387 92.3799 353.387 94.2695C353.387 95.5293 353.145 96.6279 352.662 97.5654C352.193 98.4883 351.556 99.3525 350.75 100.158C349.959 100.949 349.073 101.799 348.091 102.707C347.242 103.454 346.663 104.216 346.355 104.992C346.048 105.754 345.879 106.713 345.85 107.871ZM338.643 114.55C338.643 113.496 339.024 112.617 339.786 111.914C340.547 111.196 341.536 110.837 342.752 110.837C343.968 110.837 344.957 111.196 345.718 111.914C346.48 112.617 346.861 113.496 346.861 114.55C346.861 115.605 346.48 116.491 345.718 117.209C344.957 117.912 343.968 118.264 342.752 118.264C341.536 118.264 340.547 117.912 339.786 117.209C339.024 116.491 338.643 115.605 338.643 114.55Z" fill="#424241"/>
<path d="M1363 15C1363 6.71573 1356.28 0 1348 0H1134V167H1348C1356.28 167 1363 160.284 1363 152V15Z" fill="#DD000D"/>
<path d="M1260.77 81.3079C1263.96 81.3079 1267.09 82.2553 1269.74 84.0303C1272.4 85.8053 1274.47 88.3282 1275.69 91.2799C1276.92 94.2316 1277.24 97.4796 1276.61 100.613C1275.99 103.747 1274.45 106.625 1272.19 108.884C1269.93 111.143 1267.05 112.682 1263.92 113.305C1260.79 113.928 1257.54 113.608 1254.59 112.386C1251.64 111.163 1249.11 109.093 1247.34 106.436C1245.56 103.78 1244.62 100.657 1244.62 97.4617C1244.62 93.1774 1246.32 89.0686 1249.35 86.0392C1252.38 83.0098 1256.48 81.3079 1260.77 81.3079V81.3079ZM1260.77 75.9233C1256.51 75.9233 1252.35 77.1865 1248.8 79.5532C1245.26 81.9198 1242.5 85.2837 1240.87 89.2193C1239.24 93.1549 1238.81 97.4856 1239.64 101.664C1240.48 105.842 1242.53 109.679 1245.54 112.692C1248.55 115.704 1252.39 117.755 1256.57 118.586C1260.75 119.417 1265.08 118.991 1269.01 117.361C1272.95 115.73 1276.31 112.97 1278.68 109.428C1281.04 105.886 1282.31 101.722 1282.31 97.4617C1282.31 91.7493 1280.04 86.271 1276 82.2317C1271.96 78.1925 1266.48 75.9233 1260.77 75.9233Z" fill="white"/>
<path d="M1274.23 49H1220.38C1218.96 49 1217.59 49.5673 1216.58 50.5771C1215.57 51.5869 1215 52.9565 1215 54.3846V108.231C1215 109.659 1215.57 111.028 1216.58 112.038C1217.59 113.048 1218.96 113.615 1220.38 113.615H1231.15V108.231H1220.38V70.5384H1279.62V54.3846C1279.62 52.9565 1279.05 51.5869 1278.04 50.5771C1277.03 49.5673 1275.66 49 1274.23 49V49ZM1220.38 65.1538V54.3846H1274.23V65.1538H1220.38Z" fill="white"/>
<path d="M1255.38 89.3849V105.539L1268.85 97.4618L1255.38 89.3849Z" fill="white"/>
</svg>
