<svg width="1363" height="167" viewBox="0 0 1363 167" fill="none" xmlns="http://www.w3.org/2000/svg">
<rect width="1363" height="167" rx="15" fill="#F0F0F0"/>
<path d="M0 15C0 6.71573 6.71573 0 15 0H37V167H15C6.71573 167 0 160.284 0 152V15Z" fill="#424241"/>
<path d="M100.906 50.9219L93.3945 48.2383V45.0859L103.602 49.375V51.6367L100.906 50.9219ZM93.3945 53.1719L100.918 50.4297L103.602 49.7852V52.0352L93.3945 56.3242V53.1719ZM118.543 51.918H114.195V49.1758H118.543C119.215 49.1758 119.762 49.0664 120.184 48.8477C120.605 48.6211 120.914 48.3086 121.109 47.9102C121.305 47.5117 121.402 47.0625 121.402 46.5625C121.402 46.0547 121.305 45.582 121.109 45.1445C120.914 44.707 120.605 44.3555 120.184 44.0898C119.762 43.8242 119.215 43.6914 118.543 43.6914H115.414V58H111.898V40.9375H118.543C119.879 40.9375 121.023 41.1797 121.977 41.6641C122.938 42.1406 123.672 42.8008 124.18 43.6445C124.688 44.4883 124.941 45.4531 124.941 46.5391C124.941 47.6406 124.688 48.5938 124.18 49.3984C123.672 50.2031 122.938 50.8242 121.977 51.2617C121.023 51.6992 119.879 51.918 118.543 51.918ZM138.816 55.2578V58H129.734V55.2578H138.816ZM130.883 40.9375V58H127.367V40.9375H130.883ZM137.633 47.8867V50.5586H129.734V47.8867H137.633ZM138.805 40.9375V43.6914H129.734V40.9375H138.805ZM152.316 55.2578V58H143.234V55.2578H152.316ZM144.383 40.9375V58H140.867V40.9375H144.383ZM151.133 47.8867V50.5586H143.234V47.8867H151.133ZM152.305 40.9375V43.6914H143.234V40.9375H152.305ZM157.883 40.9375V58H154.367V40.9375H157.883ZM168.102 40.9375L161.34 49.3633L157.438 53.5586L156.805 50.2305L159.441 46.6211L163.789 40.9375H168.102ZM164.105 58L159.078 50.1133L161.68 47.9336L168.266 58H164.105ZM176.562 43.8555L171.922 58H168.184L174.523 40.9375H176.902L176.562 43.8555ZM180.418 58L175.766 43.8555L175.391 40.9375H177.793L184.168 58H180.418ZM180.207 51.6484V54.4023H171.195V51.6484H180.207ZM192.43 50.5117H188.047L188.023 48.0977H191.703C192.352 48.0977 192.883 48.0156 193.297 47.8516C193.711 47.6797 194.02 47.4336 194.223 47.1133C194.434 46.7852 194.539 46.3867 194.539 45.918C194.539 45.3867 194.438 44.957 194.234 44.6289C194.039 44.3008 193.73 44.0625 193.309 43.9141C192.895 43.7656 192.359 43.6914 191.703 43.6914H189.266V58H185.75V40.9375H191.703C192.695 40.9375 193.582 41.0312 194.363 41.2188C195.152 41.4062 195.82 41.6914 196.367 42.0742C196.914 42.457 197.332 42.9414 197.621 43.5273C197.91 44.1055 198.055 44.793 198.055 45.5898C198.055 46.293 197.895 46.9414 197.574 47.5352C197.262 48.1289 196.766 48.6133 196.086 48.9883C195.414 49.3633 194.535 49.5703 193.449 49.6094L192.43 50.5117ZM192.277 58H187.086L188.457 55.2578H192.277C192.895 55.2578 193.398 55.1602 193.789 54.9648C194.18 54.7617 194.469 54.4883 194.656 54.1445C194.844 53.8008 194.938 53.4062 194.938 52.9609C194.938 52.4609 194.852 52.0273 194.68 51.6602C194.516 51.293 194.25 51.0117 193.883 50.8164C193.516 50.6133 193.031 50.5117 192.43 50.5117H189.043L189.066 48.0977H193.285L194.094 49.0469C195.133 49.0312 195.969 49.2148 196.602 49.5977C197.242 49.9727 197.707 50.4609 197.996 51.0625C198.293 51.6641 198.441 52.3086 198.441 52.9961C198.441 54.0898 198.203 55.0117 197.727 55.7617C197.25 56.5039 196.551 57.0625 195.629 57.4375C194.715 57.8125 193.598 58 192.277 58ZM215.094 49.0703V49.8789C215.094 51.1758 214.918 52.3398 214.566 53.3711C214.215 54.4023 213.719 55.2812 213.078 56.0078C212.438 56.7266 211.672 57.2773 210.781 57.6602C209.898 58.043 208.918 58.2344 207.84 58.2344C206.77 58.2344 205.789 58.043 204.898 57.6602C204.016 57.2773 203.25 56.7266 202.602 56.0078C201.953 55.2812 201.449 54.4023 201.09 53.3711C200.738 52.3398 200.562 51.1758 200.562 49.8789V49.0703C200.562 47.7656 200.738 46.6016 201.09 45.5781C201.441 44.5469 201.938 43.668 202.578 42.9414C203.227 42.2148 203.992 41.6602 204.875 41.2773C205.766 40.8945 206.746 40.7031 207.816 40.7031C208.895 40.7031 209.875 40.8945 210.758 41.2773C211.648 41.6602 212.414 42.2148 213.055 42.9414C213.703 43.668 214.203 44.5469 214.555 45.5781C214.914 46.6016 215.094 47.7656 215.094 49.0703ZM211.543 49.8789V49.0469C211.543 48.1406 211.461 47.3438 211.297 46.6562C211.133 45.9688 210.891 45.3906 210.57 44.9219C210.25 44.4531 209.859 44.1016 209.398 43.8672C208.938 43.625 208.41 43.5039 207.816 43.5039C207.223 43.5039 206.695 43.625 206.234 43.8672C205.781 44.1016 205.395 44.4531 205.074 44.9219C204.762 45.3906 204.523 45.9688 204.359 46.6562C204.195 47.3438 204.113 48.1406 204.113 49.0469V49.8789C204.113 50.7773 204.195 51.5742 204.359 52.2695C204.523 52.957 204.766 53.5391 205.086 54.0156C205.406 54.4844 205.797 54.8398 206.258 55.082C206.719 55.3242 207.246 55.4453 207.84 55.4453C208.434 55.4453 208.961 55.3242 209.422 55.082C209.883 54.8398 210.27 54.4844 210.582 54.0156C210.895 53.5391 211.133 52.957 211.297 52.2695C211.461 51.5742 211.543 50.7773 211.543 49.8789ZM231.641 49.0703V49.8789C231.641 51.1758 231.465 52.3398 231.113 53.3711C230.762 54.4023 230.266 55.2812 229.625 56.0078C228.984 56.7266 228.219 57.2773 227.328 57.6602C226.445 58.043 225.465 58.2344 224.387 58.2344C223.316 58.2344 222.336 58.043 221.445 57.6602C220.562 57.2773 219.797 56.7266 219.148 56.0078C218.5 55.2812 217.996 54.4023 217.637 53.3711C217.285 52.3398 217.109 51.1758 217.109 49.8789V49.0703C217.109 47.7656 217.285 46.6016 217.637 45.5781C217.988 44.5469 218.484 43.668 219.125 42.9414C219.773 42.2148 220.539 41.6602 221.422 41.2773C222.312 40.8945 223.293 40.7031 224.363 40.7031C225.441 40.7031 226.422 40.8945 227.305 41.2773C228.195 41.6602 228.961 42.2148 229.602 42.9414C230.25 43.668 230.75 44.5469 231.102 45.5781C231.461 46.6016 231.641 47.7656 231.641 49.0703ZM228.09 49.8789V49.0469C228.09 48.1406 228.008 47.3438 227.844 46.6562C227.68 45.9688 227.438 45.3906 227.117 44.9219C226.797 44.4531 226.406 44.1016 225.945 43.8672C225.484 43.625 224.957 43.5039 224.363 43.5039C223.77 43.5039 223.242 43.625 222.781 43.8672C222.328 44.1016 221.941 44.4531 221.621 44.9219C221.309 45.3906 221.07 45.9688 220.906 46.6562C220.742 47.3438 220.66 48.1406 220.66 49.0469V49.8789C220.66 50.7773 220.742 51.5742 220.906 52.2695C221.07 52.957 221.312 53.5391 221.633 54.0156C221.953 54.4844 222.344 54.8398 222.805 55.082C223.266 55.3242 223.793 55.4453 224.387 55.4453C224.98 55.4453 225.508 55.3242 225.969 55.082C226.43 54.8398 226.816 54.4844 227.129 54.0156C227.441 53.5391 227.68 52.957 227.844 52.2695C228.008 51.5742 228.09 50.7773 228.09 49.8789Z" fill="#888888"/>
<path d="M115.994 98.708V104.641H99.5806V98.708H115.994ZM102.151 86.0078V118H94.439V86.0078H102.151ZM121.18 86.0078V118H113.489V86.0078H121.18ZM124.805 106.354V105.893C124.805 104.15 125.054 102.546 125.552 101.081C126.05 99.6016 126.783 98.3198 127.75 97.2358C128.716 96.1519 129.91 95.3096 131.331 94.709C132.752 94.0938 134.393 93.7861 136.253 93.7861C138.128 93.7861 139.776 94.0938 141.197 94.709C142.632 95.3096 143.833 96.1519 144.8 97.2358C145.767 98.3198 146.5 99.6016 146.998 101.081C147.496 102.546 147.745 104.15 147.745 105.893V106.354C147.745 108.083 147.496 109.687 146.998 111.167C146.5 112.631 145.767 113.913 144.8 115.012C143.833 116.096 142.64 116.938 141.219 117.539C139.798 118.139 138.157 118.439 136.297 118.439C134.437 118.439 132.789 118.139 131.353 117.539C129.917 116.938 128.716 116.096 127.75 115.012C126.783 113.913 126.05 112.631 125.552 111.167C125.054 109.687 124.805 108.083 124.805 106.354ZM132.21 105.893V106.354C132.21 107.248 132.276 108.083 132.408 108.859C132.54 109.636 132.759 110.317 133.067 110.903C133.375 111.474 133.792 111.921 134.319 112.243C134.847 112.565 135.506 112.727 136.297 112.727C137.073 112.727 137.718 112.565 138.23 112.243C138.758 111.921 139.175 111.474 139.483 110.903C139.791 110.317 140.01 109.636 140.142 108.859C140.274 108.083 140.34 107.248 140.34 106.354V105.893C140.34 105.029 140.274 104.216 140.142 103.454C140.01 102.678 139.791 101.997 139.483 101.411C139.175 100.81 138.758 100.341 138.23 100.004C137.703 99.6675 137.044 99.499 136.253 99.499C135.477 99.499 134.825 99.6675 134.297 100.004C133.785 100.341 133.375 100.81 133.067 101.411C132.759 101.997 132.54 102.678 132.408 103.454C132.276 104.216 132.21 105.029 132.21 105.893ZM158.27 110.925L162.664 94.2256H167.3L165.652 102.597L161.302 118H157.588L158.27 110.925ZM156.534 94.2256L159.258 110.793L159.566 118H155.062L149.437 94.2256H156.534ZM171.211 110.441L173.958 94.2256H181.055L175.474 118H170.97L171.211 110.441ZM167.828 94.2256L172.266 110.881L172.947 118H169.19L164.927 102.641L163.345 94.2256H167.828ZM209.466 86.0078V118H201.753V86.0078H209.466ZM219.09 86.0078V91.9624H192.349V86.0078H219.09ZM216.475 106.354V105.893C216.475 104.15 216.724 102.546 217.222 101.081C217.72 99.6016 218.453 98.3198 219.419 97.2358C220.386 96.1519 221.58 95.3096 223.001 94.709C224.422 94.0938 226.062 93.7861 227.923 93.7861C229.798 93.7861 231.446 94.0938 232.867 94.709C234.302 95.3096 235.503 96.1519 236.47 97.2358C237.437 98.3198 238.169 99.6016 238.667 101.081C239.166 102.546 239.415 104.15 239.415 105.893V106.354C239.415 108.083 239.166 109.687 238.667 111.167C238.169 112.631 237.437 113.913 236.47 115.012C235.503 116.096 234.31 116.938 232.889 117.539C231.468 118.139 229.827 118.439 227.967 118.439C226.106 118.439 224.458 118.139 223.023 117.539C221.587 116.938 220.386 116.096 219.419 115.012C218.453 113.913 217.72 112.631 217.222 111.167C216.724 109.687 216.475 108.083 216.475 106.354ZM223.88 105.893V106.354C223.88 107.248 223.946 108.083 224.078 108.859C224.209 109.636 224.429 110.317 224.737 110.903C225.044 111.474 225.462 111.921 225.989 112.243C226.517 112.565 227.176 112.727 227.967 112.727C228.743 112.727 229.388 112.565 229.9 112.243C230.428 111.921 230.845 111.474 231.153 110.903C231.46 110.317 231.68 109.636 231.812 108.859C231.944 108.083 232.01 107.248 232.01 106.354V105.893C232.01 105.029 231.944 104.216 231.812 103.454C231.68 102.678 231.46 101.997 231.153 101.411C230.845 100.81 230.428 100.341 229.9 100.004C229.373 99.6675 228.714 99.499 227.923 99.499C227.146 99.499 226.495 99.6675 225.967 100.004C225.455 100.341 225.044 100.81 224.737 101.411C224.429 101.997 224.209 102.678 224.078 103.454C223.946 104.216 223.88 105.029 223.88 105.893ZM254.268 86.0078H266.858C269.319 86.0078 271.458 86.374 273.274 87.1064C275.091 87.8389 276.49 88.9229 277.471 90.3584C278.467 91.7939 278.965 93.5664 278.965 95.6758C278.965 97.5068 278.68 99.0376 278.108 100.268C277.537 101.499 276.739 102.517 275.713 103.322C274.703 104.113 273.523 104.765 272.176 105.278L269.649 106.706H259.08L259.036 100.751H266.858C267.84 100.751 268.653 100.576 269.297 100.224C269.942 99.8726 270.425 99.3745 270.748 98.73C271.084 98.0708 271.253 97.2871 271.253 96.3789C271.253 95.4561 271.084 94.665 270.748 94.0059C270.411 93.3467 269.913 92.8413 269.253 92.4897C268.609 92.1382 267.811 91.9624 266.858 91.9624H261.98V118H254.268V86.0078ZM271.78 118L264.705 103.85L272.879 103.806L280.042 117.67V118H271.78ZM297.159 112.221V94.2256H304.585V118H297.642L297.159 112.221ZM297.862 107.387L299.795 107.343C299.795 108.94 299.605 110.419 299.224 111.782C298.843 113.129 298.279 114.301 297.532 115.297C296.8 116.293 295.892 117.07 294.808 117.626C293.738 118.168 292.5 118.439 291.094 118.439C289.922 118.439 288.846 118.278 287.864 117.956C286.897 117.619 286.062 117.099 285.359 116.396C284.656 115.678 284.107 114.763 283.711 113.649C283.331 112.521 283.14 111.174 283.14 109.606V94.2256H290.545V109.65C290.545 110.178 290.611 110.632 290.743 111.013C290.875 111.394 291.065 111.716 291.314 111.979C291.563 112.229 291.871 112.419 292.237 112.551C292.618 112.668 293.05 112.727 293.533 112.727C294.646 112.727 295.518 112.492 296.148 112.023C296.778 111.555 297.217 110.917 297.466 110.112C297.73 109.306 297.862 108.398 297.862 107.387ZM315.945 99.3013V118H308.541V94.2256H315.484L315.945 99.3013ZM315.066 105.3L313.331 105.344C313.331 103.527 313.55 101.909 313.99 100.488C314.429 99.0522 315.052 97.8364 315.857 96.8403C316.663 95.8442 317.623 95.0898 318.736 94.5771C319.864 94.0498 321.116 93.7861 322.493 93.7861C323.592 93.7861 324.595 93.9473 325.503 94.2695C326.426 94.5918 327.217 95.1118 327.876 95.8296C328.55 96.5474 329.063 97.4995 329.415 98.686C329.781 99.8579 329.964 101.308 329.964 103.037V118H322.515V103.015C322.515 102.062 322.383 101.337 322.12 100.839C321.856 100.327 321.475 99.9751 320.977 99.7847C320.479 99.5942 319.871 99.499 319.153 99.499C318.392 99.499 317.747 99.6455 317.22 99.9385C316.692 100.231 316.268 100.642 315.945 101.169C315.638 101.682 315.411 102.29 315.264 102.993C315.132 103.696 315.066 104.465 315.066 105.3ZM345.85 107.871H339.544C339.544 106.582 339.632 105.446 339.808 104.465C339.998 103.469 340.32 102.575 340.774 101.784C341.229 100.993 341.844 100.261 342.62 99.5869C343.309 99.0156 343.902 98.4663 344.4 97.939C344.898 97.4116 345.279 96.877 345.542 96.335C345.806 95.793 345.938 95.2144 345.938 94.5991C345.938 93.8374 345.828 93.2148 345.608 92.7314C345.403 92.248 345.088 91.8892 344.664 91.6548C344.253 91.4058 343.733 91.2812 343.104 91.2812C342.591 91.2812 342.107 91.4058 341.653 91.6548C341.214 91.9038 340.855 92.292 340.577 92.8193C340.298 93.332 340.145 94.0132 340.115 94.8628H332.667C332.71 92.6802 333.194 90.9077 334.117 89.5454C335.054 88.1685 336.299 87.165 337.852 86.5352C339.419 85.8906 341.17 85.5684 343.104 85.5684C345.242 85.5684 347.081 85.8979 348.619 86.5571C350.157 87.2163 351.336 88.1978 352.156 89.5015C352.977 90.7905 353.387 92.3799 353.387 94.2695C353.387 95.5293 353.145 96.6279 352.662 97.5654C352.193 98.4883 351.556 99.3525 350.75 100.158C349.959 100.949 349.073 101.799 348.091 102.707C347.242 103.454 346.663 104.216 346.355 104.992C346.048 105.754 345.879 106.713 345.85 107.871ZM338.643 114.55C338.643 113.496 339.024 112.617 339.786 111.914C340.547 111.196 341.536 110.837 342.752 110.837C343.968 110.837 344.957 111.196 345.718 111.914C346.48 112.617 346.861 113.496 346.861 114.55C346.861 115.605 346.48 116.491 345.718 117.209C344.957 117.912 343.968 118.264 342.752 118.264C341.536 118.264 340.547 117.912 339.786 117.209C339.024 116.491 338.643 115.605 338.643 114.55Z" fill="#424241"/>
<path d="M1363 15C1363 6.71573 1356.28 0 1348 0H1134V167H1348C1356.28 167 1363 160.284 1363 152V15Z" fill="#792DC4"/>
<path d="M1260.77 81.3079C1263.96 81.3079 1267.09 82.2553 1269.74 84.0303C1272.4 85.8053 1274.47 88.3282 1275.69 91.2799C1276.92 94.2316 1277.24 97.4796 1276.61 100.613C1275.99 103.747 1274.45 106.625 1272.19 108.884C1269.93 111.143 1267.05 112.682 1263.92 113.305C1260.79 113.928 1257.54 113.608 1254.59 112.386C1251.64 111.163 1249.11 109.093 1247.34 106.436C1245.56 103.78 1244.62 100.657 1244.62 97.4617C1244.62 93.1774 1246.32 89.0686 1249.35 86.0392C1252.38 83.0098 1256.48 81.3079 1260.77 81.3079ZM1260.77 75.9233C1256.51 75.9233 1252.35 77.1865 1248.8 79.5532C1245.26 81.9198 1242.5 85.2837 1240.87 89.2193C1239.24 93.1549 1238.81 97.4856 1239.64 101.664C1240.48 105.842 1242.53 109.679 1245.54 112.692C1248.55 115.704 1252.39 117.755 1256.57 118.586C1260.75 119.417 1265.08 118.991 1269.01 117.361C1272.95 115.73 1276.31 112.97 1278.68 109.428C1281.04 105.886 1282.31 101.722 1282.31 97.4617C1282.31 91.7493 1280.04 86.271 1276 82.2317C1271.96 78.1925 1266.48 75.9233 1260.77 75.9233Z" fill="white"/>
<path d="M1274.23 49H1220.38C1218.96 49 1217.59 49.5673 1216.58 50.5771C1215.57 51.5869 1215 52.9565 1215 54.3846V108.231C1215 109.659 1215.57 111.028 1216.58 112.038C1217.59 113.048 1218.96 113.615 1220.38 113.615H1231.15V108.231H1220.38V70.5384H1279.62V54.3846C1279.62 52.9565 1279.05 51.5869 1278.04 50.5771C1277.03 49.5673 1275.66 49 1274.23 49ZM1220.38 65.1538V54.3846H1274.23V65.1538H1220.38Z" fill="white"/>
<path d="M1255.38 89.3849V105.539L1268.85 97.4618L1255.38 89.3849Z" fill="white"/>
</svg>
