<svg width="1363" height="167" viewBox="0 0 1363 167" fill="none" xmlns="http://www.w3.org/2000/svg">
<rect width="1363" height="167" rx="15" fill="#F0F0F0"/>
<path d="M0 15C0 6.71573 6.71573 0 15 0H37V167H15C6.71573 167 0 160.284 0 152V15Z" fill="#424241"/>
<path d="M100.906 50.9219L93.3945 48.2383V45.0859L103.602 49.375V51.6367L100.906 50.9219ZM93.3945 53.1719L100.918 50.4297L103.602 49.7852V52.0352L93.3945 56.3242V53.1719ZM118.543 51.918H114.195V49.1758H118.543C119.215 49.1758 119.762 49.0664 120.184 48.8477C120.605 48.6211 120.914 48.3086 121.109 47.9102C121.305 47.5117 121.402 47.0625 121.402 46.5625C121.402 46.0547 121.305 45.582 121.109 45.1445C120.914 44.707 120.605 44.3555 120.184 44.0898C119.762 43.8242 119.215 43.6914 118.543 43.6914H115.414V58H111.898V40.9375H118.543C119.879 40.9375 121.023 41.1797 121.977 41.6641C122.938 42.1406 123.672 42.8008 124.18 43.6445C124.688 44.4883 124.941 45.4531 124.941 46.5391C124.941 47.6406 124.688 48.5938 124.18 49.3984C123.672 50.2031 122.938 50.8242 121.977 51.2617C121.023 51.6992 119.879 51.918 118.543 51.918ZM138.816 55.2578V58H129.734V55.2578H138.816ZM130.883 40.9375V58H127.367V40.9375H130.883ZM137.633 47.8867V50.5586H129.734V47.8867H137.633ZM138.805 40.9375V43.6914H129.734V40.9375H138.805ZM152.316 55.2578V58H143.234V55.2578H152.316ZM144.383 40.9375V58H140.867V40.9375H144.383ZM151.133 47.8867V50.5586H143.234V47.8867H151.133ZM152.305 40.9375V43.6914H143.234V40.9375H152.305ZM157.883 40.9375V58H154.367V40.9375H157.883ZM168.102 40.9375L161.34 49.3633L157.438 53.5586L156.805 50.2305L159.441 46.6211L163.789 40.9375H168.102ZM164.105 58L159.078 50.1133L161.68 47.9336L168.266 58H164.105ZM176.562 43.8555L171.922 58H168.184L174.523 40.9375H176.902L176.562 43.8555ZM180.418 58L175.766 43.8555L175.391 40.9375H177.793L184.168 58H180.418ZM180.207 51.6484V54.4023H171.195V51.6484H180.207ZM192.43 50.5117H188.047L188.023 48.0977H191.703C192.352 48.0977 192.883 48.0156 193.297 47.8516C193.711 47.6797 194.02 47.4336 194.223 47.1133C194.434 46.7852 194.539 46.3867 194.539 45.918C194.539 45.3867 194.438 44.957 194.234 44.6289C194.039 44.3008 193.73 44.0625 193.309 43.9141C192.895 43.7656 192.359 43.6914 191.703 43.6914H189.266V58H185.75V40.9375H191.703C192.695 40.9375 193.582 41.0312 194.363 41.2188C195.152 41.4062 195.82 41.6914 196.367 42.0742C196.914 42.457 197.332 42.9414 197.621 43.5273C197.91 44.1055 198.055 44.793 198.055 45.5898C198.055 46.293 197.895 46.9414 197.574 47.5352C197.262 48.1289 196.766 48.6133 196.086 48.9883C195.414 49.3633 194.535 49.5703 193.449 49.6094L192.43 50.5117ZM192.277 58H187.086L188.457 55.2578H192.277C192.895 55.2578 193.398 55.1602 193.789 54.9648C194.18 54.7617 194.469 54.4883 194.656 54.1445C194.844 53.8008 194.938 53.4062 194.938 52.9609C194.938 52.4609 194.852 52.0273 194.68 51.6602C194.516 51.293 194.25 51.0117 193.883 50.8164C193.516 50.6133 193.031 50.5117 192.43 50.5117H189.043L189.066 48.0977H193.285L194.094 49.0469C195.133 49.0312 195.969 49.2148 196.602 49.5977C197.242 49.9727 197.707 50.4609 197.996 51.0625C198.293 51.6641 198.441 52.3086 198.441 52.9961C198.441 54.0898 198.203 55.0117 197.727 55.7617C197.25 56.5039 196.551 57.0625 195.629 57.4375C194.715 57.8125 193.598 58 192.277 58ZM215.094 49.0703V49.8789C215.094 51.1758 214.918 52.3398 214.566 53.3711C214.215 54.4023 213.719 55.2812 213.078 56.0078C212.438 56.7266 211.672 57.2773 210.781 57.6602C209.898 58.043 208.918 58.2344 207.84 58.2344C206.77 58.2344 205.789 58.043 204.898 57.6602C204.016 57.2773 203.25 56.7266 202.602 56.0078C201.953 55.2812 201.449 54.4023 201.09 53.3711C200.738 52.3398 200.562 51.1758 200.562 49.8789V49.0703C200.562 47.7656 200.738 46.6016 201.09 45.5781C201.441 44.5469 201.938 43.668 202.578 42.9414C203.227 42.2148 203.992 41.6602 204.875 41.2773C205.766 40.8945 206.746 40.7031 207.816 40.7031C208.895 40.7031 209.875 40.8945 210.758 41.2773C211.648 41.6602 212.414 42.2148 213.055 42.9414C213.703 43.668 214.203 44.5469 214.555 45.5781C214.914 46.6016 215.094 47.7656 215.094 49.0703ZM211.543 49.8789V49.0469C211.543 48.1406 211.461 47.3438 211.297 46.6562C211.133 45.9688 210.891 45.3906 210.57 44.9219C210.25 44.4531 209.859 44.1016 209.398 43.8672C208.938 43.625 208.41 43.5039 207.816 43.5039C207.223 43.5039 206.695 43.625 206.234 43.8672C205.781 44.1016 205.395 44.4531 205.074 44.9219C204.762 45.3906 204.523 45.9688 204.359 46.6562C204.195 47.3438 204.113 48.1406 204.113 49.0469V49.8789C204.113 50.7773 204.195 51.5742 204.359 52.2695C204.523 52.957 204.766 53.5391 205.086 54.0156C205.406 54.4844 205.797 54.8398 206.258 55.082C206.719 55.3242 207.246 55.4453 207.84 55.4453C208.434 55.4453 208.961 55.3242 209.422 55.082C209.883 54.8398 210.27 54.4844 210.582 54.0156C210.895 53.5391 211.133 52.957 211.297 52.2695C211.461 51.5742 211.543 50.7773 211.543 49.8789ZM231.641 49.0703V49.8789C231.641 51.1758 231.465 52.3398 231.113 53.3711C230.762 54.4023 230.266 55.2812 229.625 56.0078C228.984 56.7266 228.219 57.2773 227.328 57.6602C226.445 58.043 225.465 58.2344 224.387 58.2344C223.316 58.2344 222.336 58.043 221.445 57.6602C220.562 57.2773 219.797 56.7266 219.148 56.0078C218.5 55.2812 217.996 54.4023 217.637 53.3711C217.285 52.3398 217.109 51.1758 217.109 49.8789V49.0703C217.109 47.7656 217.285 46.6016 217.637 45.5781C217.988 44.5469 218.484 43.668 219.125 42.9414C219.773 42.2148 220.539 41.6602 221.422 41.2773C222.312 40.8945 223.293 40.7031 224.363 40.7031C225.441 40.7031 226.422 40.8945 227.305 41.2773C228.195 41.6602 228.961 42.2148 229.602 42.9414C230.25 43.668 230.75 44.5469 231.102 45.5781C231.461 46.6016 231.641 47.7656 231.641 49.0703ZM228.09 49.8789V49.0469C228.09 48.1406 228.008 47.3438 227.844 46.6562C227.68 45.9688 227.438 45.3906 227.117 44.9219C226.797 44.4531 226.406 44.1016 225.945 43.8672C225.484 43.625 224.957 43.5039 224.363 43.5039C223.77 43.5039 223.242 43.625 222.781 43.8672C222.328 44.1016 221.941 44.4531 221.621 44.9219C221.309 45.3906 221.07 45.9688 220.906 46.6562C220.742 47.3438 220.66 48.1406 220.66 49.0469V49.8789C220.66 50.7773 220.742 51.5742 220.906 52.2695C221.07 52.957 221.312 53.5391 221.633 54.0156C221.953 54.4844 222.344 54.8398 222.805 55.082C223.266 55.3242 223.793 55.4453 224.387 55.4453C224.98 55.4453 225.508 55.3242 225.969 55.082C226.43 54.8398 226.816 54.4844 227.129 54.0156C227.441 53.5391 227.68 52.957 227.844 52.2695C228.008 51.5742 228.09 50.7773 228.09 49.8789Z" fill="#888888"/>
<path d="M109.93 86.0078V118H102.217V86.0078H109.93ZM119.554 86.0078V91.9624H92.813V86.0078H119.554ZM132.012 118.439C130.079 118.439 128.35 118.139 126.827 117.539C125.303 116.923 124.014 116.081 122.959 115.012C121.919 113.942 121.121 112.712 120.564 111.32C120.022 109.929 119.751 108.457 119.751 106.904V106.069C119.751 104.326 119.993 102.714 120.477 101.235C120.96 99.7407 121.678 98.437 122.63 97.3237C123.582 96.2104 124.776 95.3462 126.211 94.731C127.647 94.1011 129.317 93.7861 131.221 93.7861C132.906 93.7861 134.415 94.0571 135.748 94.5991C137.081 95.1411 138.208 95.9175 139.131 96.9282C140.069 97.939 140.779 99.1621 141.263 100.598C141.761 102.033 142.01 103.645 142.01 105.432V108.442H122.586V103.806H134.781V103.234C134.795 102.443 134.656 101.77 134.363 101.213C134.085 100.656 133.675 100.231 133.133 99.9385C132.591 99.6455 131.932 99.499 131.155 99.499C130.35 99.499 129.683 99.6748 129.156 100.026C128.643 100.378 128.24 100.861 127.947 101.477C127.669 102.077 127.471 102.773 127.354 103.564C127.237 104.355 127.178 105.19 127.178 106.069V106.904C127.178 107.783 127.295 108.581 127.53 109.299C127.779 110.017 128.13 110.632 128.584 111.145C129.053 111.643 129.61 112.031 130.254 112.309C130.914 112.587 131.661 112.727 132.496 112.727C133.506 112.727 134.502 112.536 135.484 112.155C136.465 111.774 137.308 111.145 138.011 110.266L141.373 114.265C140.889 114.953 140.201 115.62 139.307 116.264C138.428 116.909 137.374 117.436 136.143 117.846C134.913 118.242 133.536 118.439 132.012 118.439ZM155.062 112.727C155.75 112.727 156.336 112.602 156.819 112.353C157.317 112.089 157.691 111.723 157.94 111.254C158.204 110.771 158.328 110.192 158.313 109.519H165.279C165.293 111.306 164.854 112.873 163.96 114.221C163.082 115.554 161.88 116.594 160.357 117.341C158.848 118.073 157.142 118.439 155.237 118.439C153.377 118.439 151.751 118.139 150.359 117.539C148.968 116.923 147.803 116.074 146.866 114.99C145.943 113.891 145.247 112.609 144.778 111.145C144.324 109.68 144.097 108.09 144.097 106.376V105.871C144.097 104.157 144.324 102.568 144.778 101.103C145.247 99.6235 145.943 98.3418 146.866 97.2578C147.803 96.1592 148.96 95.3096 150.337 94.709C151.729 94.0938 153.348 93.7861 155.193 93.7861C157.171 93.7861 158.914 94.1597 160.423 94.9067C161.946 95.6538 163.14 96.7378 164.004 98.1587C164.869 99.5796 165.293 101.301 165.279 103.322H158.313C158.328 102.604 158.218 101.96 157.984 101.389C157.75 100.817 157.383 100.363 156.885 100.026C156.402 99.6748 155.779 99.499 155.018 99.499C154.256 99.499 153.641 99.6675 153.172 100.004C152.703 100.341 152.344 100.81 152.095 101.411C151.861 101.997 151.7 102.67 151.612 103.432C151.539 104.194 151.502 105.007 151.502 105.871V106.376C151.502 107.255 151.539 108.083 151.612 108.859C151.7 109.621 151.868 110.295 152.117 110.881C152.366 111.452 152.725 111.906 153.194 112.243C153.663 112.565 154.285 112.727 155.062 112.727ZM175.694 84.25V118H168.289V84.25H175.694ZM174.815 105.3L173.079 105.344C173.079 103.674 173.284 102.136 173.694 100.729C174.104 99.3232 174.69 98.1001 175.452 97.0601C176.214 96.02 177.129 95.2144 178.199 94.6431C179.268 94.0718 180.455 93.7861 181.758 93.7861C182.93 93.7861 184 93.9546 184.966 94.2915C185.948 94.6284 186.79 95.1704 187.493 95.9175C188.211 96.6646 188.76 97.6387 189.141 98.8398C189.537 100.041 189.734 101.506 189.734 103.234V118H182.286V103.19C182.286 102.224 182.146 101.477 181.868 100.949C181.604 100.407 181.224 100.034 180.726 99.8286C180.228 99.6089 179.62 99.499 178.902 99.499C178.038 99.499 177.334 99.6455 176.792 99.9385C176.25 100.231 175.833 100.642 175.54 101.169C175.262 101.682 175.071 102.29 174.969 102.993C174.866 103.696 174.815 104.465 174.815 105.3ZM221.88 109.497C221.88 108.999 221.807 108.552 221.661 108.156C221.514 107.746 221.243 107.365 220.848 107.014C220.452 106.662 219.881 106.311 219.134 105.959C218.401 105.593 217.435 105.212 216.233 104.816C214.827 104.348 213.472 103.82 212.168 103.234C210.865 102.634 209.7 101.938 208.675 101.147C207.649 100.341 206.836 99.4038 206.236 98.3345C205.635 97.2505 205.335 95.9907 205.335 94.5552C205.335 93.1782 205.643 91.9404 206.258 90.8418C206.873 89.7285 207.73 88.7837 208.829 88.0073C209.942 87.2163 211.246 86.6157 212.74 86.2056C214.234 85.7808 215.867 85.5684 217.64 85.5684C219.983 85.5684 222.049 85.9785 223.836 86.7988C225.638 87.6045 227.044 88.7544 228.055 90.2485C229.08 91.728 229.593 93.4785 229.593 95.5H221.924C221.924 94.6943 221.756 93.9839 221.419 93.3687C221.097 92.7534 220.606 92.27 219.947 91.9185C219.288 91.5669 218.46 91.3911 217.464 91.3911C216.497 91.3911 215.684 91.5376 215.025 91.8306C214.366 92.1235 213.868 92.519 213.531 93.0171C213.194 93.5005 213.025 94.0352 213.025 94.6211C213.025 95.1045 213.157 95.5439 213.421 95.9395C213.699 96.3203 214.087 96.6792 214.585 97.0161C215.098 97.353 215.713 97.6753 216.431 97.9829C217.164 98.2905 217.984 98.5908 218.892 98.8838C220.591 99.4258 222.1 100.034 223.418 100.708C224.751 101.367 225.872 102.121 226.78 102.971C227.703 103.806 228.399 104.758 228.868 105.827C229.351 106.896 229.593 108.105 229.593 109.453C229.593 110.888 229.314 112.163 228.758 113.276C228.201 114.389 227.403 115.334 226.363 116.11C225.323 116.872 224.078 117.451 222.627 117.846C221.177 118.242 219.559 118.439 217.771 118.439C216.131 118.439 214.512 118.234 212.916 117.824C211.333 117.399 209.898 116.755 208.609 115.891C207.32 115.012 206.287 113.891 205.511 112.529C204.749 111.152 204.368 109.519 204.368 107.629H212.103C212.103 108.566 212.227 109.357 212.476 110.002C212.725 110.646 213.091 111.167 213.575 111.562C214.058 111.943 214.651 112.221 215.354 112.397C216.058 112.558 216.863 112.639 217.771 112.639C218.753 112.639 219.544 112.5 220.145 112.221C220.745 111.928 221.185 111.547 221.463 111.079C221.741 110.595 221.88 110.068 221.88 109.497ZM245.743 94.2256V99.3672H231.417V94.2256H245.743ZM234.427 88.3149H241.832V110.244C241.832 110.874 241.905 111.364 242.051 111.716C242.198 112.053 242.447 112.294 242.798 112.441C243.165 112.573 243.648 112.639 244.249 112.639C244.673 112.639 245.025 112.631 245.303 112.617C245.582 112.587 245.845 112.551 246.094 112.507V117.802C245.464 118.007 244.805 118.161 244.117 118.264C243.428 118.381 242.696 118.439 241.919 118.439C240.337 118.439 238.982 118.19 237.854 117.692C236.741 117.194 235.892 116.411 235.306 115.341C234.72 114.272 234.427 112.88 234.427 111.167V88.3149ZM261.036 112.023V102.224C261.036 101.55 260.94 100.971 260.75 100.488C260.56 100.004 260.259 99.6309 259.849 99.3672C259.439 99.0889 258.89 98.9497 258.201 98.9497C257.645 98.9497 257.168 99.0449 256.773 99.2354C256.377 99.4258 256.077 99.7114 255.872 100.092C255.667 100.473 255.564 100.957 255.564 101.542H248.16C248.16 100.444 248.401 99.4258 248.885 98.4883C249.383 97.5361 250.086 96.7085 250.994 96.0054C251.917 95.3022 253.016 94.7603 254.29 94.3794C255.579 93.9839 257.015 93.7861 258.597 93.7861C260.486 93.7861 262.171 94.1011 263.65 94.731C265.145 95.3608 266.324 96.3057 267.188 97.5654C268.052 98.8105 268.484 100.378 268.484 102.268V112.001C268.484 113.554 268.572 114.733 268.748 115.539C268.924 116.33 269.173 117.026 269.495 117.626V118H262.068C261.717 117.268 261.453 116.374 261.277 115.319C261.116 114.25 261.036 113.151 261.036 112.023ZM261.937 103.476L261.98 107.431H258.707C258.018 107.431 257.432 107.526 256.949 107.717C256.48 107.907 256.099 108.171 255.806 108.508C255.528 108.83 255.323 109.196 255.191 109.606C255.074 110.017 255.015 110.449 255.015 110.903C255.015 111.342 255.118 111.738 255.323 112.089C255.542 112.426 255.835 112.69 256.202 112.88C256.568 113.071 256.978 113.166 257.432 113.166C258.252 113.166 258.948 113.012 259.52 112.705C260.105 112.382 260.552 111.994 260.86 111.54C261.167 111.086 261.321 110.661 261.321 110.266L262.947 113.298C262.654 113.884 262.317 114.477 261.937 115.078C261.57 115.678 261.109 116.235 260.552 116.748C260.01 117.246 259.344 117.656 258.553 117.978C257.762 118.286 256.802 118.439 255.674 118.439C254.209 118.439 252.862 118.139 251.631 117.539C250.416 116.938 249.441 116.103 248.709 115.034C247.977 113.95 247.61 112.705 247.61 111.298C247.61 110.068 247.83 108.969 248.27 108.002C248.724 107.036 249.405 106.215 250.313 105.542C251.221 104.868 252.378 104.355 253.785 104.003C255.191 103.652 256.846 103.476 258.75 103.476H261.937ZM282.635 112.727C283.323 112.727 283.909 112.602 284.393 112.353C284.891 112.089 285.264 111.723 285.513 111.254C285.777 110.771 285.901 110.192 285.887 109.519H292.852C292.867 111.306 292.427 112.873 291.534 114.221C290.655 115.554 289.454 116.594 287.93 117.341C286.421 118.073 284.715 118.439 282.811 118.439C280.95 118.439 279.324 118.139 277.933 117.539C276.541 116.923 275.376 116.074 274.439 114.99C273.516 113.891 272.82 112.609 272.352 111.145C271.897 109.68 271.67 108.09 271.67 106.376V105.871C271.67 104.157 271.897 102.568 272.352 101.103C272.82 99.6235 273.516 98.3418 274.439 97.2578C275.376 96.1592 276.534 95.3096 277.911 94.709C279.302 94.0938 280.921 93.7861 282.767 93.7861C284.744 93.7861 286.487 94.1597 287.996 94.9067C289.52 95.6538 290.713 96.7378 291.578 98.1587C292.442 99.5796 292.867 101.301 292.852 103.322H285.887C285.901 102.604 285.792 101.96 285.557 101.389C285.323 100.817 284.957 100.363 284.458 100.026C283.975 99.6748 283.353 99.499 282.591 99.499C281.829 99.499 281.214 99.6675 280.745 100.004C280.276 100.341 279.917 100.81 279.668 101.411C279.434 101.997 279.273 102.67 279.185 103.432C279.112 104.194 279.075 105.007 279.075 105.871V106.376C279.075 107.255 279.112 108.083 279.185 108.859C279.273 109.621 279.441 110.295 279.69 110.881C279.939 111.452 280.298 111.906 280.767 112.243C281.236 112.565 281.858 112.727 282.635 112.727ZM303.487 84.228V118H296.082V84.228H303.487ZM318.692 94.2256L308.365 106.333L302.959 111.738L299.729 107.036L304.234 101.169L309.815 94.2256H318.692ZM310.76 118L304.41 107.167L309.881 103.278L319.241 118H310.76Z" fill="#424241"/>
<path d="M1363 15C1363 6.71573 1356.28 0 1348 0H1134V167H1348C1356.28 167 1363 160.284 1363 152V15Z" fill="#792DC4"/>
<path fill-rule="evenodd" clip-rule="evenodd" d="M1218.5 55C1218.37 55 1218.24 55.0527 1218.15 55.1464C1218.05 55.2402 1218 55.3674 1218 55.5V111.5C1218 111.633 1218.05 111.76 1218.15 111.854C1218.24 111.947 1218.37 112 1218.5 112H1278C1278.13 112 1278.26 111.947 1278.35 111.854C1278.45 111.76 1278.5 111.633 1278.5 111.5V66C1278.5 65.8674 1278.45 65.7402 1278.35 65.6464C1278.26 65.5527 1278.13 65.5 1278 65.5H1248.25C1247.36 65.5 1246.52 65.1045 1245.95 64.4206L1238.09 55H1218.5ZM1213.9 50.9038C1215.12 49.6848 1216.78 49 1218.5 49H1239.5C1240.39 49 1241.23 49.3955 1241.8 50.0794L1249.66 59.5H1278C1279.72 59.5 1281.38 60.1848 1282.6 61.4038C1283.82 62.6228 1284.5 64.2761 1284.5 66V111.5C1284.5 113.224 1283.82 114.877 1282.6 116.096C1281.38 117.315 1279.72 118 1278 118H1218.5C1216.78 118 1215.12 117.315 1213.9 116.096C1212.68 114.877 1212 113.224 1212 111.5V55.5C1212 53.7761 1212.68 52.1228 1213.9 50.9038Z" fill="white"/>
<path fill-rule="evenodd" clip-rule="evenodd" d="M1243.72 77.5251C1245.09 78.892 1245.09 81.108 1243.72 82.4749L1237.45 88.75L1243.72 95.0251C1245.09 96.392 1245.09 98.608 1243.72 99.9749C1242.36 101.342 1240.14 101.342 1238.78 99.9749L1230.03 91.2249C1228.66 89.858 1228.66 87.642 1230.03 86.2751L1238.78 77.5251C1240.14 76.1583 1242.36 76.1583 1243.72 77.5251Z" fill="white"/>
<path fill-rule="evenodd" clip-rule="evenodd" d="M1252.03 99.9749C1250.66 98.608 1250.66 96.392 1252.03 95.0251L1258.3 88.75L1252.03 82.4749C1250.66 81.108 1250.66 78.892 1252.03 77.5251C1253.39 76.1583 1255.61 76.1583 1256.97 77.5251L1265.72 86.2751C1267.09 87.642 1267.09 89.858 1265.72 91.2249L1256.97 99.9749C1255.61 101.342 1253.39 101.342 1252.03 99.9749Z" fill="white"/>
</svg>
