<svg width="1363" height="301" viewBox="0 0 1363 301" fill="none" xmlns="http://www.w3.org/2000/svg">
<rect width="1363" height="301" rx="15" fill="#F0F0F0"/>
<path d="M0 15C0 6.71573 6.71573 0 15 0H37V301H15C6.71573 301 0 294.284 0 286V15Z" fill="#DD000D"/>
<path d="M104.004 140.455L111.792 104.898H116.438L118.963 107.933L110.665 144H105.535L104.004 140.455ZM101.937 104.898L108.516 140.724L106.824 144H100.889L92.5908 104.898H101.937ZM123.233 140.536L129.759 104.898H139.078L130.779 144H124.871L123.233 140.536ZM119.795 104.898L127.771 140.67L126.16 144H121.031L112.544 107.879L115.176 104.898H119.795ZM156.534 136.695V124.718C156.534 123.894 156.417 123.187 156.185 122.596C155.952 122.005 155.585 121.549 155.083 121.227C154.582 120.886 153.911 120.716 153.069 120.716C152.389 120.716 151.807 120.833 151.324 121.065C150.84 121.298 150.473 121.647 150.223 122.113C149.972 122.578 149.847 123.169 149.847 123.885H140.796C140.796 122.542 141.092 121.298 141.683 120.152C142.291 118.989 143.151 117.977 144.261 117.118C145.389 116.258 146.731 115.596 148.289 115.13C149.865 114.647 151.619 114.405 153.553 114.405C155.862 114.405 157.921 114.79 159.729 115.56C161.556 116.33 162.997 117.485 164.053 119.024C165.11 120.546 165.638 122.462 165.638 124.771V136.668C165.638 138.566 165.745 140.007 165.96 140.992C166.175 141.959 166.479 142.809 166.873 143.543V144H157.796C157.366 143.105 157.044 142.013 156.829 140.724C156.632 139.417 156.534 138.074 156.534 136.695ZM157.635 126.249L157.688 131.083H153.687C152.846 131.083 152.129 131.199 151.539 131.432C150.966 131.664 150.5 131.987 150.142 132.398C149.802 132.792 149.551 133.24 149.39 133.741C149.247 134.243 149.175 134.771 149.175 135.326C149.175 135.863 149.301 136.346 149.551 136.776C149.82 137.188 150.178 137.51 150.625 137.743C151.073 137.975 151.574 138.092 152.129 138.092C153.132 138.092 153.982 137.904 154.681 137.528C155.397 137.134 155.943 136.66 156.319 136.104C156.695 135.549 156.883 135.03 156.883 134.547L158.87 138.253C158.512 138.969 158.1 139.694 157.635 140.428C157.187 141.162 156.623 141.843 155.943 142.469C155.28 143.078 154.466 143.579 153.499 143.973C152.532 144.349 151.36 144.537 149.981 144.537C148.191 144.537 146.543 144.17 145.04 143.436C143.554 142.702 142.363 141.681 141.468 140.375C140.573 139.05 140.125 137.528 140.125 135.809C140.125 134.305 140.394 132.962 140.931 131.781C141.486 130.599 142.318 129.597 143.428 128.773C144.538 127.949 145.953 127.323 147.671 126.893C149.39 126.463 151.413 126.249 153.741 126.249H157.635ZM185.967 114.942V121.227H168.458V114.942H185.967ZM172.137 107.718H181.187V134.52C181.187 135.29 181.277 135.89 181.456 136.319C181.635 136.731 181.939 137.027 182.369 137.206C182.816 137.367 183.407 137.447 184.141 137.447C184.66 137.447 185.09 137.438 185.43 137.42C185.77 137.385 186.093 137.34 186.397 137.286V143.758C185.627 144.009 184.821 144.197 183.98 144.322C183.139 144.465 182.243 144.537 181.294 144.537C179.361 144.537 177.705 144.233 176.326 143.624C174.965 143.015 173.927 142.057 173.211 140.75C172.495 139.444 172.137 137.743 172.137 135.648V107.718ZM201.839 137.555C202.68 137.555 203.396 137.403 203.987 137.098C204.596 136.776 205.053 136.328 205.357 135.755C205.679 135.165 205.831 134.457 205.813 133.634H214.327C214.345 135.818 213.807 137.734 212.715 139.381C211.641 141.01 210.173 142.281 208.311 143.194C206.467 144.09 204.381 144.537 202.054 144.537C199.78 144.537 197.793 144.17 196.092 143.436C194.391 142.684 192.968 141.646 191.822 140.321C190.694 138.978 189.843 137.411 189.271 135.621C188.715 133.831 188.438 131.888 188.438 129.793V129.176C188.438 127.081 188.715 125.139 189.271 123.348C189.843 121.54 190.694 119.973 191.822 118.648C192.968 117.306 194.382 116.267 196.065 115.533C197.766 114.781 199.744 114.405 202 114.405C204.417 114.405 206.548 114.862 208.392 115.775C210.254 116.688 211.713 118.013 212.769 119.75C213.825 121.486 214.345 123.59 214.327 126.061H205.813C205.831 125.183 205.697 124.396 205.411 123.697C205.124 122.999 204.677 122.444 204.068 122.032C203.477 121.603 202.716 121.388 201.785 121.388C200.854 121.388 200.102 121.594 199.529 122.005C198.956 122.417 198.518 122.99 198.213 123.724C197.927 124.44 197.73 125.264 197.623 126.195C197.533 127.126 197.488 128.119 197.488 129.176V129.793C197.488 130.868 197.533 131.879 197.623 132.828C197.73 133.759 197.936 134.583 198.24 135.299C198.545 135.997 198.983 136.552 199.556 136.964C200.129 137.358 200.89 137.555 201.839 137.555ZM227.056 102.75V144H218.006V102.75H227.056ZM225.982 128.478L223.86 128.531C223.86 126.49 224.111 124.61 224.612 122.892C225.114 121.173 225.83 119.678 226.761 118.407C227.692 117.136 228.811 116.151 230.118 115.453C231.425 114.754 232.875 114.405 234.468 114.405C235.901 114.405 237.208 114.611 238.389 115.023C239.589 115.435 240.618 116.097 241.478 117.01C242.355 117.923 243.026 119.114 243.492 120.582C243.975 122.05 244.217 123.84 244.217 125.953V144H235.113V125.899C235.113 124.718 234.943 123.805 234.603 123.16C234.28 122.498 233.815 122.041 233.206 121.791C232.597 121.522 231.854 121.388 230.977 121.388C229.921 121.388 229.061 121.567 228.399 121.925C227.736 122.283 227.226 122.784 226.868 123.429C226.528 124.055 226.295 124.798 226.17 125.658C226.045 126.517 225.982 127.457 225.982 128.478ZM282.754 123.67V125.255C282.754 128.245 282.334 130.93 281.492 133.312C280.669 135.675 279.496 137.698 277.974 139.381C276.452 141.046 274.653 142.326 272.576 143.221C270.499 144.098 268.208 144.537 265.701 144.537C263.177 144.537 260.867 144.098 258.772 143.221C256.696 142.326 254.887 141.046 253.348 139.381C251.826 137.698 250.644 135.675 249.803 133.312C248.979 130.93 248.567 128.245 248.567 125.255V123.67C248.567 120.681 248.979 117.995 249.803 115.614C250.644 113.233 251.817 111.209 253.321 109.544C254.843 107.861 256.642 106.581 258.719 105.704C260.813 104.809 263.123 104.361 265.647 104.361C268.154 104.361 270.446 104.809 272.522 105.704C274.617 106.581 276.425 107.861 277.947 109.544C279.469 111.209 280.651 113.233 281.492 115.614C282.334 117.995 282.754 120.681 282.754 123.67ZM273.194 125.255V123.617C273.194 121.683 273.024 119.982 272.684 118.514C272.361 117.028 271.878 115.784 271.233 114.781C270.589 113.779 269.792 113.027 268.843 112.525C267.912 112.006 266.847 111.747 265.647 111.747C264.394 111.747 263.302 112.006 262.371 112.525C261.44 113.027 260.661 113.779 260.035 114.781C259.408 115.784 258.934 117.028 258.611 118.514C258.307 119.982 258.155 121.683 258.155 123.617V125.255C258.155 127.171 258.307 128.871 258.611 130.357C258.934 131.826 259.408 133.07 260.035 134.09C260.679 135.111 261.467 135.881 262.398 136.4C263.347 136.919 264.448 137.179 265.701 137.179C266.901 137.179 267.966 136.919 268.897 136.4C269.828 135.881 270.607 135.111 271.233 134.09C271.878 133.07 272.361 131.826 272.684 130.357C273.024 128.871 273.194 127.171 273.194 125.255ZM304.185 136.937V114.942H313.262V144H304.776L304.185 136.937ZM305.044 131.029L307.408 130.975C307.408 132.927 307.175 134.735 306.709 136.4C306.244 138.047 305.555 139.479 304.642 140.697C303.746 141.914 302.636 142.863 301.312 143.543C300.005 144.206 298.492 144.537 296.773 144.537C295.341 144.537 294.025 144.34 292.825 143.946C291.644 143.535 290.623 142.899 289.764 142.04C288.904 141.162 288.233 140.043 287.75 138.683C287.284 137.304 287.051 135.657 287.051 133.741V114.942H296.102V133.795C296.102 134.439 296.182 134.994 296.343 135.46C296.504 135.925 296.737 136.319 297.042 136.642C297.346 136.946 297.722 137.179 298.169 137.34C298.635 137.483 299.163 137.555 299.754 137.555C301.115 137.555 302.18 137.268 302.95 136.695C303.72 136.122 304.257 135.344 304.561 134.359C304.883 133.374 305.044 132.264 305.044 131.029ZM333.565 114.942V121.227H316.055V114.942H333.565ZM319.734 107.718H328.785V134.52C328.785 135.29 328.874 135.89 329.053 136.319C329.232 136.731 329.537 137.027 329.966 137.206C330.414 137.367 331.005 137.447 331.739 137.447C332.258 137.447 332.688 137.438 333.028 137.42C333.368 137.385 333.69 137.34 333.995 137.286V143.758C333.225 144.009 332.419 144.197 331.578 144.322C330.736 144.465 329.841 144.537 328.892 144.537C326.958 144.537 325.302 144.233 323.924 143.624C322.563 143.015 321.525 142.057 320.809 140.75C320.092 139.444 319.734 137.743 319.734 135.648V107.718ZM347.315 104.898L346.16 131.62H338.802L337.647 104.898H347.315ZM337.405 139.945C337.405 138.656 337.871 137.582 338.802 136.722C339.733 135.845 340.941 135.406 342.427 135.406C343.913 135.406 345.113 135.845 346.026 136.722C346.957 137.582 347.422 138.656 347.422 139.945C347.422 141.234 346.957 142.317 346.026 143.194C345.113 144.054 343.913 144.483 342.427 144.483C340.941 144.483 339.733 144.054 338.802 143.194C337.871 142.317 337.405 141.234 337.405 139.945Z" fill="black"/>
<path d="M96.563 55.1172H100.904L107.295 73.3862L113.687 55.1172H118.028L109.039 80H105.552L96.563 55.1172ZM94.2217 55.1172H98.5454L99.3315 72.9248V80H94.2217V55.1172ZM116.045 55.1172H120.386V80H115.259V72.9248L116.045 55.1172ZM123.787 70.9424V70.5835C123.787 69.2277 123.981 67.9801 124.368 66.8408C124.756 65.6901 125.319 64.6932 126.06 63.8501C126.801 63.007 127.712 62.3519 128.794 61.8848C129.877 61.4062 131.119 61.167 132.52 61.167C133.921 61.167 135.169 61.4062 136.263 61.8848C137.356 62.3519 138.274 63.007 139.014 63.8501C139.766 64.6932 140.336 65.6901 140.723 66.8408C141.111 67.9801 141.304 69.2277 141.304 70.5835V70.9424C141.304 72.2868 141.111 73.5343 140.723 74.6851C140.336 75.8244 139.766 76.8213 139.014 77.6758C138.274 78.5189 137.362 79.174 136.28 79.6411C135.197 80.1082 133.956 80.3418 132.554 80.3418C131.153 80.3418 129.905 80.1082 128.812 79.6411C127.729 79.174 126.812 78.5189 126.06 77.6758C125.319 76.8213 124.756 75.8244 124.368 74.6851C123.981 73.5343 123.787 72.2868 123.787 70.9424ZM128.709 70.5835V70.9424C128.709 71.7171 128.777 72.4406 128.914 73.1128C129.051 73.785 129.267 74.3774 129.563 74.8901C129.871 75.3914 130.27 75.7845 130.76 76.0693C131.25 76.3542 131.848 76.4966 132.554 76.4966C133.238 76.4966 133.825 76.3542 134.314 76.0693C134.804 75.7845 135.197 75.3914 135.494 74.8901C135.79 74.3774 136.006 73.785 136.143 73.1128C136.291 72.4406 136.365 71.7171 136.365 70.9424V70.5835C136.365 69.8315 136.291 69.1252 136.143 68.4644C136.006 67.7922 135.784 67.1997 135.477 66.687C135.18 66.1629 134.787 65.7528 134.297 65.4565C133.807 65.1603 133.215 65.0122 132.52 65.0122C131.825 65.0122 131.233 65.1603 130.743 65.4565C130.264 65.7528 129.871 66.1629 129.563 66.687C129.267 67.1997 129.051 67.7922 128.914 68.4644C128.777 69.1252 128.709 69.8315 128.709 70.5835ZM149.131 53.75V80H144.209V53.75H149.131ZM148.431 70.105H147.081C147.092 68.8175 147.263 67.6326 147.593 66.5503C147.924 65.4565 148.396 64.5109 149.012 63.7134C149.627 62.9045 150.362 62.2778 151.216 61.8335C152.082 61.3892 153.039 61.167 154.087 61.167C154.999 61.167 155.825 61.298 156.565 61.5601C157.317 61.8107 157.961 62.2209 158.497 62.7905C159.043 63.3488 159.465 64.0837 159.761 64.9951C160.057 65.9066 160.206 67.0117 160.206 68.3105V80H155.25V68.2764C155.25 67.4561 155.13 66.8123 154.891 66.3452C154.663 65.8667 154.327 65.5306 153.882 65.3369C153.449 65.1318 152.914 65.0293 152.276 65.0293C151.569 65.0293 150.966 65.1603 150.464 65.4224C149.974 65.6844 149.581 66.049 149.285 66.5161C148.989 66.9718 148.772 67.5073 148.636 68.1226C148.499 68.7378 148.431 69.3986 148.431 70.105ZM173.929 75.8301V67.5928C173.929 67.0003 173.832 66.4933 173.638 66.0718C173.444 65.6388 173.143 65.3027 172.732 65.0635C172.334 64.8242 171.815 64.7046 171.177 64.7046C170.63 64.7046 170.158 64.8014 169.759 64.9951C169.36 65.1774 169.052 65.4451 168.836 65.7983C168.619 66.1401 168.511 66.5446 168.511 67.0117H163.589C163.589 66.2256 163.772 65.4793 164.136 64.7729C164.501 64.0666 165.031 63.4456 165.726 62.9102C166.421 62.3633 167.247 61.936 168.204 61.6284C169.172 61.3208 170.254 61.167 171.451 61.167C172.886 61.167 174.162 61.4062 175.279 61.8848C176.395 62.3633 177.273 63.0811 177.911 64.0381C178.56 64.9951 178.885 66.1914 178.885 67.627V75.5396C178.885 76.5535 178.947 77.3853 179.073 78.0347C179.198 78.6727 179.38 79.231 179.62 79.7095V80H174.646C174.407 79.4987 174.225 78.8721 174.1 78.1201C173.986 77.3568 173.929 76.5934 173.929 75.8301ZM174.578 68.7378L174.612 71.5234H171.861C171.211 71.5234 170.647 71.5975 170.169 71.7456C169.69 71.8937 169.297 72.1045 168.99 72.3779C168.682 72.64 168.454 72.9476 168.306 73.3008C168.169 73.654 168.101 74.0413 168.101 74.4629C168.101 74.8844 168.198 75.2661 168.392 75.6079C168.585 75.9383 168.864 76.2004 169.229 76.394C169.594 76.5763 170.021 76.6675 170.511 76.6675C171.251 76.6675 171.895 76.5194 172.442 76.2231C172.989 75.9269 173.41 75.5623 173.707 75.1294C174.014 74.6965 174.174 74.2863 174.185 73.8989L175.484 75.9839C175.302 76.451 175.051 76.9352 174.732 77.4365C174.424 77.9378 174.031 78.4106 173.553 78.855C173.074 79.2879 172.499 79.6468 171.827 79.9316C171.154 80.2051 170.357 80.3418 169.434 80.3418C168.261 80.3418 167.195 80.1082 166.238 79.6411C165.293 79.1626 164.541 78.5075 163.982 77.6758C163.436 76.8327 163.162 75.8757 163.162 74.8047C163.162 73.8363 163.344 72.9761 163.709 72.2241C164.074 71.4722 164.609 70.8398 165.315 70.3271C166.033 69.8031 166.928 69.41 167.999 69.1479C169.069 68.8745 170.311 68.7378 171.724 68.7378H174.578ZM187.601 65.3369V80H182.662V61.5088H187.293L187.601 65.3369ZM186.917 70.105H185.55C185.55 68.8175 185.704 67.6326 186.011 66.5503C186.33 65.4565 186.792 64.5109 187.396 63.7134C188.011 62.9045 188.768 62.2778 189.668 61.8335C190.569 61.3892 191.611 61.167 192.796 61.167C193.616 61.167 194.368 61.2923 195.052 61.543C195.735 61.7822 196.322 62.1639 196.812 62.688C197.313 63.2007 197.701 63.8729 197.974 64.7046C198.248 65.5249 198.384 66.5104 198.384 67.6611V80H193.462V68.208C193.462 67.3649 193.348 66.7155 193.121 66.2598C192.893 65.804 192.568 65.485 192.146 65.3027C191.736 65.1204 191.241 65.0293 190.66 65.0293C190.022 65.0293 189.463 65.1603 188.985 65.4224C188.518 65.6844 188.13 66.049 187.823 66.5161C187.515 66.9718 187.287 67.5073 187.139 68.1226C186.991 68.7378 186.917 69.3986 186.917 70.105ZM197.923 69.541L196.163 69.7632C196.163 68.5555 196.311 67.4333 196.607 66.3965C196.915 65.3597 197.365 64.4482 197.957 63.6621C198.561 62.876 199.307 62.2664 200.196 61.8335C201.084 61.3892 202.11 61.167 203.272 61.167C204.161 61.167 204.97 61.298 205.699 61.5601C206.428 61.8107 207.049 62.2152 207.562 62.7734C208.086 63.3203 208.484 64.0381 208.758 64.9268C209.043 65.8154 209.185 66.9035 209.185 68.1909V80H204.246V68.1909C204.246 67.3364 204.132 66.687 203.904 66.2427C203.688 65.7869 203.369 65.4736 202.947 65.3027C202.537 65.1204 202.047 65.0293 201.478 65.0293C200.885 65.0293 200.367 65.1489 199.922 65.3882C199.478 65.616 199.108 65.9351 198.812 66.3452C198.515 66.7554 198.293 67.2339 198.145 67.7808C197.997 68.3162 197.923 68.903 197.923 69.541ZM217.918 65.3369V80H212.979V61.5088H217.61L217.918 65.3369ZM217.234 70.105H215.867C215.867 68.8175 216.021 67.6326 216.329 66.5503C216.648 65.4565 217.109 64.5109 217.713 63.7134C218.328 62.9045 219.086 62.2778 219.986 61.8335C220.886 61.3892 221.928 61.167 223.113 61.167C223.934 61.167 224.686 61.2923 225.369 61.543C226.053 61.7822 226.639 62.1639 227.129 62.688C227.631 63.2007 228.018 63.8729 228.292 64.7046C228.565 65.5249 228.702 66.5104 228.702 67.6611V80H223.78V68.208C223.78 67.3649 223.666 66.7155 223.438 66.2598C223.21 65.804 222.885 65.485 222.464 65.3027C222.054 65.1204 221.558 65.0293 220.977 65.0293C220.339 65.0293 219.781 65.1603 219.302 65.4224C218.835 65.6844 218.448 66.049 218.14 66.5161C217.833 66.9718 217.605 67.5073 217.457 68.1226C217.308 68.7378 217.234 69.3986 217.234 70.105ZM228.24 69.541L226.48 69.7632C226.48 68.5555 226.628 67.4333 226.924 66.3965C227.232 65.3597 227.682 64.4482 228.274 63.6621C228.878 62.876 229.625 62.2664 230.513 61.8335C231.402 61.3892 232.427 61.167 233.589 61.167C234.478 61.167 235.287 61.298 236.016 61.5601C236.745 61.8107 237.366 62.2152 237.879 62.7734C238.403 63.3203 238.802 64.0381 239.075 64.9268C239.36 65.8154 239.502 66.9035 239.502 68.1909V80H234.563V68.1909C234.563 67.3364 234.45 66.687 234.222 66.2427C234.005 65.7869 233.686 65.4736 233.265 65.3027C232.854 65.1204 232.365 65.0293 231.795 65.0293C231.202 65.0293 230.684 65.1489 230.24 65.3882C229.795 65.616 229.425 65.9351 229.129 66.3452C228.833 66.7554 228.611 67.2339 228.462 67.7808C228.314 68.3162 228.24 68.903 228.24 69.541ZM253.294 75.8301V67.5928C253.294 67.0003 253.197 66.4933 253.003 66.0718C252.81 65.6388 252.508 65.3027 252.098 65.0635C251.699 64.8242 251.181 64.7046 250.542 64.7046C249.996 64.7046 249.523 64.8014 249.124 64.9951C248.725 65.1774 248.418 65.4451 248.201 65.7983C247.985 66.1401 247.876 66.5446 247.876 67.0117H242.955C242.955 66.2256 243.137 65.4793 243.501 64.7729C243.866 64.0666 244.396 63.4456 245.091 62.9102C245.786 62.3633 246.612 61.936 247.569 61.6284C248.537 61.3208 249.62 61.167 250.816 61.167C252.251 61.167 253.528 61.4062 254.644 61.8848C255.761 62.3633 256.638 63.0811 257.276 64.0381C257.925 64.9951 258.25 66.1914 258.25 67.627V75.5396C258.25 76.5535 258.313 77.3853 258.438 78.0347C258.563 78.6727 258.746 79.231 258.985 79.7095V80H254.012C253.772 79.4987 253.59 78.8721 253.465 78.1201C253.351 77.3568 253.294 76.5934 253.294 75.8301ZM253.943 68.7378L253.978 71.5234H251.226C250.577 71.5234 250.013 71.5975 249.534 71.7456C249.056 71.8937 248.663 72.1045 248.355 72.3779C248.047 72.64 247.819 72.9476 247.671 73.3008C247.535 73.654 247.466 74.0413 247.466 74.4629C247.466 74.8844 247.563 75.2661 247.757 75.6079C247.951 75.9383 248.23 76.2004 248.594 76.394C248.959 76.5763 249.386 76.6675 249.876 76.6675C250.617 76.6675 251.26 76.5194 251.807 76.2231C252.354 75.9269 252.776 75.5623 253.072 75.1294C253.379 74.6965 253.539 74.2863 253.55 73.8989L254.849 75.9839C254.667 76.451 254.416 76.9352 254.097 77.4365C253.79 77.9378 253.396 78.4106 252.918 78.855C252.439 79.2879 251.864 79.6468 251.192 79.9316C250.52 80.2051 249.722 80.3418 248.799 80.3418C247.626 80.3418 246.561 80.1082 245.604 79.6411C244.658 79.1626 243.906 78.5075 243.348 77.6758C242.801 76.8327 242.527 75.8757 242.527 74.8047C242.527 73.8363 242.71 72.9761 243.074 72.2241C243.439 71.4722 243.974 70.8398 244.681 70.3271C245.398 69.8031 246.293 69.41 247.364 69.1479C248.435 68.8745 249.677 68.7378 251.089 68.7378H253.943ZM272.964 75.9668V53.75H277.92V80H273.46L272.964 75.9668ZM261.275 70.9766V70.6177C261.275 69.2049 261.434 67.9232 261.753 66.7725C262.072 65.6104 262.54 64.6134 263.155 63.7817C263.77 62.95 264.528 62.3063 265.428 61.8506C266.328 61.3949 267.353 61.167 268.504 61.167C269.586 61.167 270.532 61.3949 271.341 61.8506C272.161 62.3063 272.856 62.9557 273.426 63.7988C274.007 64.6305 274.474 65.616 274.827 66.7554C275.18 67.8833 275.437 69.1195 275.596 70.4639V71.25C275.437 72.5374 275.18 73.7337 274.827 74.8389C274.474 75.944 274.007 76.9124 273.426 77.7441C272.856 78.5645 272.161 79.2025 271.341 79.6582C270.521 80.1139 269.563 80.3418 268.47 80.3418C267.319 80.3418 266.294 80.1082 265.394 79.6411C264.505 79.174 263.753 78.5189 263.138 77.6758C262.534 76.8327 262.072 75.8415 261.753 74.7021C261.434 73.5628 261.275 72.321 261.275 70.9766ZM266.197 70.6177V70.9766C266.197 71.7399 266.254 72.452 266.368 73.1128C266.493 73.7736 266.692 74.3604 266.966 74.873C267.251 75.3743 267.615 75.7674 268.06 76.0522C268.515 76.3257 269.068 76.4624 269.717 76.4624C270.56 76.4624 271.255 76.2744 271.802 75.8984C272.349 75.5111 272.765 74.9813 273.05 74.3091C273.346 73.6369 273.517 72.8621 273.562 71.9849V69.7461C273.528 69.0283 273.426 68.3846 273.255 67.8149C273.095 67.2339 272.856 66.7383 272.537 66.3281C272.229 65.918 271.842 65.599 271.375 65.3711C270.919 65.1432 270.378 65.0293 269.751 65.0293C269.113 65.0293 268.567 65.1774 268.111 65.4736C267.655 65.7585 267.285 66.1515 267 66.6528C266.727 67.1541 266.521 67.7466 266.385 68.4302C266.259 69.1024 266.197 69.8315 266.197 70.6177ZM293.13 55.1172H297.471L303.863 73.3862L310.254 55.1172H314.595L305.606 80H302.12L293.13 55.1172ZM290.789 55.1172H295.113L295.899 72.9248V80H290.789V55.1172ZM312.613 55.1172H316.954V80H311.827V72.9248L312.613 55.1172ZM331.121 75.8301V67.5928C331.121 67.0003 331.024 66.4933 330.831 66.0718C330.637 65.6388 330.335 65.3027 329.925 65.0635C329.526 64.8242 329.008 64.7046 328.37 64.7046C327.823 64.7046 327.35 64.8014 326.951 64.9951C326.552 65.1774 326.245 65.4451 326.028 65.7983C325.812 66.1401 325.704 66.5446 325.704 67.0117H320.782C320.782 66.2256 320.964 65.4793 321.329 64.7729C321.693 64.0666 322.223 63.4456 322.918 62.9102C323.613 62.3633 324.439 61.936 325.396 61.6284C326.364 61.3208 327.447 61.167 328.643 61.167C330.079 61.167 331.355 61.4062 332.471 61.8848C333.588 62.3633 334.465 63.0811 335.103 64.0381C335.752 64.9951 336.077 66.1914 336.077 67.627V75.5396C336.077 76.5535 336.14 77.3853 336.265 78.0347C336.39 78.6727 336.573 79.231 336.812 79.7095V80H331.839C331.6 79.4987 331.417 78.8721 331.292 78.1201C331.178 77.3568 331.121 76.5934 331.121 75.8301ZM331.771 68.7378L331.805 71.5234H329.053C328.404 71.5234 327.84 71.5975 327.361 71.7456C326.883 71.8937 326.49 72.1045 326.182 72.3779C325.875 72.64 325.647 72.9476 325.499 73.3008C325.362 73.654 325.293 74.0413 325.293 74.4629C325.293 74.8844 325.39 75.2661 325.584 75.6079C325.778 75.9383 326.057 76.2004 326.421 76.394C326.786 76.5763 327.213 76.6675 327.703 76.6675C328.444 76.6675 329.087 76.5194 329.634 76.2231C330.181 75.9269 330.603 75.5623 330.899 75.1294C331.207 74.6965 331.366 74.2863 331.377 73.8989L332.676 75.9839C332.494 76.451 332.243 76.9352 331.924 77.4365C331.617 77.9378 331.224 78.4106 330.745 78.855C330.267 79.2879 329.691 79.6468 329.019 79.9316C328.347 80.2051 327.549 80.3418 326.626 80.3418C325.453 80.3418 324.388 80.1082 323.431 79.6411C322.485 79.1626 321.733 78.5075 321.175 77.6758C320.628 76.8327 320.354 75.8757 320.354 74.8047C320.354 73.8363 320.537 72.9761 320.901 72.2241C321.266 71.4722 321.801 70.8398 322.508 70.3271C323.226 69.8031 324.12 69.41 325.191 69.1479C326.262 68.8745 327.504 68.7378 328.917 68.7378H331.771ZM344.673 53.75V80H339.751V53.75H344.673ZM343.973 70.105H342.623C342.634 68.8175 342.805 67.6326 343.135 66.5503C343.466 65.4565 343.938 64.5109 344.554 63.7134C345.169 62.9045 345.904 62.2778 346.758 61.8335C347.624 61.3892 348.581 61.167 349.629 61.167C350.541 61.167 351.367 61.298 352.107 61.5601C352.859 61.8107 353.503 62.2209 354.039 62.7905C354.585 63.3488 355.007 64.0837 355.303 64.9951C355.599 65.9066 355.748 67.0117 355.748 68.3105V80H350.792V68.2764C350.792 67.4561 350.672 66.8123 350.433 66.3452C350.205 65.8667 349.869 65.5306 349.424 65.3369C348.991 65.1318 348.456 65.0293 347.818 65.0293C347.111 65.0293 346.508 65.1603 346.006 65.4224C345.516 65.6844 345.123 66.049 344.827 66.5161C344.531 66.9718 344.314 67.5073 344.178 68.1226C344.041 68.7378 343.973 69.3986 343.973 70.105ZM370.411 75.9668V53.75H375.367V80H370.906L370.411 75.9668ZM358.721 70.9766V70.6177C358.721 69.2049 358.881 67.9232 359.2 66.7725C359.519 65.6104 359.986 64.6134 360.601 63.7817C361.216 62.95 361.974 62.3063 362.874 61.8506C363.774 61.3949 364.799 61.167 365.95 61.167C367.033 61.167 367.978 61.3949 368.787 61.8506C369.607 62.3063 370.302 62.9557 370.872 63.7988C371.453 64.6305 371.92 65.616 372.273 66.7554C372.627 67.8833 372.883 69.1195 373.042 70.4639V71.25C372.883 72.5374 372.627 73.7337 372.273 74.8389C371.92 75.944 371.453 76.9124 370.872 77.7441C370.302 78.5645 369.607 79.2025 368.787 79.6582C367.967 80.1139 367.01 80.3418 365.916 80.3418C364.765 80.3418 363.74 80.1082 362.84 79.6411C361.951 79.174 361.199 78.5189 360.584 77.6758C359.98 76.8327 359.519 75.8415 359.2 74.7021C358.881 73.5628 358.721 72.321 358.721 70.9766ZM363.643 70.6177V70.9766C363.643 71.7399 363.7 72.452 363.814 73.1128C363.939 73.7736 364.139 74.3604 364.412 74.873C364.697 75.3743 365.062 75.7674 365.506 76.0522C365.962 76.3257 366.514 76.4624 367.164 76.4624C368.007 76.4624 368.702 76.2744 369.249 75.8984C369.795 75.5111 370.211 74.9813 370.496 74.3091C370.792 73.6369 370.963 72.8621 371.009 71.9849V69.7461C370.975 69.0283 370.872 68.3846 370.701 67.8149C370.542 67.2339 370.302 66.7383 369.983 66.3281C369.676 65.918 369.288 65.599 368.821 65.3711C368.366 65.1432 367.824 65.0293 367.198 65.0293C366.56 65.0293 366.013 65.1774 365.557 65.4736C365.101 65.7585 364.731 66.1515 364.446 66.6528C364.173 67.1541 363.968 67.7466 363.831 68.4302C363.706 69.1024 363.643 69.8315 363.643 70.6177ZM384.407 61.5088V80H379.468V61.5088H384.407ZM379.161 56.6895C379.161 55.9717 379.411 55.3792 379.913 54.9121C380.414 54.445 381.086 54.2114 381.929 54.2114C382.761 54.2114 383.427 54.445 383.929 54.9121C384.441 55.3792 384.698 55.9717 384.698 56.6895C384.698 57.4072 384.441 57.9997 383.929 58.4668C383.427 58.9339 382.761 59.1675 381.929 59.1675C381.086 59.1675 380.414 58.9339 379.913 58.4668C379.411 57.9997 379.161 57.4072 379.161 56.6895ZM407.615 59.3726L400.848 80H395.396L404.642 55.1172H408.111L407.615 59.3726ZM413.238 80L406.453 59.3726L405.906 55.1172H409.41L418.707 80H413.238ZM412.93 70.7373V74.7534H399.788V70.7373H412.93ZM425.901 53.75V80H420.962V53.75H425.901ZM439.949 75.8301V67.5928C439.949 67.0003 439.852 66.4933 439.659 66.0718C439.465 65.6388 439.163 65.3027 438.753 65.0635C438.354 64.8242 437.836 64.7046 437.198 64.7046C436.651 64.7046 436.178 64.8014 435.779 64.9951C435.381 65.1774 435.073 65.4451 434.856 65.7983C434.64 66.1401 434.532 66.5446 434.532 67.0117H429.61C429.61 66.2256 429.792 65.4793 430.157 64.7729C430.521 64.0666 431.051 63.4456 431.746 62.9102C432.441 62.3633 433.267 61.936 434.224 61.6284C435.193 61.3208 436.275 61.167 437.471 61.167C438.907 61.167 440.183 61.4062 441.299 61.8848C442.416 62.3633 443.293 63.0811 443.931 64.0381C444.581 64.9951 444.905 66.1914 444.905 67.627V75.5396C444.905 76.5535 444.968 77.3853 445.093 78.0347C445.219 78.6727 445.401 79.231 445.64 79.7095V80H440.667C440.428 79.4987 440.245 78.8721 440.12 78.1201C440.006 77.3568 439.949 76.5934 439.949 75.8301ZM440.599 68.7378L440.633 71.5234H437.881C437.232 71.5234 436.668 71.5975 436.189 71.7456C435.711 71.8937 435.318 72.1045 435.01 72.3779C434.703 72.64 434.475 72.9476 434.327 73.3008C434.19 73.654 434.122 74.0413 434.122 74.4629C434.122 74.8844 434.218 75.2661 434.412 75.6079C434.606 75.9383 434.885 76.2004 435.25 76.394C435.614 76.5763 436.041 76.6675 436.531 76.6675C437.272 76.6675 437.916 76.5194 438.462 76.2231C439.009 75.9269 439.431 75.5623 439.727 75.1294C440.035 74.6965 440.194 74.2863 440.206 73.8989L441.504 75.9839C441.322 76.451 441.071 76.9352 440.752 77.4365C440.445 77.9378 440.052 78.4106 439.573 78.855C439.095 79.2879 438.519 79.6468 437.847 79.9316C437.175 80.2051 436.377 80.3418 435.455 80.3418C434.281 80.3418 433.216 80.1082 432.259 79.6411C431.313 79.1626 430.561 78.5075 430.003 77.6758C429.456 76.8327 429.183 75.8757 429.183 74.8047C429.183 73.8363 429.365 72.9761 429.729 72.2241C430.094 71.4722 430.63 70.8398 431.336 70.3271C432.054 69.8031 432.948 69.41 434.019 69.1479C435.09 68.8745 436.332 68.7378 437.745 68.7378H440.599ZM453.621 65.3369V80H448.682V61.5088H453.313L453.621 65.3369ZM452.938 70.105H451.57C451.57 68.8175 451.724 67.6326 452.032 66.5503C452.351 65.4565 452.812 64.5109 453.416 63.7134C454.031 62.9045 454.789 62.2778 455.689 61.8335C456.589 61.3892 457.632 61.167 458.816 61.167C459.637 61.167 460.389 61.2923 461.072 61.543C461.756 61.7822 462.343 62.1639 462.833 62.688C463.334 63.2007 463.721 63.8729 463.995 64.7046C464.268 65.5249 464.405 66.5104 464.405 67.6611V80H459.483V68.208C459.483 67.3649 459.369 66.7155 459.141 66.2598C458.913 65.804 458.589 65.485 458.167 65.3027C457.757 65.1204 457.261 65.0293 456.68 65.0293C456.042 65.0293 455.484 65.1603 455.005 65.4224C454.538 65.6844 454.151 66.049 453.843 66.5161C453.536 66.9718 453.308 67.5073 453.16 68.1226C453.012 68.7378 452.938 69.3986 452.938 70.105ZM463.943 69.541L462.183 69.7632C462.183 68.5555 462.331 67.4333 462.627 66.3965C462.935 65.3597 463.385 64.4482 463.978 63.6621C464.581 62.876 465.328 62.2664 466.216 61.8335C467.105 61.3892 468.13 61.167 469.292 61.167C470.181 61.167 470.99 61.298 471.719 61.5601C472.448 61.8107 473.069 62.2152 473.582 62.7734C474.106 63.3203 474.505 64.0381 474.778 64.9268C475.063 65.8154 475.206 66.9035 475.206 68.1909V80H470.267V68.1909C470.267 67.3364 470.153 66.687 469.925 66.2427C469.708 65.7869 469.389 65.4736 468.968 65.3027C468.558 65.1204 468.068 65.0293 467.498 65.0293C466.906 65.0293 466.387 65.1489 465.943 65.3882C465.499 65.616 465.128 65.9351 464.832 66.3452C464.536 66.7554 464.314 67.2339 464.166 67.7808C464.017 68.3162 463.943 68.903 463.943 69.541ZM487.527 80.3418C486.092 80.3418 484.804 80.1139 483.665 79.6582C482.526 79.1911 481.557 78.5474 480.76 77.7271C479.974 76.9067 479.37 75.9554 478.948 74.873C478.527 73.7793 478.316 72.6172 478.316 71.3867V70.7031C478.316 69.3018 478.515 68.02 478.914 66.8579C479.313 65.6958 479.882 64.6875 480.623 63.833C481.375 62.9785 482.286 62.3234 483.357 61.8677C484.428 61.4006 485.636 61.167 486.98 61.167C488.291 61.167 489.453 61.3835 490.467 61.8164C491.481 62.2493 492.33 62.8646 493.013 63.6621C493.708 64.4596 494.232 65.4167 494.585 66.5332C494.939 67.6383 495.115 68.8688 495.115 70.2246V72.2754H480.418V68.9941H490.279V68.6182C490.279 67.9346 490.153 67.325 489.903 66.7896C489.664 66.2427 489.299 65.8097 488.809 65.4907C488.319 65.1717 487.693 65.0122 486.929 65.0122C486.28 65.0122 485.722 65.1546 485.254 65.4395C484.787 65.7243 484.406 66.123 484.109 66.6357C483.825 67.1484 483.608 67.7523 483.46 68.4473C483.323 69.1309 483.255 69.8828 483.255 70.7031V71.3867C483.255 72.1273 483.357 72.8109 483.562 73.4375C483.779 74.0641 484.081 74.6053 484.468 75.061C484.867 75.5168 485.346 75.87 485.904 76.1206C486.473 76.3713 487.117 76.4966 487.835 76.4966C488.724 76.4966 489.55 76.3257 490.313 75.9839C491.088 75.6307 491.754 75.1009 492.312 74.3945L494.705 76.9922C494.318 77.5505 493.788 78.0859 493.116 78.5986C492.455 79.1113 491.657 79.5329 490.723 79.8633C489.789 80.1823 488.724 80.3418 487.527 80.3418ZM502.72 53.75V80H497.798V53.75H502.72ZM502.02 70.105H500.669C500.681 68.8175 500.852 67.6326 501.182 66.5503C501.513 65.4565 501.985 64.5109 502.601 63.7134C503.216 62.9045 503.951 62.2778 504.805 61.8335C505.671 61.3892 506.628 61.167 507.676 61.167C508.588 61.167 509.414 61.298 510.154 61.5601C510.906 61.8107 511.55 62.2209 512.085 62.7905C512.632 63.3488 513.054 64.0837 513.35 64.9951C513.646 65.9066 513.794 67.0117 513.794 68.3105V80H508.838V68.2764C508.838 67.4561 508.719 66.8123 508.479 66.3452C508.252 65.8667 507.916 65.5306 507.471 65.3369C507.038 65.1318 506.503 65.0293 505.865 65.0293C505.158 65.0293 504.555 65.1603 504.053 65.4224C503.563 65.6844 503.17 66.049 502.874 66.5161C502.578 66.9718 502.361 67.5073 502.225 68.1226C502.088 68.7378 502.02 69.3986 502.02 70.105Z" fill="#888888"/>
<rect x="92" y="181" width="1179" height="80" rx="13.3333" fill="#CCCCCC"/>
<rect x="107" y="196.333" width="208" height="49.3333" rx="4.66667" fill="#888888" stroke="#888888" stroke-width="4"/>
<path d="M187.573 213.167V228.333H183.917V213.167H187.573ZM196.625 213.167L190.75 220.854L187.312 224.615L186.646 221.26L188.844 217.927L192.115 213.167H196.625ZM192.302 228.333L188.385 221.5L191.229 219.406L196.625 228.333H192.302ZM196.667 222.812V222.594C196.667 221.767 196.785 221.007 197.021 220.312C197.257 219.611 197.604 219.003 198.062 218.49C198.521 217.976 199.087 217.576 199.76 217.292C200.434 217 201.212 216.854 202.094 216.854C202.983 216.854 203.764 217 204.437 217.292C205.118 217.576 205.687 217.976 206.146 218.49C206.604 219.003 206.951 219.611 207.187 220.312C207.424 221.007 207.542 221.767 207.542 222.594V222.812C207.542 223.632 207.424 224.392 207.187 225.094C206.951 225.788 206.604 226.396 206.146 226.917C205.687 227.431 205.122 227.83 204.448 228.115C203.774 228.399 202.997 228.542 202.115 228.542C201.233 228.542 200.451 228.399 199.771 228.115C199.09 227.83 198.521 227.431 198.062 226.917C197.604 226.396 197.257 225.788 197.021 225.094C196.785 224.392 196.667 223.632 196.667 222.812ZM200.177 222.594V222.812C200.177 223.236 200.208 223.632 200.271 224C200.333 224.368 200.437 224.691 200.583 224.969C200.729 225.24 200.927 225.451 201.177 225.604C201.427 225.757 201.74 225.833 202.115 225.833C202.483 225.833 202.788 225.757 203.031 225.604C203.281 225.451 203.479 225.24 203.625 224.969C203.771 224.691 203.875 224.368 203.937 224C204 223.632 204.031 223.236 204.031 222.812V222.594C204.031 222.184 204 221.799 203.937 221.437C203.875 221.069 203.771 220.747 203.625 220.469C203.479 220.184 203.281 219.962 203.031 219.802C202.781 219.642 202.469 219.562 202.094 219.562C201.726 219.562 201.417 219.642 201.167 219.802C200.924 219.962 200.729 220.184 200.583 220.469C200.437 220.747 200.333 221.069 200.271 221.437C200.208 221.799 200.177 222.184 200.177 222.594ZM215.042 217.062V219.5H208.25V217.062H215.042ZM209.677 214.26H213.187V224.656C213.187 224.955 213.222 225.187 213.292 225.354C213.361 225.514 213.479 225.628 213.646 225.698C213.819 225.76 214.049 225.792 214.333 225.792C214.535 225.792 214.701 225.788 214.833 225.781C214.965 225.767 215.09 225.75 215.208 225.729V228.24C214.91 228.337 214.597 228.41 214.271 228.458C213.944 228.514 213.597 228.542 213.229 228.542C212.479 228.542 211.837 228.424 211.302 228.187C210.774 227.951 210.372 227.58 210.094 227.073C209.816 226.566 209.677 225.906 209.677 225.094V214.26ZM220.146 212.333V228.333H216.625V212.333H220.146ZM226.021 217.062V228.333H222.5V217.062H226.021ZM222.292 214.156C222.292 213.656 222.472 213.247 222.833 212.927C223.194 212.608 223.663 212.448 224.24 212.448C224.816 212.448 225.285 212.608 225.646 212.927C226.007 213.247 226.187 213.656 226.187 214.156C226.187 214.656 226.007 215.066 225.646 215.385C225.285 215.705 224.816 215.865 224.24 215.865C223.663 215.865 223.194 215.705 222.833 215.385C222.472 215.066 222.292 214.656 222.292 214.156ZM231.635 219.469V228.333H228.125V217.062H231.417L231.635 219.469ZM231.219 222.312L230.396 222.333C230.396 221.472 230.5 220.705 230.708 220.031C230.917 219.351 231.212 218.774 231.594 218.302C231.976 217.83 232.431 217.472 232.958 217.229C233.493 216.979 234.087 216.854 234.74 216.854C235.26 216.854 235.736 216.931 236.167 217.083C236.604 217.236 236.979 217.483 237.292 217.823C237.611 218.163 237.854 218.615 238.021 219.177C238.194 219.733 238.281 220.42 238.281 221.24V228.333H234.75V221.229C234.75 220.778 234.687 220.434 234.562 220.198C234.437 219.955 234.257 219.788 234.021 219.698C233.785 219.608 233.497 219.562 233.156 219.562C232.795 219.562 232.49 219.632 232.24 219.771C231.99 219.91 231.788 220.104 231.635 220.354C231.49 220.597 231.382 220.885 231.312 221.219C231.25 221.552 231.219 221.917 231.219 222.312Z" fill="white"/>
<rect x="339" y="196.333" width="208" height="49.3333" rx="4.66667" fill="#888888" stroke="#888888" stroke-width="4"/>
<path d="M416.5 213.167H422.469C423.635 213.167 424.649 213.34 425.51 213.687C426.372 214.035 427.035 214.549 427.5 215.229C427.972 215.91 428.208 216.75 428.208 217.75C428.208 218.618 428.073 219.344 427.802 219.927C427.531 220.51 427.153 220.993 426.667 221.375C426.188 221.75 425.628 222.059 424.99 222.302L423.792 222.979H418.781L418.76 220.156H422.469C422.934 220.156 423.319 220.073 423.625 219.906C423.931 219.74 424.16 219.503 424.313 219.198C424.472 218.885 424.552 218.514 424.552 218.083C424.552 217.646 424.472 217.271 424.313 216.958C424.153 216.646 423.917 216.406 423.604 216.24C423.299 216.073 422.92 215.99 422.469 215.99H420.156V228.333H416.5V213.167ZM424.802 228.333L421.448 221.625L425.323 221.604L428.719 228.177V228.333H424.802ZM435.708 228.542C434.792 228.542 433.972 228.399 433.25 228.115C432.528 227.823 431.917 227.424 431.417 226.917C430.924 226.41 430.545 225.826 430.281 225.167C430.024 224.507 429.896 223.809 429.896 223.073V222.677C429.896 221.851 430.01 221.087 430.24 220.385C430.469 219.677 430.809 219.059 431.26 218.531C431.712 218.003 432.278 217.594 432.958 217.302C433.639 217.003 434.431 216.854 435.333 216.854C436.132 216.854 436.847 216.983 437.479 217.24C438.111 217.497 438.646 217.865 439.083 218.344C439.528 218.823 439.865 219.403 440.094 220.083C440.33 220.764 440.448 221.528 440.448 222.375V223.802H431.24V221.604H437.021V221.333C437.028 220.958 436.962 220.639 436.823 220.375C436.691 220.111 436.497 219.91 436.24 219.771C435.983 219.632 435.67 219.562 435.302 219.562C434.92 219.562 434.604 219.646 434.354 219.812C434.111 219.979 433.92 220.208 433.781 220.5C433.649 220.785 433.556 221.115 433.5 221.49C433.444 221.865 433.417 222.26 433.417 222.677V223.073C433.417 223.49 433.472 223.868 433.583 224.208C433.701 224.549 433.868 224.84 434.083 225.083C434.306 225.319 434.569 225.503 434.875 225.635C435.187 225.767 435.542 225.833 435.937 225.833C436.417 225.833 436.889 225.743 437.354 225.562C437.819 225.382 438.219 225.083 438.552 224.667L440.146 226.562C439.917 226.889 439.59 227.205 439.167 227.51C438.75 227.816 438.25 228.066 437.667 228.26C437.083 228.448 436.431 228.542 435.708 228.542ZM447.729 225.5V220.854C447.729 220.535 447.684 220.26 447.594 220.031C447.503 219.802 447.361 219.625 447.167 219.5C446.972 219.368 446.712 219.302 446.385 219.302C446.122 219.302 445.896 219.347 445.708 219.437C445.521 219.528 445.378 219.663 445.281 219.844C445.184 220.024 445.135 220.253 445.135 220.531H441.625C441.625 220.01 441.74 219.528 441.969 219.083C442.205 218.632 442.538 218.24 442.969 217.906C443.406 217.573 443.927 217.316 444.531 217.135C445.142 216.948 445.823 216.854 446.573 216.854C447.469 216.854 448.267 217.003 448.969 217.302C449.677 217.601 450.236 218.049 450.646 218.646C451.056 219.236 451.26 219.979 451.26 220.875V225.49C451.26 226.226 451.302 226.785 451.385 227.167C451.469 227.542 451.587 227.872 451.74 228.156V228.333H448.219C448.052 227.986 447.927 227.562 447.844 227.062C447.767 226.556 447.729 226.035 447.729 225.5ZM448.156 221.448L448.177 223.323H446.625C446.299 223.323 446.021 223.368 445.792 223.458C445.569 223.549 445.389 223.674 445.25 223.833C445.118 223.986 445.021 224.16 444.958 224.354C444.903 224.549 444.875 224.753 444.875 224.969C444.875 225.177 444.924 225.365 445.021 225.531C445.125 225.691 445.264 225.816 445.438 225.906C445.611 225.997 445.806 226.042 446.021 226.042C446.41 226.042 446.74 225.969 447.01 225.823C447.288 225.67 447.5 225.486 447.646 225.271C447.792 225.056 447.865 224.854 447.865 224.667L448.635 226.104C448.497 226.382 448.337 226.663 448.156 226.948C447.983 227.233 447.764 227.497 447.5 227.74C447.243 227.976 446.927 228.17 446.552 228.323C446.177 228.469 445.722 228.542 445.188 228.542C444.493 228.542 443.854 228.399 443.271 228.115C442.694 227.83 442.233 227.434 441.885 226.927C441.538 226.413 441.365 225.823 441.365 225.156C441.365 224.573 441.469 224.052 441.677 223.594C441.892 223.135 442.215 222.747 442.646 222.427C443.076 222.108 443.625 221.865 444.292 221.698C444.958 221.531 445.743 221.448 446.646 221.448H448.156ZM457.969 225.833C458.295 225.833 458.573 225.774 458.802 225.656C459.038 225.531 459.215 225.358 459.333 225.135C459.458 224.906 459.517 224.632 459.51 224.312H462.813C462.819 225.16 462.611 225.903 462.188 226.542C461.771 227.174 461.201 227.667 460.479 228.021C459.764 228.368 458.955 228.542 458.052 228.542C457.17 228.542 456.399 228.399 455.74 228.115C455.08 227.823 454.528 227.42 454.083 226.906C453.646 226.385 453.316 225.778 453.094 225.083C452.878 224.389 452.771 223.635 452.771 222.823V222.583C452.771 221.771 452.878 221.017 453.094 220.323C453.316 219.622 453.646 219.014 454.083 218.5C454.528 217.979 455.076 217.576 455.729 217.292C456.389 217 457.156 216.854 458.031 216.854C458.969 216.854 459.795 217.031 460.51 217.385C461.233 217.74 461.799 218.253 462.208 218.927C462.618 219.601 462.819 220.417 462.813 221.375H459.51C459.517 221.035 459.465 220.729 459.354 220.458C459.243 220.187 459.069 219.972 458.833 219.812C458.604 219.646 458.309 219.562 457.948 219.562C457.587 219.562 457.295 219.642 457.073 219.802C456.851 219.962 456.681 220.184 456.563 220.469C456.451 220.747 456.375 221.066 456.333 221.427C456.299 221.788 456.281 222.174 456.281 222.583V222.823C456.281 223.24 456.299 223.632 456.333 224C456.375 224.361 456.455 224.681 456.573 224.958C456.691 225.229 456.861 225.444 457.083 225.604C457.306 225.757 457.601 225.833 457.969 225.833ZM470.25 217.062V219.5H463.458V217.062H470.25ZM464.885 214.26H468.396V224.656C468.396 224.955 468.431 225.187 468.5 225.354C468.569 225.514 468.688 225.628 468.854 225.698C469.028 225.76 469.257 225.792 469.542 225.792C469.743 225.792 469.91 225.788 470.042 225.781C470.174 225.767 470.299 225.75 470.417 225.729V228.24C470.118 228.337 469.806 228.41 469.479 228.458C469.153 228.514 468.806 228.542 468.438 228.542C467.688 228.542 467.045 228.424 466.51 228.187C465.983 227.951 465.58 227.58 465.302 227.073C465.024 226.566 464.885 225.906 464.885 225.094V214.26Z" fill="white"/>
<rect x="571" y="196.333" width="208" height="49.3333" rx="4.66667" fill="#888888" stroke="#888888" stroke-width="4"/>
<path d="M651.073 225.521V228.333H643.406V225.521H651.073ZM644.708 213.167V228.333H641.052V213.167H644.708ZM658.302 225.5V220.854C658.302 220.535 658.257 220.26 658.167 220.031C658.076 219.802 657.934 219.625 657.74 219.5C657.545 219.368 657.285 219.302 656.958 219.302C656.694 219.302 656.469 219.347 656.281 219.437C656.094 219.528 655.951 219.663 655.854 219.844C655.757 220.024 655.708 220.253 655.708 220.531H652.198C652.198 220.01 652.312 219.528 652.542 219.083C652.778 218.632 653.111 218.24 653.542 217.906C653.979 217.573 654.5 217.316 655.104 217.135C655.715 216.948 656.396 216.854 657.146 216.854C658.042 216.854 658.84 217.003 659.542 217.302C660.25 217.601 660.809 218.049 661.219 218.646C661.628 219.236 661.833 219.979 661.833 220.875V225.49C661.833 226.226 661.875 226.785 661.958 227.167C662.042 227.542 662.16 227.872 662.312 228.156V228.333H658.792C658.625 227.986 658.5 227.562 658.417 227.062C658.34 226.556 658.302 226.035 658.302 225.5ZM658.729 221.448L658.75 223.323H657.198C656.872 223.323 656.594 223.368 656.365 223.458C656.142 223.549 655.962 223.674 655.823 223.833C655.691 223.986 655.594 224.16 655.531 224.354C655.476 224.549 655.448 224.753 655.448 224.969C655.448 225.177 655.497 225.365 655.594 225.531C655.698 225.691 655.837 225.816 656.01 225.906C656.184 225.997 656.378 226.042 656.594 226.042C656.983 226.042 657.312 225.969 657.583 225.823C657.861 225.67 658.073 225.486 658.219 225.271C658.365 225.056 658.437 224.854 658.437 224.667L659.208 226.104C659.069 226.382 658.91 226.663 658.729 226.948C658.556 227.233 658.337 227.497 658.073 227.74C657.816 227.976 657.5 228.17 657.125 228.323C656.75 228.469 656.295 228.542 655.76 228.542C655.066 228.542 654.427 228.399 653.844 228.115C653.267 227.83 652.806 227.434 652.458 226.927C652.111 226.413 651.937 225.823 651.937 225.156C651.937 224.573 652.042 224.052 652.25 223.594C652.465 223.135 652.788 222.747 653.219 222.427C653.649 222.108 654.198 221.865 654.865 221.698C655.531 221.531 656.316 221.448 657.219 221.448H658.729ZM667.323 219.854V228.333H663.812V217.062H667.094L667.323 219.854ZM670.656 216.979L670.594 220.24C670.455 220.226 670.267 220.208 670.031 220.187C669.795 220.167 669.597 220.156 669.437 220.156C669.028 220.156 668.674 220.205 668.375 220.302C668.083 220.392 667.84 220.531 667.646 220.719C667.458 220.899 667.319 221.128 667.229 221.406C667.146 221.684 667.108 222.007 667.115 222.375L666.479 221.958C666.479 221.201 666.552 220.514 666.698 219.896C666.851 219.271 667.066 218.733 667.344 218.281C667.622 217.823 667.958 217.472 668.354 217.229C668.75 216.979 669.194 216.854 669.687 216.854C669.861 216.854 670.031 216.865 670.198 216.885C670.372 216.906 670.524 216.937 670.656 216.979ZM677.406 225.5V220.854C677.406 220.535 677.361 220.26 677.271 220.031C677.181 219.802 677.038 219.625 676.844 219.5C676.649 219.368 676.389 219.302 676.063 219.302C675.799 219.302 675.573 219.347 675.385 219.437C675.198 219.528 675.056 219.663 674.958 219.844C674.861 220.024 674.813 220.253 674.813 220.531H671.302C671.302 220.01 671.417 219.528 671.646 219.083C671.882 218.632 672.215 218.24 672.646 217.906C673.083 217.573 673.604 217.316 674.208 217.135C674.819 216.948 675.5 216.854 676.25 216.854C677.146 216.854 677.944 217.003 678.646 217.302C679.354 217.601 679.913 218.049 680.323 218.646C680.733 219.236 680.938 219.979 680.938 220.875V225.49C680.938 226.226 680.979 226.785 681.063 227.167C681.146 227.542 681.264 227.872 681.417 228.156V228.333H677.896C677.729 227.986 677.604 227.562 677.521 227.062C677.444 226.556 677.406 226.035 677.406 225.5ZM677.833 221.448L677.854 223.323H676.302C675.976 223.323 675.698 223.368 675.469 223.458C675.247 223.549 675.066 223.674 674.927 223.833C674.795 223.986 674.698 224.16 674.635 224.354C674.58 224.549 674.552 224.753 674.552 224.969C674.552 225.177 674.601 225.365 674.698 225.531C674.802 225.691 674.941 225.816 675.115 225.906C675.288 225.997 675.483 226.042 675.698 226.042C676.087 226.042 676.417 225.969 676.688 225.823C676.965 225.67 677.177 225.486 677.323 225.271C677.469 225.056 677.542 224.854 677.542 224.667L678.313 226.104C678.174 226.382 678.014 226.663 677.833 226.948C677.66 227.233 677.441 227.497 677.177 227.74C676.92 227.976 676.604 228.17 676.229 228.323C675.854 228.469 675.399 228.542 674.865 228.542C674.17 228.542 673.531 228.399 672.948 228.115C672.372 227.83 671.91 227.434 671.563 226.927C671.215 226.413 671.042 225.823 671.042 225.156C671.042 224.573 671.146 224.052 671.354 223.594C671.569 223.135 671.892 222.747 672.323 222.427C672.753 222.108 673.302 221.865 673.969 221.698C674.635 221.531 675.42 221.448 676.323 221.448H677.833ZM686.781 225.927L689 217.062H692.698L689.01 228.333H686.823L686.781 225.927ZM685.469 217.062L687.656 225.927L687.635 228.333H685.437L681.76 217.062H685.469ZM699.052 228.542C698.135 228.542 697.316 228.399 696.594 228.115C695.872 227.823 695.26 227.424 694.76 226.917C694.267 226.41 693.889 225.826 693.625 225.167C693.368 224.507 693.24 223.809 693.24 223.073V222.677C693.24 221.851 693.354 221.087 693.583 220.385C693.812 219.677 694.153 219.059 694.604 218.531C695.056 218.003 695.622 217.594 696.302 217.302C696.983 217.003 697.774 216.854 698.677 216.854C699.476 216.854 700.191 216.983 700.823 217.24C701.455 217.497 701.99 217.865 702.427 218.344C702.872 218.823 703.208 219.403 703.437 220.083C703.674 220.764 703.792 221.528 703.792 222.375V223.802H694.583V221.604H700.365V221.333C700.372 220.958 700.306 220.639 700.167 220.375C700.035 220.111 699.84 219.91 699.583 219.771C699.326 219.632 699.014 219.562 698.646 219.562C698.264 219.562 697.948 219.646 697.698 219.812C697.455 219.979 697.264 220.208 697.125 220.5C696.993 220.785 696.899 221.115 696.844 221.49C696.788 221.865 696.76 222.26 696.76 222.677V223.073C696.76 223.49 696.816 223.868 696.927 224.208C697.045 224.549 697.212 224.84 697.427 225.083C697.649 225.319 697.913 225.503 698.219 225.635C698.531 225.767 698.885 225.833 699.281 225.833C699.76 225.833 700.233 225.743 700.698 225.562C701.163 225.382 701.562 225.083 701.896 224.667L703.49 226.562C703.26 226.889 702.934 227.205 702.51 227.51C702.094 227.816 701.594 228.066 701.01 228.26C700.427 228.448 699.774 228.542 699.052 228.542ZM708.927 212.333V228.333H705.406V212.333H708.927Z" fill="white"/>
</svg>
