<svg width="93" height="18" viewBox="0 0 93 18" fill="none" xmlns="http://www.w3.org/2000/svg">
<path d="M0.285156 18V0.545454H7.81925C9.1147 0.545454 10.2482 0.78125 11.2198 1.25284C12.1914 1.72443 12.9471 2.40341 13.4869 3.28977C14.0266 4.17614 14.2965 5.23864 14.2965 6.47727C14.2965 7.72727 14.0181 8.78125 13.4613 9.6392C12.9102 10.4972 12.1346 11.1449 11.1346 11.5824C10.1403 12.0199 8.97834 12.2386 7.64879 12.2386H3.14879V8.55682H6.69425C7.25107 8.55682 7.7255 8.48864 8.11754 8.35227C8.51527 8.21023 8.81925 7.9858 9.02947 7.67898C9.24538 7.37216 9.35334 6.97159 9.35334 6.47727C9.35334 5.97727 9.24538 5.57102 9.02947 5.25852C8.81925 4.94034 8.51527 4.70739 8.11754 4.55966C7.7255 4.40625 7.25107 4.32954 6.69425 4.32954H5.02379V18H0.285156ZM10.5124 9.98864L14.8761 18H9.72834L5.46697 9.98864H10.5124ZM16.3164 18V0.545454H28.896V4.36364H21.055V7.36364H28.2482V11.1818H21.055V14.1818H28.8619V18H16.3164ZM46.3484 0.545454V18H42.3938L36.087 8.82955H35.9847V18H31.2461V0.545454H35.2688L41.4734 9.68182H41.6097V0.545454H46.3484ZM48.1126 4.36364V0.545454H63.283V4.36364H58.033V18H53.3626V4.36364H48.1126Z" fill="white"/>
<path d="M65.0664 18V0.545454H69.805V14.1818H76.8619V18H65.0664ZM74.8974 0.545454H80.1815L83.5906 7.63636H83.7269L87.136 0.545454H92.4201L86.011 12.5114V18H81.3065V12.5114L74.8974 0.545454Z" fill="#2DD36F"/>
</svg>
